<?xml version="1.0" encoding="utf-8"?>
<!-- Generator: Adobe Illustrator 23.0.1, SVG Export Plug-In . SVG Version: 6.00 Build 0)  -->
<svg version="1.1" id="Layer_1" xmlns="http://www.w3.org/2000/svg" xmlns:xlink="http://www.w3.org/1999/xlink" x="0px" y="0px"
	 viewBox="0 0 300 136" enable-background="new 0 0 300 136" xml:space="preserve">
<g>
	<path fill="#FFFFFF" d="M83.49,129.44c0,0,0,0.12,0.01,0.36c0.01,0.24-0.07,0.46-0.24,0.65c-0.03,0.09-0.1,0.14-0.2,0.14h-0.43
		l-0.38-0.14c-0.13,0.09-0.25,0.29-0.35,0.58c-0.14,0.38-0.4,0.58-0.79,0.58c-0.06-0.1-0.16-0.14-0.31-0.14
		c-0.14,0-0.25-0.05-0.31-0.14c-0.18-0.29-0.52-0.29-1.01,0l-0.2,0.14l0.01-0.43c-0.19,0-0.43,0.05-0.7,0.14
		c-0.28,0.1-0.44,0.1-0.5,0c-0.06-0.1-0.17-0.12-0.33-0.07c-0.16,0.05-0.29,0.07-0.39,0.07c-0.06-0.1-0.06-0.29-0.01-0.58
		c0.06-0.29,0.05-0.48-0.01-0.58c-0.12-0.19-0.04-0.29,0.25-0.29l0.97-0.29l0.64-0.58l0.05-0.14c-0.05-0.38,0.15-0.82,0.62-1.3
		l0.35-0.58c-0.22-0.19-0.29-0.53-0.21-1.01c-0.3,0.29-0.61,0.62-0.95,1.01c-0.17,0.19-0.19,0.38-0.07,0.58
		c-0.01,0.29-0.18,0.48-0.5,0.58h-0.14l-1.22,0.58c-0.24,0.38-0.45,0.43-0.63,0.14c0.01-0.29-0.18-0.29-0.58,0
		c-0.72,0.38-1.11,0.29-1.19-0.29c-0.1,0-0.13-0.05-0.09-0.14c-0.16-0.1-0.29-0.14-0.38-0.14c-0.1,0-0.26,0.05-0.48,0.14l-0.34,0.14
		c-0.16-0.1-0.25-0.1-0.29,0c-0.03,0.1-0.07,0.19-0.11,0.29c-0.12-0.19-0.34-0.31-0.66-0.36c-0.32-0.05-0.61-0.12-0.86-0.22h-0.29
		c-0.03-0.19-0.18-0.43-0.46-0.72c-0.28-0.29-0.42-0.58-0.41-0.87c0.05-0.67-0.14-1.06-0.59-1.15c0.04-0.1,0-0.14-0.09-0.14
		l-0.33-1.88c0.04-0.1,0.08-0.22,0.13-0.36c0.05-0.15,0.05-0.27-0.01-0.36c0.04-0.1,0.02-0.19-0.04-0.29
		c-0.06-0.1-0.03-0.19,0.11-0.29c0.04-0.1,0-0.19-0.11-0.29c-0.11-0.1-0.14-0.19-0.11-0.29c-0.06-0.1-0.01-0.24,0.16-0.43
		c0.16-0.19,0.27-0.34,0.3-0.43l-0.24-0.14c-0.16-0.09-0.43-0.14-0.81-0.14c-0.23,0.1-0.38,0.12-0.46,0.07
		c-0.08-0.05-0.13-0.17-0.16-0.36l-0.16-1.16l-0.51-0.58c-0.32-0.19-0.42-0.43-0.31-0.72c-0.11-0.48-0.2-0.77-0.26-0.87l-0.04-0.29
		c0.07-0.19,0.06-0.29-0.04-0.29l-0.38-0.14c-0.18-0.29-0.21-0.48-0.08-0.58c0.11-0.29,0.28-0.38,0.54-0.29
		c0.09,0,0.22-0.07,0.37-0.22c0.15-0.14,0.24-0.26,0.28-0.36c0.26-0.19,0.28-0.38,0.07-0.58l-0.37-0.58L67,113.27l-0.1,0.29
		c-0.13,0.1-0.18,0.17-0.15,0.22c0.03,0.05-0.02,0.12-0.15,0.22c-0.26,0.19-0.47,0.24-0.63,0.14h-0.43c-0.19,0-0.24-0.14-0.13-0.43
		c-0.09-0.29,0-0.53,0.26-0.72c0.14-0.38,0.18-0.62,0.12-0.72c-0.18-0.29-0.13-0.58,0.17-0.87l0.45-0.43
		c0.07-0.19,0.07-0.34,0.01-0.43l-0.33-0.29c-0.06-0.09-0.05-0.19,0.03-0.29c0.08-0.1,0.17-0.14,0.27-0.14l0.34-0.14
		c0.26-0.19,0.36-0.19,0.29,0c0.09,0,0.12,0.05,0.09,0.14c0.12,0.19,0.23,0.29,0.33,0.29l0.2-0.14c0.07-0.19,0.04-0.38-0.08-0.58
		c-0.06-0.09-0.16-0.22-0.3-0.36c-0.14-0.14-0.23-0.31-0.25-0.5l0.05-0.14c-0.03-0.19-0.11-0.24-0.24-0.14
		c-0.29,0-0.37,0.1-0.25,0.29c-0.1,0.29-0.24,0.53-0.41,0.72c-0.12-0.19-0.17-0.34-0.13-0.43l-0.04-0.29
		c-0.41-0.19-0.36-0.72,0.14-1.59l0.21-0.58c-0.09-0.29,0-0.53,0.26-0.72c0.13-0.09,0.42-0.24,0.88-0.43
		c0.36-0.19,0.57-0.38,0.64-0.58c-0.06-0.09-0.05-0.19,0.03-0.29c0.08-0.09,0.09-0.19,0.03-0.29c-0.03-0.19,0.09-0.38,0.35-0.58
		c0.07-0.19,0.25-0.29,0.54-0.29c0.26-0.19,0.31-0.34,0.16-0.43c-0.1,0-0.11-0.09-0.04-0.29c0.13-0.09,0.18-0.17,0.15-0.21
		c-0.03-0.05-0.1-0.07-0.19-0.07c-0.19,0-0.3-0.05-0.31-0.14c-0.02-0.1,0.06-0.24,0.23-0.43c0.07-0.19,0.07-0.34,0.01-0.43
		c-0.06-0.09-0.21-0.48-0.45-1.15c-0.03-0.19,0.06-0.36,0.26-0.51s0.31-0.26,0.35-0.36c0.26-0.19,0.43-0.38,0.5-0.58
		c0.37-0.48,0.74-0.72,1.13-0.72c0.09,0,0.18-0.02,0.24-0.07c0.06-0.05,0.07-0.12,0.01-0.22C71.08,97.45,71,97.4,70.9,97.4
		l-0.74,0.43c-0.09-0.29-0.07-0.48,0.07-0.58l0.16-0.43c0.07-0.19,0.25-0.29,0.54-0.29h0.14c0.16-0.19,0.49-0.29,0.97-0.29
		c0.06,0.1,0.12,0.12,0.19,0.07c0.06-0.05,0.07-0.12,0.01-0.22l0.16-0.43c0.14-0.38,0.03-0.48-0.33-0.29
		c-0.13,0.1-0.24,0.12-0.32,0.07c-0.08-0.05-0.05-0.12,0.08-0.22c0.16-0.19,0.16-0.58-0.01-1.16c-0.26,0.19-0.41,0.34-0.45,0.43
		c-0.26,0.19-0.47,0.24-0.63,0.15c-0.31-0.48-0.18-0.96,0.38-1.44c0.03-0.09,0.1-0.14,0.2-0.14c0.09,0,0.13,0.05,0.09,0.14
		l0.18,0.29l0.49-0.14c0.03-0.09,0.1-0.14,0.2-0.14c0.12,0.19,0.33,0.14,0.63-0.14l-0.31-0.72c0.07-0.19,0-0.34-0.2-0.43
		c-0.21-0.1-0.34-0.19-0.4-0.29l-0.34,0.14c-0.13,0.1-0.29,0.15-0.49,0.15c0.1-0.29,0.22-0.48,0.35-0.58l0.21-0.58
		c-0.09-0.29,0.06-0.43,0.45-0.43l0.34-0.14c0.03-0.09,0.1-0.14,0.2-0.14c0.02,0.19,0.07,0.27,0.14,0.22
		c0.06-0.05,0.12-0.12,0.15-0.22c0.13-0.09,0.2-0.29,0.21-0.58c-0.19,0-0.54-0.09-1.05-0.29c-0.06-0.09-0.13-0.12-0.19-0.07
		c-0.07,0.05-0.12,0.12-0.15,0.22l-0.25,0.29c-0.04,0.1-0.15,0.14-0.34,0.14c-0.12-0.19-0.17-0.34-0.13-0.43
		c-0.03-0.19-0.11-0.24-0.24-0.14c-0.1,0-0.13-0.05-0.09-0.14c0.03-0.09,0.03-0.33-0.03-0.72c0.03-0.09,0.08-0.22,0.13-0.36
		c0.05-0.15,0.19-0.26,0.42-0.36c0.19,0,0.23-0.09,0.1-0.29c-0.03-0.19,0.01-0.36,0.11-0.51c0.1-0.14,0.17-0.26,0.2-0.36l0.25-0.29
		c0.07-0.19,0.11-0.36,0.11-0.51c0-0.14-0.09-0.22-0.28-0.22c-0.39,0-0.53-0.14-0.42-0.43c-0.12-0.19-0.05-0.38,0.21-0.58
		c0.13-0.09,0.3-0.22,0.49-0.36c0.2-0.14,0.41-0.26,0.64-0.36c-0.16-0.09-0.38-0.14-0.67-0.14c-0.23,0.1-0.4,0.12-0.53,0.07
		c-0.13-0.05-0.14-0.22-0.03-0.5l-0.22-0.58c-0.16-0.09-0.21-0.22-0.16-0.36c0.05-0.15,0.16-0.31,0.33-0.51
		c0.13-0.09,0.16-0.19,0.1-0.29c-0.06-0.09-0.07-0.19-0.04-0.29c0.26-0.19,0.49-0.29,0.68-0.29h0.14c-0.06-0.1-0.03-0.19,0.1-0.29
		c0.13-0.09,0.17-0.19,0.11-0.29c0.03-0.1,0-0.14-0.09-0.14h-0.58l-0.24-0.14c0.07-0.19,0.06-0.36-0.03-0.5
		c-0.09-0.14-0.17-0.26-0.23-0.36c0.03-0.09,0.11-0.24,0.23-0.43c0.12-0.19,0.1-0.34-0.06-0.43c-0.06-0.09-0.06-0.17,0.01-0.22
		c0.06-0.05,0.12-0.12,0.15-0.22c-0.1,0-0.11-0.02-0.05-0.07c0.06-0.05,0.05-0.07-0.05-0.07c-0.23,0.1-0.31,0.05-0.24-0.15
		c0.17-0.48,0.23-0.77,0.17-0.87c0.01-0.29-0.13-0.43-0.42-0.43c-0.16-0.09-0.25-0.24-0.27-0.43c0.03-0.09,0.02-0.26-0.03-0.5
		c-0.06-0.24,0.02-0.51,0.22-0.79c0.19,0,0.23-0.09,0.11-0.29c0.08-0.48,0.25-0.82,0.51-1.01c0.13-0.09,0.16-0.19,0.1-0.29
		c-0.1,0-0.16,0.05-0.2,0.14h-0.14c-0.19,0-0.25-0.09-0.18-0.29c0.07-0.19,0.15-0.29,0.25-0.29c0.26-0.19,0.36-0.34,0.3-0.43
		c-0.06-0.09-0.09-0.29-0.08-0.58c0.01-0.29-0.07-0.48-0.22-0.58L71,70.55l0.05-0.14c0.1-0.29,0.14-0.53,0.12-0.72
		c-0.03-0.19-0.18-0.29-0.47-0.29c-0.29,0-0.36-0.19-0.22-0.58c0.07-0.19,0.04-0.38-0.08-0.58c-0.16-0.09-0.26-0.29-0.29-0.58
		c-0.04-0.29-0.09-0.48-0.15-0.58l-0.18-0.29c-0.16-0.09-0.29-0.14-0.38-0.14c-0.1,0-0.21,0.05-0.34,0.14
		c-0.04,0.1-0.15,0.15-0.34,0.15l-1.27,0.72l-0.2,0.14h-0.43c-0.19,0-0.71,0.1-1.55,0.29c-0.38,0-0.51-0.19-0.37-0.58
		c0.14-0.38-0.01-0.77-0.44-1.15l-0.56-0.43c-0.1,0-0.21-0.09-0.33-0.29c-0.05-0.38-0.27-0.58-0.66-0.58
		c-0.29,0-0.38-0.14-0.28-0.43c0.03-0.09,0.08-0.17,0.15-0.22c0.06-0.05,0.07-0.12,0.01-0.22c0.17-0.48,0.12-0.87-0.16-1.15
		l-0.79-1.01c-0.1,0-0.13-0.05-0.09-0.14c0.07-0.19,0.12-0.41,0.16-0.65c0.04-0.24,0.14-0.46,0.31-0.65
		c0.26-0.19,0.28-0.38,0.07-0.58c-0.12-0.19-0.15-0.46-0.07-0.79c0.07-0.34,0.15-0.6,0.22-0.79c0.07-0.19,0.23-0.38,0.5-0.58
		c0.33-0.38,0.37-0.62,0.12-0.72l-0.18-0.29l-0.04-0.29c0.16-0.19,0.29-0.41,0.38-0.65c0.09-0.24,0.2-0.41,0.33-0.5
		c0.46-0.48,0.68-0.82,0.66-1.01c-0.06-0.09,0.04-0.24,0.3-0.43c0.09,0,0.27-0.09,0.54-0.29c0.19,0,0.31-0.05,0.34-0.15
		c0.01-0.29,0.15-0.48,0.43-0.58c0.27-0.09,0.48-0.19,0.61-0.29h0.14c0.43-0.38,1.03-0.58,1.8-0.58c0.03-0.1,0.1-0.15,0.2-0.15
		c0.31,0.19,0.59,0.17,0.82-0.07c0.23-0.24,0.41-0.41,0.55-0.51l0.39-0.29c0.03-0.09,0.08-0.15,0.13-0.15
		c0.05,0,0.05,0.05,0.02,0.15l0.24,0.14c0.13-0.09,0.16-0.19,0.1-0.29c-0.06-0.09-0.01-0.24,0.16-0.43c0.16-0.19,0.27-0.34,0.3-0.43
		c0.09,0,0.21,0.02,0.33,0.07c0.13,0.05,0.25,0.17,0.37,0.36c-0.04,0.1,0.04,0.14,0.24,0.14c0.19,0,0.32-0.09,0.39-0.29
		c0.1-0.29,0.25-0.43,0.45-0.43c0.29,0,0.65-0.07,1.09-0.22c0.44-0.15,0.82-0.26,1.14-0.36c0.09,0,0.27-0.09,0.54-0.29L76,48.9
		c0.25,0.1,0.59-0.05,1.02-0.43L78,47.75l0.98-0.72l1.32-0.87l1.88-1.59c0.66-0.48,1.1-0.91,1.34-1.3l0.25-0.29l0.34-0.15l0.6-0.87
		c0.13-0.1,0.3-0.17,0.51-0.22c0.21-0.05,0.33-0.12,0.37-0.22c0.59-0.58,0.86-0.91,0.8-1.01c0.14-0.38,0.35-0.58,0.64-0.58
		c0.49-0.29,0.82-0.67,1-1.15c0.3-0.29,0.51-0.48,0.64-0.58c0.33-0.38,0.53-0.67,0.6-0.87c0.04-0.38,0.31-0.72,0.8-1.01
		c0.23-0.09,0.43-0.38,0.6-0.87c0.1-0.29,0.21-0.43,0.3-0.43c0.23-0.1,0.41-0.34,0.55-0.72c0.3-0.29,0.51-0.48,0.64-0.58l0.05-0.14
		c0.23-0.38,0.58-0.67,1.04-0.87c0.23-0.09,0.57-0.38,1.04-0.87c0.4-0.58,0.67-0.91,0.8-1.01c0.13-0.09,0.23-0.24,0.3-0.43
		l1.21-1.73c0.1-0.29,0.29-0.53,0.55-0.72c0.69-0.58,1.21-1.2,1.55-1.88l0.11-0.29c-0.03-0.19,0.12-0.48,0.46-0.87
		c0.13-0.1,0.21-0.24,0.23-0.43c0.02-0.19,0.1-0.34,0.23-0.43c0.17-0.19,0.21-0.43,0.12-0.72c0.03-0.1,0.05-0.19,0.03-0.29
		c-0.02-0.09,0.04-0.19,0.18-0.29c0.13-0.1,0.19-0.19,0.18-0.29c-0.01-0.09,0.04-0.19,0.18-0.29c0.13-0.09,0.2-0.29,0.21-0.58
		c-0.16-0.09-0.24-0.19-0.26-0.29c-0.02-0.09,0.06-0.24,0.23-0.43c0.39-0.29,0.54-0.43,0.45-0.43c0.03-0.09,0.02-0.19-0.04-0.29
		c-0.06-0.1-0.14-0.15-0.23-0.15c-0.29,0-0.33-0.14-0.13-0.43c0.07-0.19,0.01-0.29-0.18-0.29c-0.1,0-0.1-0.05-0.02-0.14
		c0.08-0.09,0.08-0.15-0.02-0.15l-0.24-0.14c-0.19,0-0.33-0.02-0.41-0.07c-0.08-0.05-0.1-0.12-0.07-0.22
		c0.11-0.29,0.1-0.53-0.03-0.72c-0.12-0.19-0.29-0.38-0.51-0.58l-0.56-0.43c-0.41-0.19-0.89-0.19-1.44,0
		c-0.23,0.1-0.54,0.15-0.92,0.15c-0.29,0-0.58,0.14-0.88,0.43c-0.23,0.1-0.49,0.15-0.77,0.15c-0.29,0-0.48,0-0.58,0
		c-0.19,0-0.31,0.05-0.34,0.14c0.03-0.09-0.04-0.14-0.24-0.14c-0.12-0.19-0.27-0.19-0.43,0c-0.07,0.19-0.2,0.29-0.39,0.29
		c-0.25-0.09-0.52-0.09-0.79,0c-0.28,0.1-0.54,0.1-0.79,0c-0.06-0.09-0.32-0.05-0.77,0.15c-0.06-0.1-0.05-0.19,0.03-0.29
		c0.08-0.09,0.09-0.19,0.03-0.29c-0.13,0.1-0.18,0.17-0.15,0.22c0.03,0.05,0.03,0.12-0.01,0.22c-0.48,0.77-0.96,1.3-1.44,1.59
		c-0.13,0.1-0.18,0.17-0.15,0.22c0.03,0.05-0.02,0.12-0.15,0.22c-0.46,0.19-0.78,0.29-0.97,0.29c-0.29,0-0.55,0.05-0.77,0.14
		c-0.23,0.1-0.46,0.19-0.68,0.29c-0.1,0-0.18,0.02-0.24,0.07c-0.07,0.05-0.07,0.12-0.01,0.22c0.09,0.29-0.06,0.43-0.45,0.43
		c-0.26,0.19-0.41,0.34-0.45,0.43c-0.53,0.39-0.88,0.43-1.06,0.14c-0.32-0.19-0.27-0.43,0.12-0.72c0.39-0.29,0.55-0.58,0.46-0.87
		c-0.12-0.19,0.01-0.43,0.41-0.72c0.26-0.19,0.41-0.19,0.43,0c0.02,0.19,0.17,0.19,0.43,0l0.05-0.15c0.62-0.38,1.23-0.87,1.82-1.44
		l0.79-0.58c-0.06-0.09-0.24-0.14-0.53-0.14c-0.04,0.1-0.2,0.14-0.49,0.14c-0.22-0.19-0.43-0.14-0.63,0.15
		c-0.04,0.1-0.14,0.24-0.3,0.43c-0.17,0.19-0.32,0.34-0.45,0.43c-0.17,0.19-0.48,0.39-0.93,0.58c-0.46,0.19-0.72,0.39-0.79,0.58
		c-0.33,0.39-0.69,0.58-1.08,0.58c-0.19,0-0.49,0.14-0.88,0.43l-0.77,0.15c-0.06-0.1-0.19-0.07-0.39,0.07
		c-0.2,0.15-0.38,0.31-0.55,0.51c-0.04,0.1-0.09,0.24-0.16,0.43c-0.07,0.19-0.22,0.34-0.45,0.43c-0.13,0.1-0.17,0.19-0.1,0.29
		c0.06,0.1,0.19,0.14,0.38,0.14c0.19,0,0.32,0.05,0.38,0.15c-0.26,0.19-0.44,0.29-0.54,0.29c-0.13,0.1-0.27,0.19-0.39,0.29
		c-0.13,0.1-0.22,0.22-0.28,0.36c-0.05,0.14-0.07,0.31-0.04,0.5c0.52-0.09,1.1-0.38,1.76-0.87c0.13-0.1,0.21-0.19,0.25-0.29
		c0.03-0.09,0.12-0.19,0.25-0.29h0.14c0.06,0.1,0.04,0.14-0.05,0.14l-0.05,0.14c-0.17,0.19-0.27,0.41-0.31,0.65
		c-0.04,0.24-0.13,0.41-0.26,0.5c-0.04,0.1-0.01,0.15,0.09,0.15c0.29,0,0.3,0.1,0.04,0.29l-0.59,0.43l-0.34,0.14
		c-0.14,0.39-0.29,0.53-0.45,0.43c-0.19,0-0.33,0.05-0.41,0.14c-0.09,0.1-0.14,0.19-0.18,0.29c-0.1,0-0.18,0.02-0.24,0.07
		c-0.07,0.05-0.13,0.02-0.19-0.07c-0.12-0.19-0.28-0.22-0.48-0.07s-0.35,0.22-0.44,0.22c-0.39,0.29-0.68,0.67-0.85,1.15h0.72
		c0.38,0,0.47,0.29,0.26,0.87c0.06,0.1-0.01,0.22-0.2,0.36c-0.2,0.14-0.39,0.22-0.58,0.22c-0.19,0-0.4,0.05-0.63,0.14
		c-0.23,0.1-0.39,0.14-0.49,0.14c-0.36,0.19-0.55,0.19-0.58,0c0.01-0.29,0.16-0.43,0.45-0.43l0.59-0.43
		c0.13-0.09,0.17-0.19,0.11-0.29c-0.12-0.19-0.22-0.19-0.29,0c-0.17,0.19-0.44,0.29-0.83,0.29c-0.19,0-0.6,0.19-1.22,0.58
		l-0.07,0.58c-0.04,0.1-0.11,0.17-0.22,0.22c-0.11,0.05-0.21,0.17-0.28,0.36c-0.07,0.19-0.25,0.29-0.54,0.29
		c-0.19,0-0.34,0.07-0.44,0.22c-0.1,0.14-0.14,0.31-0.11,0.5l-0.01,0.43c-0.1,0-0.14,0.05-0.12,0.14c0.01,0.1-0.03,0.14-0.12,0.14
		c-0.1,0-0.11-0.02-0.05-0.07c0.06-0.05,0.07-0.12,0.01-0.22h-0.14l-0.68,0.29l-0.05,0.15c-0.21,0.58-0.26,0.96-0.13,1.15h0.14
		c0.03-0.09,0.12-0.07,0.26,0.07c0.14,0.15,0.29,0.12,0.46-0.07c0.19,0,0.35-0.05,0.49-0.14c0.13-0.1,0.21-0.19,0.25-0.29
		c0.07-0.19,0.19-0.34,0.37-0.43c0.18-0.09,0.32-0.14,0.41-0.14l0.92-0.14c0.19,0,0.25,0.1,0.18,0.29c-0.04,0.1-0.19,0.24-0.45,0.43
		c-0.04,0.1-0.09,0.19-0.18,0.29c-0.08,0.1-0.11,0.24-0.08,0.43l-0.2,0.15c-0.58,0-1.09,0.34-1.52,1.01l-0.25,0.29
		c0.02-0.58-0.19-0.82-0.6-0.72c-0.03,0.1-0.09,0.12-0.17,0.07c-0.08-0.05-0.17-0.07-0.26-0.07c-0.06-0.1-0.16-0.1-0.29,0
		c-0.13,0.1-0.15,0.14-0.05,0.14c0.06,0.1,0.03,0.24-0.09,0.43c-0.12,0.19-0.15,0.34-0.09,0.43h-0.29c-0.26,0.19-0.36,0.34-0.3,0.43
		L70,35.63c0.09,0,0.27-0.1,0.54-0.29l0.05-0.14l0.83-0.29c0.13-0.09,0.23-0.09,0.29,0c0.06,0.1,0.14,0.15,0.24,0.15
		c0.13-0.1,0.2-0.1,0.22,0c0.01,0.1-0.05,0.19-0.18,0.29l-0.16,0.43c-0.04,0.1,0,0.14,0.09,0.14l0.09,0.14
		c-0.19,0-0.29,0.05-0.27,0.15c0.01,0.1,0.07,0.14,0.16,0.14l-0.64,0.58c-0.55,0.19-0.78,0.43-0.7,0.72
		c-0.04,0.1-0.15,0.27-0.33,0.51c-0.18,0.24-0.25,0.41-0.18,0.5c-0.14,0.39-0.31,0.72-0.51,1.01c-0.18,0.48-0.46,0.72-0.84,0.72
		l-0.25,0.29c-0.14,0.39-0.3,0.67-0.46,0.87c-0.13,0.1-0.16,0.17-0.08,0.22c0.08,0.05,0.1,0.12,0.07,0.22
		c-0.04,0.1-0.1,0.19-0.18,0.29c-0.09,0.1-0.16,0.1-0.22,0c-0.06-0.09-0.17-0.12-0.34-0.07c-0.16,0.05-0.29,0.07-0.39,0.07
		l-0.51,1.01l0.34-0.14c0.09,0,0.11,0.1,0.04,0.29c-0.04,0.1-0.1,0.19-0.18,0.29c-0.09,0.1-0.1,0.19-0.03,0.29
		c0.06,0.1,0.02,0.19-0.1,0.29c-0.43,0.39-0.73,0.82-0.91,1.3l-0.05,0.15c-0.36,0.19-0.67,0.5-0.92,0.94
		c-0.25,0.43-0.4,0.7-0.43,0.79l-0.5,0.58c-0.13,0.1-0.17,0.19-0.11,0.29l-0.22,1.01c-0.14,0.39-0.38,0.77-0.71,1.16
		c-0.04,0.1-0.1,0.22-0.2,0.36c-0.1,0.14-0.12,0.27-0.06,0.36c0.02,0.19-0.01,0.36-0.11,0.5c-0.1,0.14-0.17,0.27-0.2,0.36
		c-0.2,0.29-0.39,0.67-0.56,1.15c-0.25,0.67-0.37,1.15-0.38,1.44l-0.21,0.58c-0.33,0.39-0.42,0.63-0.26,0.72
		c0.06,0.1,0.02,0.19-0.1,0.29c-0.2,0.29-0.43,0.77-0.67,1.44c0.09,0,0.08,0.05-0.05,0.15c-0.33,0.39-0.53,0.67-0.6,0.87
		c0.06,0.1,0.06,0.17-0.01,0.22c-0.07,0.05-0.15,0.07-0.24,0.07c-0.26,0.19-0.4,0.43-0.41,0.72c0.02,0.19-0.09,0.39-0.35,0.58
		c-0.53,0.39-0.75,0.87-0.67,1.44c0.06,0.1,0.06,0.24-0.01,0.43c-0.07,0.19-0.08,0.34-0.01,0.43c0.09,0.29-0.1,0.67-0.56,1.16h-0.14
		c-0.19,0-0.32,0.1-0.39,0.29c0.06,0.1,0.04,0.29-0.07,0.58c0.16,0.1,0.13,0.29-0.07,0.58c0.02,0.19-0.04,0.31-0.2,0.36
		c-0.16,0.05-0.26,0.12-0.29,0.22c0.12,0.19,0.05,0.39-0.21,0.58c-0.04,0.1-0.25,0.29-0.64,0.58c-0.04,0.1-0.04,0.24-0.01,0.43
		c0.02,0.19-0.03,0.34-0.16,0.43c-0.11,0.29-0.27,0.48-0.5,0.58l-0.11,0.29l0.09,0.14c0.06,0.1,0.07,0.22,0.01,0.36
		c-0.05,0.15-0.16,0.31-0.33,0.51c0.47,0.29,0.47,0.82,0,1.59c-0.04,0.1-0.09,0.17-0.15,0.22c-0.07,0.05-0.07,0.12-0.01,0.22
		c0.16,0.1,0.16,0.29,0.01,0.58c-0.15,0.29-0.25,0.48-0.28,0.58c-0.04,0.1-0.13,0.17-0.29,0.22c-0.16,0.05-0.28,0.02-0.33-0.07
		c-0.1,0-0.28,0.1-0.54,0.29c-0.26,0.19-0.36,0.34-0.3,0.43c0.05,0.39-0.22,0.87-0.81,1.44l-0.05,0.14
		c-0.11,0.29-0.21,0.51-0.31,0.65c-0.1,0.14-0.28,0.31-0.55,0.51c0.06,0.1,0.14,0.14,0.24,0.14c0.09,0,0.17,0.05,0.24,0.14
		c0.09,0,0.17,0.05,0.24,0.14c0.06,0.1,0.07,0.19,0.04,0.29c0.26-0.19,0.43-0.38,0.5-0.58c0.22,0.19,0.26,0.34,0.13,0.43
		c-0.01,0.29-0.11,0.43-0.3,0.43c-0.36,0.19-0.53,0.39-0.5,0.58l-0.25,0.29c-0.36,0.19-0.48,0.53-0.37,1.01
		c0.06,0.1,0.07,0.27,0.03,0.5c-0.04,0.24-0.03,0.41,0.03,0.51c0.06,0.1-0.08,0.34-0.41,0.72c-0.26,0.19-0.4,0.43-0.41,0.72
		c-0.07,0.19,0.01,0.24,0.24,0.14c0.19,0,0.25,0.1,0.18,0.29l-0.2,0.15c-0.04,0.1-0.16,0.24-0.37,0.43
		c-0.22,0.2-0.29,0.34-0.23,0.43c0.02,0.19-0.02,0.39-0.14,0.58c-0.12,0.19-0.17,0.39-0.14,0.58c0.16,0.1,0.1,0.24-0.16,0.43
		c-0.39,0.29-0.4,0.43-0.01,0.43c0.09,0,0.13,0.05,0.09,0.14c-0.04,0.1-0.12,0.19-0.25,0.29c-0.33,0.38-0.61,0.63-0.84,0.72
		c-0.13,0.1-0.27,0.19-0.39,0.29c-0.13,0.1-0.23,0.24-0.3,0.43l-0.3,0.43c-0.04,0.1-0.01,0.15,0.09,0.15c0.38,0,0.52,0.14,0.42,0.43
		l0.08,0.58c0.06,0.1,0.04,0.29-0.07,0.58c-0.13,0.1-0.27,0.27-0.4,0.5c-0.14,0.24-0.32,0.41-0.54,0.51
		c-0.04,0.1-0.01,0.14,0.09,0.14c-0.01,0.29-0.13,0.48-0.35,0.58c-0.19,0-0.32,0.1-0.39,0.29c-0.17,0.19-0.3,0.43-0.41,0.72
		c-0.1,0.29-0.24,0.53-0.41,0.72c-0.1,0-0.12,0.05-0.05,0.14c0.05,0.39-0.01,0.67-0.17,0.87c0.02,0.19,0,0.41-0.09,0.65
		c-0.09,0.24-0.1,0.41-0.04,0.5c0.12,0.19,0.02,0.34-0.3,0.43c-0.26,0.19-0.4,0.43-0.41,0.72c0.18,0.29,0.11,0.48-0.21,0.58
		c-0.13,0.1-0.25,0.14-0.34,0.14c-0.1,0-0.23,0.1-0.39,0.29l-0.04-0.29c-0.24,0.39-0.26,0.72-0.08,1.01c0.09,0,0.13,0.05,0.09,0.14
		c-0.07,0.19-0.3,0.29-0.68,0.29l-0.18-0.29c-0.06-0.09-0.15-0.12-0.26-0.07c-0.12,0.05-0.22,0.07-0.31,0.07
		c-0.04,0.1-0.03,0.22,0.01,0.36c0.04,0.14,0.05,0.27,0.01,0.36c-0.13,0.1-0.18,0.17-0.15,0.22c0.03,0.05,0.09,0.07,0.19,0.07
		c0.38,0,0.54,0.1,0.47,0.29c0.25,0.1,0.33,0.29,0.22,0.58c-0.1,0.29-0.17,0.48-0.21,0.58c0.06,0.1-0.04,0.24-0.3,0.43
		c-0.27,0.19-0.38,0.39-0.35,0.58c0.18,0.29,0.1,0.58-0.24,0.87c-0.35,0.29-0.54,0.48-0.57,0.58c-0.04,0.1-0.15,0.22-0.35,0.36
		c-0.2,0.15-0.28,0.31-0.26,0.51l-0.05,0.14l-0.98,0.72c-0.32,0.1-0.54,0.29-0.64,0.58c-0.07,0.19-0.29,0.39-0.64,0.58l-1.02,0.43
		c-0.13,0.1-0.27,0.22-0.42,0.36c-0.15,0.14-0.26,0.31-0.33,0.5c-0.5,0.58-1.09,0.87-1.76,0.87c-0.1,0-0.16-0.02-0.19-0.07
		c-0.03-0.05-0.11-0.02-0.24,0.07c-0.26,0.19-0.45,0.43-0.55,0.72c-0.07,0.19-0.17,0.34-0.3,0.43l-0.25,0.29l-0.1,0.29
		c-0.07,0.19-0.31,0.58-0.71,1.15l-0.05,0.14c-0.42,0.1-0.57,0.39-0.46,0.87c0.09,0,0.08,0.05-0.05,0.14
		c-0.07,0.2-0.06,0.29,0.04,0.29c0.29,0,0.24,0.14-0.16,0.43l-0.59,0.43c-0.19,0-0.34,0.14-0.45,0.43
		c-0.07,0.19-0.33,0.39-0.79,0.58l-0.34,0.15c0.06,0.1,0.03,0.24-0.08,0.43c-0.12,0.19-0.15,0.34-0.09,0.43
		c0.06,0.1,0.07,0.19,0.04,0.29c-0.04,0.1-0.12,0.19-0.25,0.29l-0.35,0.58c-0.17,0.19-0.31,0.31-0.42,0.36
		c-0.12,0.05-0.25,0.03-0.41-0.07l-0.24-0.14c-0.13,0.1-0.25,0.29-0.35,0.58l-0.5,0.58c-0.26,0.19-0.35,0.43-0.26,0.72l-1.46,0.43
		l-0.39,0.29c-0.26,0.19-0.39,0.14-0.38-0.15c-0.06-0.09-0.05-0.19,0.03-0.29c0.08-0.09,0.09-0.19,0.03-0.29l-0.04-0.29l-0.2,0.14
		c-0.2,0.29-0.63,0.53-1.27,0.72c-0.55,0.19-0.88,0.05-1-0.43c-0.4,0.58-0.67,0.91-0.8,1.01c-0.16-0.09-0.2-0.24-0.13-0.43
		c0.07-0.19,0.08-0.36,0.04-0.51c-0.04-0.14-0.1-0.26-0.16-0.36c-0.25-0.38-0.24-0.91,0-1.59l0.07-0.58
		c-0.18-0.29-0.19-0.53-0.03-0.72l0.1-0.29c-0.22-0.19-0.28-0.43-0.17-0.72c0.07-0.19,0.01-0.29-0.18-0.29
		c-0.19,0-0.29-0.07-0.28-0.22c0-0.14,0.04-0.31,0.11-0.5c0.13-0.09,0.19-0.19,0.18-0.29c-0.01-0.09,0-0.19,0.03-0.29
		c-0.03-0.19,0.05-0.53,0.22-1.01c0.44-0.67,0.56-1.15,0.38-1.44c-0.03-0.19,0-0.34,0.09-0.43c0.08-0.09,0.14-0.19,0.18-0.29
		c0.27-0.48,0.33-0.91,0.18-1.3c-0.18-0.29-0.16-0.62,0.08-1.01l0.01-0.43c-0.09-0.29-0.07-0.48,0.07-0.58
		c0.17-0.48,0.17-0.72-0.03-0.72c-0.09-0.29-0.07-0.48,0.07-0.58c0.17-0.48,0.25-0.82,0.22-1.01c0.02-0.58,0.13-1.01,0.33-1.3
		c0.21-0.58,0.25-0.96,0.13-1.15l0.21-0.58c0.16-0.19,0.25-0.36,0.26-0.5c0-0.14,0.02-0.26,0.06-0.36c0.07-0.19,0.13-0.43,0.19-0.72
		c0.05-0.29,0.18-0.58,0.39-0.87c-0.03-0.19,0.02-0.38,0.14-0.58c0.12-0.19,0.15-0.34,0.09-0.43c0.17-0.48,0.25-0.82,0.22-1.01
		l0.11-0.29c0.14-0.38,0.37-0.77,0.71-1.15c0.07-0.19,0.2-0.29,0.39-0.29l0.25-0.29c-0.06-0.09-0.04-0.24,0.09-0.43
		c0.12-0.19,0.19-0.34,0.23-0.43c0.11-0.29,0.06-0.43-0.13-0.43c-0.19,0-0.16-0.09,0.1-0.29c0.3-0.29,0.36-0.46,0.18-0.5
		c-0.18-0.05-0.31-0.07-0.41-0.07c0.39-0.29,0.61-0.48,0.64-0.58c0.03-0.09,0.11-0.24,0.23-0.43c0.12-0.19,0.18-0.43,0.19-0.72
		l0.13-1.16c0.01-0.29,0.27-0.62,0.8-1.01c0.13-0.09,0.23-0.24,0.3-0.43c0.07-0.19,0.09-0.38,0.07-0.58c-0.03-0.19,0-0.38,0.07-0.58
		c-0.03-0.19,0.01-0.43,0.12-0.72l0.72-1.59l0.05-0.14c0.26-0.19,0.41-0.41,0.45-0.65c0.04-0.24,0.08-0.41,0.11-0.5
		c0.03-0.09,0.09-0.19,0.18-0.29c0.08-0.09,0.11-0.24,0.08-0.43c0.03-0.1,0.11-0.17,0.22-0.22c0.11-0.05,0.14-0.12,0.08-0.22
		c-0.06-0.09-0.04-0.29,0.07-0.58c0.03-0.09,0.12-0.19,0.25-0.29c0.13-0.09,0.17-0.19,0.1-0.29l-0.02-0.72
		c-0.06-0.09-0.05-0.19,0.03-0.29c0.08-0.09,0.22-0.14,0.41-0.14c0.01-0.29,0.19-0.67,0.56-1.16c0.03-0.09,0.02-0.19-0.04-0.29
		c-0.06-0.09-0.08-0.19-0.04-0.29c0.13-0.09,0.16-0.19,0.1-0.29c-0.06-0.09-0.01-0.24,0.16-0.43l0.5-0.58
		c0.2-0.29,0.29-0.67,0.28-1.15l0.32-0.87c0.47-0.77,0.75-1.39,0.83-1.88c-0.03-0.19,0.01-0.36,0.11-0.5
		c0.1-0.14,0.14-0.31,0.11-0.5c0.01-0.29,0.1-0.55,0.29-0.79c0.18-0.24,0.28-0.51,0.29-0.79l0.16-0.43
		c0.33-0.38,0.47-0.62,0.41-0.72c-0.12-0.19-0.09-0.29,0.1-0.29c0.16-0.19,0.27-0.41,0.31-0.65c0.04-0.24,0.14-0.46,0.31-0.65
		c0.03-0.09,0.06-0.24,0.09-0.43c0.02-0.19,0.15-0.34,0.37-0.43l0.25-0.29l0.74-2.02l0.26-0.72c0.32-0.87,0.59-1.49,0.83-1.88
		c0.16-0.19,0.26-0.38,0.28-0.58c0.02-0.19,0.12-0.38,0.28-0.58l1.65-3.75c0.38-1.06,0.63-1.88,0.75-2.45
		c0.14-0.38,0.29-0.67,0.46-0.87c0.14-0.38,0.27-0.89,0.41-1.52c0.13-0.62,0.33-1.18,0.6-1.66c-0.05-0.38,0.06-0.96,0.34-1.73
		l0.5-0.58c0.2-0.29,0.29-0.53,0.26-0.72c-0.07,0.19-0.17,0.34-0.3,0.43c-0.03-0.19,0.03-0.34,0.16-0.43l0.05-0.14l0.1-0.29
		c0.63-1.73,1.07-3.08,1.33-4.04c0.07-0.19,0.12-0.38,0.14-0.58c0.02-0.19,0.13-0.43,0.33-0.72c0.07-0.19,0.18-0.51,0.34-0.94
		c0.16-0.43,0.35-0.84,0.59-1.23c0.26-0.19,0.37-0.43,0.33-0.72c-0.04-0.29-0.04-0.48-0.01-0.58c-0.04-0.67,0.07-1.25,0.34-1.73
		c0.13-0.09,0.2-0.29,0.21-0.58c-0.06-0.1-0.03-0.19,0.1-0.29c0.23-0.38,0.38-0.91,0.43-1.59c0.14-0.38,0.41-0.87,0.81-1.44
		l0.42-1.15c-0.05-0.38,0.04-0.77,0.28-1.15c0.2-0.29,0.31-0.53,0.33-0.72c0.02-0.19,0.07-0.38,0.14-0.58
		c0.1-0.29,0.19-0.6,0.27-0.94c0.07-0.34,0.23-0.7,0.46-1.08c0.33-0.38,0.32-0.62-0.03-0.72c-0.27-0.58-0.44-0.91-0.5-1.01
		c-0.18-0.29-0.11-0.48,0.21-0.58c0.13-0.1,0.17-0.22,0.13-0.36c-0.04-0.14,0-0.26,0.13-0.36l0.16-0.43c0.1-0.29,0.3-0.43,0.59-0.43
		c0.29,0,0.51-0.1,0.68-0.29c0.26-0.19,0.49-0.29,0.68-0.29c0.38,0,0.66-0.09,0.83-0.29l0.68-0.29c0.19,0,0.42-0.02,0.68-0.07
		c0.26-0.05,0.51-0.02,0.77,0.07c0.19,0,0.35-0.05,0.48-0.14c0.32-0.09,0.82-0.14,1.5-0.14l1.72,0.43h0.14
		c0.09,0,0.27-0.02,0.53-0.07c0.26-0.05,0.43,0.07,0.52,0.36h0.29c0.29,0,0.6,0.07,0.93,0.22c0.33,0.14,0.59,0.22,0.79,0.22
		c0.51,0.19,0.86,0.29,1.05,0.29l0.38,0.14c0.25,0.1,0.51,0.19,0.76,0.29c0.25,0.1,0.51,0.19,0.76,0.29
		c0.06,0.1,0.24,0.14,0.52,0.14l2.23,1.01c0.51,0.19,0.8,0.43,0.89,0.72c-0.01,0.29,0.24,0.53,0.75,0.72
		c0.31,0.19,0.47,0.43,0.46,0.72c-0.04,0.1-0.05,0.27-0.04,0.51c0.01,0.24,0.09,0.41,0.25,0.5c0.09,0,0.17,0.19,0.22,0.58
		l-0.13,1.15c0.02,0.19-0.15,0.53-0.51,1.01c-0.31,0.58-0.47,1.01-0.47,1.3c-0.21,0.58-0.22,1.01-0.04,1.3
		c0.39-0.29,0.66-0.62,0.8-1.01c0.73-0.96,1.35-1.59,1.84-1.88c0.13-0.1,0.23-0.24,0.3-0.43c0.1-0.29,0.23-0.51,0.38-0.65
		c0.15-0.14,0.3-0.31,0.47-0.5c0.2-0.29,0.27-0.48,0.21-0.58c-0.06-0.1-0.04-0.22,0.06-0.36c0.1-0.14,0.17-0.26,0.2-0.36l0.5-0.58
		c-0.03-0.19,0.03-0.34,0.16-0.43c0.13-0.09,0.26-0.19,0.39-0.29c0.19,0,0.31-0.05,0.34-0.14c0.16-0.19,0.39-0.29,0.68-0.29
		c0.16-0.19,0.19-0.38,0.07-0.58c-0.18-0.29-0.08-0.43,0.3-0.43c0.13-0.09,0.23-0.24,0.3-0.43c-0.08-0.58,0.17-1.01,0.76-1.3
		c0.13-0.09,0.23-0.17,0.3-0.22c0.06-0.05,0.15-0.07,0.24-0.07c0.03-0.09,0.13-0.22,0.28-0.36c0.15-0.14,0.32-0.22,0.51-0.22
		c0.13-0.09,0.22-0.22,0.28-0.36c0.05-0.14,0.14-0.26,0.28-0.36c0.33-0.38,0.48-0.67,0.46-0.87c-0.1,0-0.14-0.02-0.12-0.07
		c0.02-0.05,0.07-0.07,0.17-0.07c0.13-0.09,0.24-0.26,0.33-0.51c0.09-0.24,0.2-0.41,0.33-0.5l0.34-0.14c0.29,0,0.37-0.09,0.25-0.29
		c-0.03-0.19,0.02-0.34,0.16-0.43c0.32-0.09,0.67-0.38,1.04-0.87c0.13-0.09,0.24-0.15,0.34-0.15c0.09,0,0.23-0.09,0.39-0.29
		c0.09,0,0.15,0.05,0.16,0.14c0.01,0.1,0.08,0.1,0.22,0c0.13-0.09,0.12-0.14-0.02-0.14c-0.14,0-0.2-0.05-0.16-0.14l0.1-0.29
		c0.13-0.09,0.23-0.24,0.3-0.43c-0.06-0.09,0.01-0.22,0.2-0.36c0.2-0.14,0.41-0.26,0.64-0.36c0.45-0.19,0.76-0.38,0.93-0.58
		l0.54-0.29c0.29,0,0.52-0.09,0.68-0.29h0.29c0.06,0.1,0.17,0.12,0.33,0.07c0.16-0.05,0.28-0.17,0.35-0.36
		c0.16-0.19,0.34-0.29,0.54-0.29l0.39-0.29c0.13-0.09,0.38-0.26,0.76-0.5c0.38-0.24,0.66-0.51,0.87-0.79l0.39-0.29
		c0.23-0.09,0.49-0.22,0.78-0.36c0.29-0.14,0.53-0.22,0.73-0.22c0.19,0,0.26-0.05,0.2-0.14c0.26-0.19,0.49-0.29,0.68-0.29
		c0.29,0,0.51-0.09,0.68-0.29c0.2-0.29,0.59-0.43,1.17-0.43c0.29,0,0.51-0.09,0.68-0.29c0.26-0.19,0.5-0.19,0.72,0
		c0.48,0,0.8,0.05,0.96,0.15h0.14c0.26-0.19,0.58-0.29,0.97-0.29c0.38,0,0.69-0.05,0.92-0.14c0.13-0.09,0.32-0.09,0.58,0h0.43
		c0.09,0,0.29,0,0.58,0c0.29,0,0.46,0.05,0.52,0.14l0.34-0.14c0.2-0.29,0.39-0.29,0.58,0c0.18,0.29,0.56,0.43,1.14,0.43l0.24,0.14
		c0.09,0,0.17,0.07,0.21,0.22c0.04,0.14,0.13,0.17,0.26,0.07c0.13-0.09,0.24-0.07,0.33,0.07s0.19,0.22,0.28,0.22l0.38,0.14
		c0.44,0.1,0.76,0.43,0.93,1.01c0.15,0.39,0.46,0.58,0.94,0.58c0.29,0,0.52,0.14,0.71,0.43l0.27,0.43c0.35,0.1,0.61,0.43,0.79,1.01
		c0.11,0.48,0.36,0.87,0.74,1.15c0.15,0.39,0.38,0.79,0.71,1.23c0.32,0.43,0.53,0.79,0.62,1.08c0.06,0.1,0.13,0.43,0.21,1.01
		l0.04,0.29c0.22,0.19,0.32,0.5,0.31,0.94c-0.01,0.43-0.01,0.75,0.02,0.94l-0.05,0.15c0.12,0.19,0.16,0.48,0.12,0.87
		c-0.04,0.39-0.08,0.63-0.12,0.72l-0.1,0.29c-0.04,0.1-0.03,0.29,0.01,0.58c0.04,0.29,0.01,0.58-0.1,0.87
		c-0.07,0.19-0.08,0.34-0.01,0.43c0.16,0.1,0.22,0.24,0.2,0.43c-0.02,0.19-0.12,0.39-0.28,0.58l-0.11,0.29
		c-0.1,0.29-0.17,0.72-0.18,1.3c0.05,0.39-0.02,0.72-0.22,1.01c-0.33,0.39-0.41,0.72-0.22,1.01c0.05,0.39-0.04,0.77-0.28,1.15
		c-0.17,0.19-0.35,0.58-0.57,1.16c-0.21,0.58-0.32,1.01-0.33,1.3c-0.02,0.58-0.25,1.2-0.68,1.88l-0.56,1.15l-0.05,0.14
		c-0.04,0.1-0.06,0.22-0.06,0.36c-0.01,0.14-0.07,0.27-0.2,0.36l-0.73,0.43c-0.27,0.19-0.25,0.29,0.04,0.29
		c0.09,0,0.13,0.05,0.09,0.14l-0.2,0.14c-0.06-0.09-0.14-0.09-0.22,0c-0.09,0.1-0.1,0.19-0.03,0.29c0.02,0.19,0.02,0.34-0.01,0.43
		c-0.04,0.1-0.14,0.24-0.3,0.43h-0.14c0.06,0.1,0.02,0.22-0.13,0.36c-0.15,0.14-0.24,0.27-0.28,0.36l-0.25,0.29
		c-0.23,0.1-0.45,0.31-0.67,0.65c-0.22,0.34-0.35,0.56-0.38,0.65c-0.14,0.39-0.31,0.72-0.51,1.01l-0.16,0.43
		c0.05,0.39-0.08,0.63-0.41,0.72c-0.1,0-0.18,0.1-0.25,0.29c-0.07,0.19-0.2,0.36-0.4,0.51c-0.2,0.14-0.36,0.27-0.49,0.36
		c-0.27,0.19-0.36,0.19-0.29,0c-0.12-0.19-0.22-0.19-0.29,0c-0.1,0-0.18,0.1-0.25,0.29c0.02,0.19-0.04,0.36-0.18,0.5
		c-0.15,0.14-0.4,0.31-0.76,0.51l-0.79,0.58c-0.07,0.19-0.01,0.29,0.18,0.29c0.09,0.29,0,0.53-0.26,0.72
		c-0.13,0.1-0.22,0.22-0.28,0.36c-0.05,0.14-0.15,0.27-0.27,0.36c-0.28,0.77-0.71,1.15-1.29,1.15c-0.23,0.1-0.31,0.19-0.25,0.29
		c-0.03,0.1-0.15,0.27-0.33,0.5c-0.18,0.24-0.26,0.46-0.24,0.65c0.06,0.1-0.04,0.24-0.3,0.43c-0.32,0.1-0.65,0.34-0.98,0.72
		c-0.1,0-0.18,0.1-0.25,0.29c-0.42,0.1-0.54,0.29-0.36,0.58c-0.13,0.1-0.34,0.14-0.63,0.14c-0.13,0.1-0.3,0.22-0.49,0.36
		c-0.2,0.14-0.28,0.31-0.26,0.5c-0.07,0.19-0.17,0.34-0.3,0.43l-0.79,0.58c-0.13,0.1-0.39,0.27-0.76,0.51
		c-0.38,0.24-0.78,0.41-1.19,0.5c-0.39,0-0.65,0.19-0.79,0.58c-0.04,0.1-0.23,0.24-0.59,0.43l-0.48,0.14l-0.54,0.29
		c-0.3,0.29-0.56,0.48-0.79,0.58c-0.29,0-0.37,0.1-0.25,0.29c0.09,0.29,0.23,0.43,0.42,0.43l0.04,0.29
		c-0.07,0.19-0.06,0.29,0.04,0.29l0.53,0.15c0.13-0.09,0.21-0.12,0.24-0.07c0.03,0.05,0,0.07-0.1,0.07
		c-0.07,0.19-0.03,0.34,0.13,0.43c0.16,0.1,0.27,0.19,0.33,0.29c0.06,0.1,0.15,0.24,0.28,0.43c0.12,0.19,0.29,0.24,0.52,0.14
		c0.09,0,0.13,0.05,0.09,0.14l1.15,1.59l1.06,1.44l0.18,0.29c0.43,0.67,0.72,1.06,0.88,1.15c-0.04,0.1,0.03,0.17,0.21,0.22
		c0.17,0.05,0.18,0.17,0.01,0.36c-0.04,0.1,0.04,0.29,0.22,0.58c0.35,1.15,0.56,2.02,0.64,2.6c-0.01,0.29,0.01,0.63,0.06,1.01
		c0.05,0.39,0.09,0.82,0.1,1.3c-0.05,0.39-0.01,0.96,0.09,1.73c0.24,0.39,0.28,0.82,0.1,1.3l-0.05,0.14
		c-0.4,0.58-0.53,1.06-0.38,1.44c0.09,0,0.13,0.05,0.09,0.14c-0.24,0.39-0.3,0.82-0.18,1.3c0.16,0.1,0.18,0.24,0.06,0.43
		c-0.12,0.19-0.19,0.34-0.23,0.43c0.06,0.1,0.14,0.22,0.23,0.36s0.05,0.31-0.11,0.5c-0.04,0.1-0.05,0.27-0.04,0.5
		c0.01,0.24-0.06,0.41-0.18,0.51c-0.13,0.1-0.15,0.29-0.07,0.58c0.18,0.29,0.12,0.72-0.18,1.3c-0.37,0.48-0.48,0.92-0.33,1.3
		c-0.02,0.58-0.08,1.01-0.18,1.3l-0.32,0.87c0.06,0.1,0.04,0.29-0.07,0.58c-0.2,0.29-0.31,0.72-0.33,1.3
		c-0.05,0.39-0.19,0.77-0.42,1.16c-0.19,0-0.23,0.1-0.1,0.29c-0.05,0.39-0.23,0.77-0.56,1.16l-0.21,0.58
		c-0.39,0.29-0.53,0.53-0.41,0.72c-0.05,0.39-0.27,0.87-0.67,1.44l-0.26,0.72c-0.21,0.58-0.42,1.01-0.62,1.3
		c-0.04,0.1-0.1,0.19-0.18,0.29c-0.09,0.1-0.1,0.19-0.03,0.29c-0.01,0.29-0.1,0.67-0.28,1.16c-0.21,0.58-0.66,1.54-1.34,2.89
		c-0.04,0.1-0.13,0.22-0.28,0.36c-0.15,0.14-0.21,0.31-0.18,0.51c-0.14,0.39-0.2,0.67-0.17,0.87c0.19,0,0.16,0.1-0.1,0.29l-0.1,0.29
		c0.19,0,0.25,0.1,0.18,0.29c-0.2,0.29-0.33,0.58-0.39,0.87c-0.06,0.29-0.17,0.53-0.33,0.72c-0.2,0.29-0.24,0.53-0.12,0.72
		c0.12,0.19,0.12,0.34-0.01,0.43c-0.2,0.29-0.24,0.53-0.12,0.72c0.02,0.19-0.04,0.43-0.19,0.72c-0.16,0.29-0.27,0.53-0.33,0.72
		c-0.17,0.19-0.37,0.48-0.6,0.87c-0.24,0.39-0.39,0.67-0.46,0.87c-0.24,0.39-0.39,0.72-0.44,1.01c-0.06,0.29-0.12,0.53-0.19,0.72
		c-0.04,0.1,0.01,0.24,0.13,0.43c0.09,0.29,0.04,0.67-0.13,1.16c-0.1,0.29-0.13,0.48-0.07,0.58c0.16,0.1,0.17,0.34,0.03,0.72
		c-0.17,0.19-0.25,0.43-0.26,0.72c0.06,0.1-0.08,0.87-0.41,2.31c-0.31,0.87-0.5,1.49-0.54,1.88c0.02,0.19,0.03,0.46,0,0.79
		c-0.03,0.34,0.02,0.6,0.14,0.79c0.05,0.38,0.03,0.72-0.08,1.01c-0.27,0.2-0.2,0.29,0.18,0.29c0.19,0,0.24,0.14,0.13,0.43
		c0.06,0.09,0.04,0.29-0.07,0.58c-0.03,0.09-0.12,0.26-0.26,0.5c-0.14,0.24-0.23,0.55-0.27,0.94c0.12,0.19,0.23,0.29,0.33,0.29
		c0.05,0.38-0.02,0.72-0.22,1.01l-0.05,0.14c0.22,0.19,0.18,0.43-0.12,0.72c-0.13,0.1-0.15,0.14-0.05,0.14
		c-0.03,0.09-0.01,0.14,0.09,0.14l0.68-0.29c0.23-0.1,0.39-0.07,0.48,0.07c0.09,0.14,0.05,0.31-0.11,0.51
		c-0.03,0.09-0.09,0.17-0.15,0.22c-0.07,0.05-0.07,0.12-0.01,0.22c0.12,0.19,0.05,0.38-0.21,0.58l-1.18,0.87
		c-0.03,0.09,0.01,0.24,0.13,0.43l0.79-0.58c0.17-0.19,0.44-0.29,0.83-0.29c0.29,0,0.45,0.09,0.47,0.29
		c0.09,0.29,0.35,0.62,0.79,1.01C83.43,129.34,83.49,129.44,83.49,129.44z M34.23,97.83c-0.13,0.1-0.21,0.19-0.25,0.29l-0.05,0.14
		c0.09,0,0.18-0.09,0.25-0.29L34.23,97.83z M38.82,100.28c0,0-0.11-0.09-0.33-0.29h-0.43c-0.12-0.19-0.07-0.34,0.16-0.43l0.11-0.29
		c-0.06-0.09-0.05-0.19,0.03-0.29c0.08-0.09,0.09-0.19,0.03-0.29c-0.06-0.09-0.07-0.22-0.01-0.36c0.05-0.14,0.05-0.26-0.01-0.36
		c-0.06-0.09-0.14-0.14-0.24-0.14c-0.1,0-0.21,0.05-0.34,0.14c-0.27,0.19-0.45,0.43-0.55,0.72c-0.01,0.29-0.15,0.53-0.41,0.72
		c-0.24,0.38-0.38,0.77-0.42,1.15c-0.04,0.1,0.07,0.34,0.31,0.72c0.09,0,0.16-0.05,0.2-0.14c0.26-0.19,0.34-0.14,0.24,0.14
		l0.08,0.58l0.39-0.29c0.13-0.09,0.26-0.26,0.4-0.5c0.13-0.24,0.27-0.41,0.4-0.5C38.69,100.38,38.82,100.28,38.82,100.28z
		 M37.49,93.64c0.13-0.09,0.23-0.24,0.3-0.43c-0.06-0.09-0.19-0.14-0.38-0.14l-0.59,0.43c-0.26,0.19-0.27,0.34-0.01,0.43
		c0.06,0.1,0.16,0.1,0.29,0C37.22,93.84,37.35,93.74,37.49,93.64z M38.44,93.79c0,0,0.11,0.03,0.33,0.07
		c0.22,0.05,0.41,0.12,0.57,0.22c0.19,0,0.31-0.05,0.34-0.14c0.13-0.09,0.12-0.19-0.04-0.29l0.16-0.43
		c0.01-0.29-0.13-0.43-0.42-0.43c-0.16-0.09-0.38,0-0.68,0.29c-0.26,0.19-0.41,0.34-0.45,0.43C38.38,93.69,38.44,93.79,38.44,93.79z
		 M40.66,98.41h-0.29c-0.12-0.19-0.22-0.19-0.29,0l-0.05,0.14c-0.04,0.1,0.04,0.14,0.24,0.14h0.14h0.14l0.05-0.14L40.66,98.41z
		 M41.25,91.62c-0.1,0-0.21,0.05-0.34,0.14c-0.13,0.1-0.21,0.05-0.24-0.14l-0.34,0.14c-0.13,0.1-0.19,0.24-0.16,0.43
		c0.02,0.19,0.06,0.36,0.1,0.51c0.04,0.14,0.08,0.31,0.11,0.5l0.46-0.87c0.1-0.29,0.21-0.43,0.3-0.43c0.09,0,0.16-0.05,0.2-0.15
		L41.25,91.62z M41.66,90.9c0,0-0.01-0.12-0.01-0.36c-0.01-0.24,0-0.41,0.04-0.51c0.03-0.09,0-0.14-0.09-0.14
		c-0.1,0-0.16,0.05-0.2,0.14c-0.07,0.19-0.24,0.39-0.5,0.58c-0.13,0.1-0.17,0.19-0.11,0.29c0.06,0.1,0.1,0.19,0.11,0.29
		c0.01,0.1,0.07,0.15,0.16,0.15C41.46,91.05,41.66,90.9,41.66,90.9z M44.02,87.58c0,0,0.16-0.43,0.47-1.3
		c-0.06-0.09-0.04-0.17,0.08-0.22c0.11-0.05,0.19-0.12,0.22-0.22c-0.06-0.09,0.04-0.24,0.3-0.43c0.09,0,0.18-0.09,0.25-0.29
		c0.37-0.48,0.39-0.82,0.08-1.01c-0.12-0.19-0.17-0.34-0.13-0.43l0.1-0.29c0.14-0.38,0.22-0.87,0.24-1.44
		c-0.39,0-0.67,0.24-0.84,0.72c0.12,0.19,0.05,0.38-0.21,0.58c-0.33,0.39-0.52,0.77-0.56,1.15c0.02,0.19-0.01,0.43-0.12,0.72
		c-0.04,0.1-0.11,0.24-0.23,0.43c-0.12,0.19-0.1,0.34,0.06,0.43c-0.2,0.29-0.24,0.53-0.12,0.72l-0.05,0.14l-0.39,0.29
		c-0.13,0.1-0.2,0.29-0.21,0.58l0.09,0.14C43.7,87.68,44.02,87.58,44.02,87.58z M44.05,82.75c0.08,0.05,0.1,0.12,0.07,0.22
		l-0.05,0.14c0.2-0.29,0.22-0.48,0.07-0.58C44,82.63,43.97,82.7,44.05,82.75z M44.81,79.07l0.24,0.14l0.25-0.29
		c0.14-0.38,0.02-0.72-0.35-1.01C44.71,78.3,44.66,78.68,44.81,79.07z M47.65,80.8c0.1-0.29,0.01-0.43-0.28-0.43
		c-0.1,0-0.16-0.02-0.19-0.07c-0.03-0.05,0.02-0.12,0.15-0.22c0.16-0.19,0.14-0.38-0.08-0.58l-0.3,0.43
		c-0.1,0.29-0.3,0.43-0.59,0.43c-0.32,0.1-0.52,0.24-0.59,0.43c-0.2,0.29-0.22,0.48-0.07,0.58l0.04,0.29
		c0.2-0.29,0.43-0.53,0.7-0.72c-0.07,0.19-0.06,0.29,0.04,0.29c-0.1,0.29-0.11,0.43-0.01,0.43c0.09,0,0.17-0.02,0.24-0.07
		c0.06-0.05,0.12-0.12,0.15-0.22l0.25-0.29c0.09,0,0.13,0.05,0.09,0.14c-0.04,0.1,0,0.14,0.09,0.14
		C47.65,81.19,47.77,80.99,47.65,80.8z M46.81,83.11c0,0-0.06-0.09-0.18-0.29c-0.19,0-0.31,0.05-0.34,0.15
		c-0.13,0.1-0.23,0.24-0.3,0.43l0.04,0.29c0.03-0.09,0.1-0.14,0.2-0.14l0.3-0.43C46.71,83.11,46.81,83.11,46.81,83.11z M46,73.44
		c0,0,0.05,0,0.14,0l0.34-0.14c0.03-0.1,0-0.15-0.09-0.15c-0.1,0-0.16,0.05-0.2,0.15C46.06,73.39,46,73.44,46,73.44z M47.55,76.11
		c0.06-0.05,0.05-0.07-0.05-0.07c-0.05-0.38-0.24-0.53-0.56-0.43c-0.1,0-0.18,0.02-0.24,0.07c-0.07,0.05-0.07,0.12-0.01,0.22
		c-0.07,0.19-0.06,0.29,0.04,0.29h0.58h0.14C47.45,76.18,47.48,76.16,47.55,76.11z M47.44,71.85h0.14c0.39-0.29,0.62-0.38,0.68-0.29
		l-0.1,0.29l-0.45,0.43l0.56,0.43c0.19,0,0.32-0.09,0.39-0.29l0.1-0.29c0.2-0.29,0.21-0.58,0.03-0.87c-0.06-0.09-0.3-0.24-0.71-0.43
		c-0.23,0.1-0.31,0.19-0.25,0.29c0.06,0.1-0.04,0.24-0.3,0.43C47.47,71.76,47.44,71.85,47.44,71.85z M51.93,65.07l0.42,0.43
		C52.36,65.21,52.22,65.07,51.93,65.07z M56.07,64.78c0,0-0.09-0.15-0.28-0.43l-0.28-0.43c-0.04,0.1-0.13,0.22-0.28,0.36
		c-0.15,0.14-0.27,0.22-0.37,0.22c-0.36,0.19-0.51,0.34-0.45,0.43c-0.04,0.1,0.02,0.14,0.16,0.14s0.26,0,0.36,0h0.29
		C55.8,64.88,56.07,64.78,56.07,64.78z M68.17,112.84c-0.18-0.29-0.24-0.53-0.17-0.72l-0.04-0.29c-0.19,0-0.31-0.07-0.35-0.22
		c-0.05-0.14-0.05-0.26-0.01-0.36c-0.46,0.48-0.64,0.82-0.51,1.01l-0.07,0.58c-0.13,0.1-0.18,0.17-0.15,0.22
		c0.03,0.05,0.09,0.07,0.19,0.07C67.15,113.13,67.52,113.03,68.17,112.84z M69.18,37.5c0,0-0.13-0.05-0.38-0.14
		c-0.06-0.09-0.21-0.09-0.43,0c-0.23,0.1-0.36,0.19-0.39,0.29c-0.13,0.1-0.15,0.15-0.05,0.15c0.06,0.1,0.03,0.24-0.09,0.43
		c-0.12,0.19-0.15,0.34-0.08,0.43c0.09,0,0.18-0.05,0.27-0.14c0.08-0.09,0.17-0.14,0.27-0.14c0.06,0.1,0.16,0.1,0.29,0
		c0.13-0.09,0.21-0.19,0.25-0.29C69.06,37.7,69.18,37.5,69.18,37.5z M69.77,35.48c-0.39,0.29-0.64,0.58-0.75,0.87
		c-0.07,0.19-0.06,0.29,0.04,0.29c0.25,0.1,0.51,0.05,0.77-0.15C69.87,36.4,69.85,36.06,69.77,35.48z M71.29,100.5
		c0.06-0.05,0.12-0.12,0.15-0.22c0.17-0.19,0.23-0.36,0.18-0.5c-0.04-0.14-0.12-0.22-0.21-0.22h-0.58l-0.34,0.14l0.42,0.43
		c-0.07,0.19-0.01,0.29,0.18,0.29C71.16,100.52,71.22,100.55,71.29,100.5z M71.13,97.97c0,0-0.02,0.05-0.05,0.14
		c-0.18,0.48-0.17,0.72,0.03,0.72c0.25,0.1,0.42,0.05,0.49-0.14c0.07-0.19,0.07-0.34,0.01-0.43c-0.09-0.29-0.2-0.38-0.33-0.29
		C71.17,97.97,71.13,97.97,71.13,97.97z M72.7,90.47c-0.1,0-0.21,0.05-0.34,0.14l0.04,0.29c0.09,0,0.18-0.1,0.25-0.29L72.7,90.47z
		 M74.44,87.29l-0.09-0.14L74.4,87c0.2-0.29,0.16-0.43-0.13-0.43c-0.29,0-0.49,0.14-0.59,0.43c-0.04,0.1-0.04,0.17-0.01,0.22
		c0.03,0.05-0.02,0.12-0.15,0.22c-0.13,0.1-0.22,0.19-0.25,0.29c-0.04,0.1-0.07,0.19-0.11,0.29c0.06,0.1,0.19,0.14,0.38,0.14h0.29
		C74.48,87.97,74.68,87.68,74.44,87.29z M74.57,84.55c0,0-0.04-0.14-0.13-0.43c0.03-0.09,0.1-0.26,0.18-0.51
		c0.09-0.24-0.03-0.31-0.35-0.22l-0.04-0.29l-0.17-0.72l-0.5,0.58c-0.13,0.1-0.16,0.17-0.08,0.22c0.08,0.05,0.1,0.12,0.07,0.22
		l-0.1,0.29c-0.17,0.19-0.23,0.36-0.18,0.51c0.04,0.14,0.11,0.22,0.21,0.22c0.13-0.09,0.23-0.09,0.29,0l0.13,0.43
		C74.34,84.65,74.57,84.55,74.57,84.55z M74.15,74.59c0.1-0.29,0.01-0.43-0.28-0.43c-0.1,0-0.16,0.05-0.2,0.14
		c-0.13,0.1-0.17,0.19-0.1,0.29c0.06,0.1,0.14,0.14,0.24,0.14L74.15,74.59z M74.26,80.44c-0.03-0.05-0.1-0.07-0.19-0.07
		c0.11-0.29,0.01-0.43-0.27-0.43l-0.07,0.58c-0.04,0.1,0.09,0.14,0.38,0.14C74.24,80.56,74.29,80.49,74.26,80.44z M74.91,81.23
		l0.52,0.14c0.07-0.19,0.12-0.38,0.14-0.58c0.02-0.19,0-0.34-0.06-0.43c-0.06-0.09-0.14-0.14-0.24-0.14c-0.1,0-0.21,0.05-0.34,0.14
		C74.51,80.75,74.5,81.04,74.91,81.23z M78.9,24.66c-0.13,0.1-0.26,0.19-0.39,0.29c-0.13,0.1-0.26,0.19-0.39,0.29l0.42,0.43
		L78.9,24.66z M79.62,125.4c0,0-0.03-0.05-0.09-0.14l-0.08-0.58l-0.59,0.43c-0.03,0.09,0.04,0.14,0.24,0.14
		c0.09,0,0.1,0.05,0.02,0.14c-0.08,0.09-0.08,0.14,0.02,0.14h0.29C79.55,125.44,79.62,125.4,79.62,125.4z M83.62,16.86
		c-0.25-0.09-0.45-0.09-0.58,0c-0.07,0.19,0.04,0.29,0.33,0.29l0.2-0.14L83.62,16.86z M90.07,16.58c0.11-0.29,0.13-0.48,0.07-0.58
		l-0.97,0.29c-0.19,0-0.32,0.07-0.37,0.22c-0.05,0.14-0.05,0.27,0.01,0.36c0.02,0.19,0.13,0.29,0.33,0.29c0.19,0,0.34,0,0.43,0
		L90.07,16.58z M92.51,15.42l-0.28-0.43c-0.13,0.1-0.22,0.22-0.28,0.36s-0.1,0.27-0.13,0.36L92.51,15.42z M95.12,14.99
		c0.03-0.09,0-0.14-0.09-0.14c-0.03-0.19-0.17-0.19-0.43,0c-0.1,0.29,0,0.39,0.33,0.29C95.02,15.13,95.09,15.09,95.12,14.99z"/>
	<path fill="#FFFFFF" d="M148.77,129.29c0,0-0.13-0.05-0.38-0.14c-0.25-0.1-0.44-0.24-0.56-0.43c-0.16-0.1-0.3-0.1-0.43,0h-0.29
		l-0.96-0.14l-0.09-0.15c-0.13,0.1-0.29,0.15-0.49,0.15c-0.29,0-0.51-0.05-0.67-0.15c-0.16-0.1-0.33-0.14-0.52-0.14l-0.81-0.14
		c-0.29,0-0.47-0.05-0.53-0.14c-0.24-0.39-0.56-0.58-0.94-0.58c-0.6-0.19-0.96-0.53-1.08-1.01c-0.1,0-0.13-0.05-0.09-0.15
		c0.26-0.19,0.25-0.29-0.04-0.29c-0.29,0-0.38-0.14-0.28-0.43c0.04-0.1,0-0.14-0.09-0.14c-0.35-0.1-0.42-0.43-0.21-1.01
		s0.28-1.15,0.2-1.73c-0.19,0-0.16-0.1,0.1-0.29l0.01-0.43c-0.12-0.19-0.1-0.53,0.08-1.01c0.17-0.48,0.27-0.87,0.28-1.15
		c0.13-0.09,0.23-0.24,0.3-0.43l0.58-1.59c0.24-0.67,0.47-1.15,0.67-1.44l0.16-0.43c-0.03-0.19,0.02-0.38,0.14-0.58
		c0.12-0.19,0.19-0.34,0.23-0.43c0.3-0.29,0.4-0.58,0.32-0.87c-0.12-0.19-0.08-0.38,0.14-0.58c0.21-0.19,0.34-0.34,0.37-0.43
		c0.13-0.09,0.23-0.24,0.3-0.43l0.16-0.43c0.07-0.19,0.16-0.43,0.26-0.72c0.11-0.29,0.16-0.58,0.17-0.87
		c-0.03-0.19,0.02-0.38,0.14-0.58c0.12-0.19,0.16-0.38,0.14-0.58l0.1-0.29l1-1.15c0.3-0.29,0.4-0.58,0.32-0.87l0.1-0.29
		c0.3-0.29,0.56-0.62,0.8-1.01c0.23-0.38,0.37-0.62,0.41-0.72c0.37-0.48,0.52-0.91,0.47-1.3c-0.06-0.09-0.02-0.22,0.13-0.36
		c0.15-0.15,0.24-0.26,0.28-0.36c0.07-0.19,0.06-0.29-0.04-0.29c-0.1,0-0.16,0.05-0.2,0.14c-0.33,0.39-0.61,0.63-0.84,0.72
		c-0.1,0-0.18,0.1-0.25,0.29c-0.18,0.48-0.56,0.87-1.14,1.15l-1.14,1.15l-0.45,0.43c-0.17,0.2-0.31,0.39-0.43,0.58
		c-0.12,0.2-0.25,0.34-0.37,0.43c-0.26,0.19-0.56,0.48-0.89,0.87c-0.07,0.19-0.2,0.36-0.4,0.5c-0.2,0.14-0.33,0.31-0.4,0.51
		l-0.39,0.29l-0.6,0.87c-0.2,0.29-0.46,0.48-0.79,0.58l-0.59,0.43c-0.07,0.19-0.28,0.39-0.64,0.58c-0.27,0.19-0.48,0.39-0.64,0.58
		c-0.17,0.19-0.33,0.39-0.5,0.58c0.06,0.1-0.09,0.24-0.45,0.43c-0.46,0.19-0.64,0.43-0.55,0.72c-0.18,0.48-0.69,0.96-1.54,1.44
		l-1.47,0.87c-0.36,0.19-0.67,0.39-0.93,0.58c-0.26,0.19-0.51,0.34-0.73,0.43c-0.27,0.19-0.45,0.43-0.55,0.72
		c-0.14,0.39-0.31,0.58-0.5,0.58c-0.1,0-0.19-0.02-0.26-0.07c-0.08-0.05-0.19-0.02-0.32,0.07l-0.21,0.58l-0.1,0.29
		c-0.24,0.39-0.53,0.53-0.88,0.43c-0.16-0.09-0.32-0.12-0.48-0.07c-0.16,0.05-0.29,0.07-0.39,0.07l-0.07,0.58l-0.16,0.43
		c-0.03,0.09-0.01,0.17,0.06,0.22c0.08,0.05,0.05,0.12-0.08,0.22c-0.13,0.09-0.23,0.17-0.29,0.22c-0.07,0.05-0.15,0.07-0.24,0.07
		c-0.39,0-0.66,0.09-0.83,0.29h-0.14h-0.29c-0.19,0-0.44,0.07-0.73,0.22c-0.29,0.14-0.54,0.22-0.73,0.22l-0.77,0.14h-0.43
		c-0.36,0.19-0.73,0.15-1.1-0.14c-0.43,0.38-0.83,0.43-1.21,0.14c-0.1,0-0.16-0.02-0.19-0.07c-0.03-0.05-0.11-0.03-0.24,0.07
		c-0.29,0-0.41-0.05-0.38-0.14c-0.03-0.19-0.18-0.29-0.47-0.29l0.1-0.29c-0.06-0.1-0.16-0.1-0.29,0c-0.1,0-0.22,0.02-0.39,0.07
		c-0.16,0.05-0.27,0.02-0.33-0.07c-0.05-0.39-0.31-0.48-0.76-0.29c-0.13,0.1-0.32,0.1-0.58,0c-0.16-0.1-0.39-0.12-0.69-0.07
		c-0.31,0.05-0.54,0.02-0.7-0.07h-0.29c-0.1,0-0.18-0.05-0.24-0.14c-0.06-0.1-0.16-0.1-0.29,0h-0.43c-0.22-0.19-0.44-0.31-0.66-0.36
		c-0.22-0.05-0.38-0.07-0.48-0.07c-0.48,0-0.81-0.14-1-0.43c-0.12-0.19-0.28-0.29-0.47-0.29c-0.51-0.19-0.97-0.38-1.38-0.58
		c-0.44-0.38-0.78-0.62-1.04-0.72c-0.06-0.09-0.14-0.14-0.24-0.14c-0.1,0-0.16-0.09-0.18-0.29l-0.24-0.14
		c-0.51-0.19-0.82-0.38-0.95-0.58c0.03-0.09,0-0.14-0.09-0.14c-0.25-0.09-0.56-0.43-0.93-1.01c-0.12-0.19-0.25-0.24-0.38-0.14
		c-0.1,0-0.13-0.05-0.09-0.15c0.1-0.29,0-0.53-0.31-0.72l-0.68-1.3c0.01-0.29-0.11-0.48-0.37-0.58c-0.1,0-0.3-0.24-0.6-0.72
		c-0.39-0.77-0.69-1.68-0.88-2.74c-0.09-0.29-0.2-0.38-0.33-0.29c-0.1,0-0.13-0.05-0.09-0.14l0.01-0.43
		c0.03-0.09,0.09-0.19,0.18-0.29c0.08-0.09,0.09-0.19,0.03-0.29c-0.06-0.09-0.09-0.29-0.08-0.58c0.01-0.29-0.07-0.48-0.22-0.58
		c-0.06-0.09-0.1-0.38-0.12-0.87c0.07-0.19,0.07-0.34,0.01-0.43c-0.25-0.38-0.38-0.67-0.41-0.87c0.03-0.09,0.04-0.24,0.01-0.43
		c-0.03-0.19,0.03-0.34,0.16-0.43c-0.22-0.19-0.29-0.38-0.22-0.58l-0.04-1.88c-0.06-0.1-0.02-0.34,0.12-0.72
		c0.16-0.19,0.22-0.48,0.17-0.87c-0.12-0.19-0.12-0.34,0.01-0.43c0.2-0.29,0.29-0.67,0.28-1.15c0.09-0.77,0.22-1.39,0.39-1.88
		c0.07-0.19,0.13-0.5,0.2-0.94c0.06-0.43,0.1-0.79,0.11-1.08c0.02-0.58,0.06-0.96,0.13-1.15l0.1-0.29
		c-0.05-0.38-0.02-0.87,0.09-1.44c0.11-0.58,0.21-0.96,0.28-1.15l0.05-0.14c-0.06-0.1-0.02-0.22,0.13-0.36
		c0.15-0.14,0.19-0.26,0.13-0.36c-0.06-0.09-0.05-0.19,0.03-0.29c0.08-0.1,0.14-0.19,0.18-0.29c0.1-0.29,0.12-0.48,0.07-0.58
		l0.32-0.87c0.24-0.67,0.37-1.15,0.38-1.44c-0.06-0.1-0.04-0.29,0.07-0.58c0.07-0.19,0.15-0.48,0.24-0.87
		c0.09-0.38,0.24-0.72,0.44-1.01c0.07-0.19,0.06-0.29-0.04-0.29l0.16-0.43c0.26-0.19,0.37-0.48,0.32-0.87
		c0.07-0.19,0.15-0.36,0.26-0.5c0.1-0.14,0.14-0.31,0.11-0.5c-0.03-0.19,0.03-0.41,0.16-0.65c0.13-0.24,0.19-0.46,0.16-0.65
		c0.18-0.48,0.34-0.82,0.51-1.01l0.42-1.15c0.24-0.67,0.48-1.2,0.72-1.59c0.04-0.1,0.05-0.19,0.03-0.29
		c-0.02-0.09,0.04-0.19,0.18-0.29c-0.09-0.29,0.05-0.67,0.42-1.16c0.07-0.19,0.22-0.53,0.44-1.01c0.22-0.48,0.48-0.87,0.78-1.15
		l0.26-0.72c0.23-0.38,0.46-0.87,0.67-1.44c0.21-0.58,0.43-1.06,0.67-1.44c0.14-0.38,0.2-0.67,0.17-0.87l0.21-0.58
		c0.11-0.29,0.39-0.82,0.87-1.59c0.1-0.29,0.32-0.62,0.66-1.01l0.26-0.72c0.05-0.67,0.28-1.16,0.67-1.44l0.21-0.58
		c0.11-0.29,0.22-0.48,0.35-0.58c0.13-0.1,0.4-0.43,0.8-1.01c0.11-0.29,0.24-0.53,0.41-0.72c0.33-0.38,0.48-0.67,0.46-0.87
		c0.27-0.48,0.6-1.13,1-1.95c0.39-0.82,0.84-1.52,1.34-2.09c0.23-0.38,0.32-0.62,0.26-0.72l0.5-0.58c0.2-0.29,0.4-0.58,0.6-0.87
		c0.2-0.29,0.4-0.58,0.6-0.87l0.05-0.14c0.04-0.38,0.26-0.72,0.66-1.01l0.5-0.58l0.56-1.15l0.25-0.29c0.07-0.19,0.22-0.41,0.45-0.65
		c0.23-0.24,0.32-0.41,0.26-0.51c0.07-0.19,0.16-0.38,0.28-0.58c0.12-0.19,0.18-0.43,0.19-0.72l0.25-0.29
		c0.66-0.48,1.07-0.96,1.25-1.44l0.39-0.29c0.26-0.19,0.31-0.34,0.16-0.43c-0.03-0.19,0.16-0.43,0.55-0.72
		c0.69-0.58,1.13-0.87,1.32-0.87c0.72-0.38,1.23-0.87,1.54-1.44c0.18-0.48,0.46-0.87,0.85-1.16c0.23-0.09,0.41-0.34,0.55-0.72
		c0.1-0.29,0.32-0.62,0.66-1.01c0.17-0.19,0.37-0.41,0.6-0.65c0.23-0.24,0.38-0.46,0.45-0.65c0.07-0.19,0.2-0.29,0.39-0.29
		c0.26-0.19,0.41-0.34,0.45-0.43c0.03-0.09,0.13-0.17,0.29-0.22c0.16-0.05,0.26-0.12,0.3-0.22l0.98-0.72
		c0.07-0.19,0.17-0.34,0.3-0.43c0.13-0.09,0.26-0.19,0.39-0.29l0.59-0.43c0.66-0.48,1.25-1.06,1.78-1.73
		c0.37-0.48,0.75-0.87,1.14-1.15c0.23-0.1,0.51-0.34,0.84-0.72l1.63-1.3c0.3-0.29,0.72-0.6,1.28-0.94c0.56-0.34,1.01-0.6,1.37-0.79
		l1.27-0.72l0.93-0.58l0.74-0.43c0.23-0.09,0.47-0.24,0.73-0.43c0.26-0.19,0.62-0.38,1.08-0.58c0.19,0,0.39-0.14,0.59-0.43
		c0.3-0.29,0.7-0.48,1.22-0.58c1.04-0.48,2-0.87,2.87-1.15c0.71-0.09,1.39-0.38,2.05-0.87l0.34-0.15c0.12,0.19,0.33,0.15,0.63-0.14
		c0.19,0,0.35-0.05,0.49-0.14c0.13-0.09,0.26-0.19,0.39-0.29c0.19,0,0.4-0.05,0.63-0.14c0.23-0.09,0.39-0.14,0.49-0.14
		c0.29,0,0.52-0.1,0.68-0.29c0.09,0,0.17-0.02,0.24-0.07c0.06-0.05,0.15-0.07,0.24-0.07c0.09,0,0.27-0.09,0.54-0.29
		c0.33-0.38,0.61-0.48,0.83-0.29c0.29,0,0.5-0.05,0.63-0.14c0.26-0.19,0.6-0.34,1.02-0.43c0.42-0.09,0.74-0.19,0.97-0.29
		c0.09,0,0.27-0.02,0.53-0.07c0.26-0.05,0.57-0.17,0.93-0.36c0.78-0.29,1.52-0.34,2.22-0.14h0.58c0.03-0.09,0.15-0.14,0.34-0.14
		c0.06,0.1,0.19,0.14,0.38,0.14c0.19,0,0.35-0.05,0.48-0.14c0.36-0.19,0.63-0.14,0.81,0.14c-0.04,0.1,0,0.12,0.12,0.07
		c0.11-0.05,0.19-0.12,0.22-0.22c-0.03-0.19,0.1-0.29,0.39-0.29c0.17-0.19,0.49-0.29,0.97-0.29c0.29,0,0.41,0.05,0.38,0.14
		c0.06,0.1,0.13,0.1,0.22,0c0.08-0.09,0.17-0.14,0.27-0.14l0.13,0.43h0.14c0.19,0,0.44,0.24,0.75,0.72
		c0.23-0.09,0.38-0.24,0.45-0.43c0.03-0.09,0.18-0.24,0.45-0.43c0.13-0.09,0.2-0.09,0.22,0c0.01,0.1,0.07,0.15,0.16,0.15
		c0.16,0.1,0.37,0.05,0.63-0.15c0.13-0.09,0.26-0.19,0.39-0.29c0.13-0.09,0.29-0.15,0.49-0.15c0.09,0,0.24,0.15,0.42,0.43l0.56,0.43
		c0.06,0.1,0.19,0.14,0.38,0.14c0.19,0,0.32,0.05,0.38,0.15h0.58c0.09,0,0.26,0,0.5,0c0.24,0,0.41-0.15,0.52-0.43
		c0.03-0.09,0.1-0.14,0.2-0.14c0.23-0.1,0.43-0.12,0.6-0.07c0.17,0.05,0.37,0.02,0.6-0.07c0.09,0,0.2,0.1,0.33,0.29l-0.1,0.29
		c0.18,0.29,0.26,0.48,0.22,0.58c-0.04,0.1-0.11,0.17-0.22,0.22c-0.11,0.05-0.21,0.17-0.28,0.36c0.1,0,0.18-0.02,0.24-0.07
		c0.06-0.05,0.14-0.07,0.24-0.07c0.26-0.19,0.44-0.14,0.53,0.15c-0.07,0.19-0.16,0.29-0.25,0.29c-0.1,0-0.18,0.1-0.25,0.29h0.14
		c0.13-0.1,0.29-0.15,0.49-0.15c0.06,0.1,0.15,0.17,0.28,0.22c0.12,0.05,0.22,0.12,0.28,0.22c0.31,0.19,0.57,0.29,0.76,0.29
		c0.35,0.1,0.58,0.39,0.7,0.87l0.04,0.29c0.54,0.1,0.77,0.53,0.68,1.3l0.26,0.87c0.02,0.19,0.06,0.43,0.1,0.72
		c0.04,0.29,0.1,0.58,0.19,0.87l-0.05,0.14c-0.05,0.39-0.01,0.82,0.1,1.3c0.11,0.48,0.21,0.87,0.3,1.15
		c-0.07,0.19-0.05,0.41,0.05,0.65c0.1,0.24,0.07,0.46-0.09,0.65c-0.07,0.19-0.01,0.29,0.18,0.29c-0.04,0.1-0.1,0.14-0.2,0.14
		c-0.1,0-0.16,0.05-0.2,0.14l-0.05,0.15c0.54,0.1,0.69,0.48,0.45,1.15c-0.07,0.19-0.12,0.39-0.14,0.58
		c-0.02,0.19-0.14,0.43-0.33,0.72c-0.07,0.19-0.08,0.34-0.01,0.43c-0.07,0.19-0.15,0.29-0.25,0.29c-0.13,0.1-0.26,0.24-0.37,0.43
		c-0.12,0.19-0.24,0.34-0.37,0.43c0.06,0.1,0.04,0.22-0.06,0.36c-0.1,0.15-0.12,0.27-0.06,0.36c0.05,0.39-0.23,0.77-0.85,1.15
		c-0.13,0.1-0.14,0.24-0.01,0.43c0.02,0.19-0.06,0.43-0.26,0.72l-0.2,0.14c-0.04,0.1-0.12,0.19-0.25,0.29
		c-0.13,0.1-0.25,0.14-0.34,0.14c-0.1,0-0.13-0.05-0.09-0.14c0.03-0.09,0.02-0.19-0.04-0.29c0.03-0.09,0-0.14-0.09-0.14
		c-0.1,0-0.16,0.05-0.2,0.14c-0.17,0.19-0.32,0.48-0.46,0.87c-0.1,0.29-0.23,0.48-0.35,0.58c-0.13,0.1-0.18,0.24-0.16,0.43
		l0.09,0.14c0.25,0.1,0.36,0.27,0.32,0.5c-0.04,0.24-0.08,0.41-0.11,0.51l-0.2,0.14c-0.1,0-0.13-0.05-0.09-0.14
		c0.13-0.09,0.16-0.19,0.11-0.29c-0.23,0.1-0.47,0.29-0.71,0.58c-0.25,0.29-0.51,0.53-0.77,0.72c-0.04,0.1-0.18,0.29-0.43,0.58
		c-0.25,0.29-0.38,0.58-0.39,0.87c0.15,0.39,0.02,0.87-0.38,1.44c-0.04,0.1-0.13,0.17-0.3,0.22c-0.16,0.05-0.21,0.12-0.15,0.22
		c-0.1,0.29-0.22,0.48-0.35,0.58c-0.04,0.1-0.08,0.22-0.13,0.36c-0.05,0.15-0.05,0.27,0.01,0.36c0.09,0,0.14,0.02,0.12,0.07
		c-0.02,0.05-0.08,0.07-0.17,0.07c-0.13,0.1-0.21,0.19-0.25,0.29c-0.04,0.1-0.07,0.19-0.11,0.29c-0.04,0.1-0.11,0.17-0.22,0.22
		c-0.11,0.05-0.2,0.02-0.26-0.07c-0.25-0.09-0.49-0.12-0.7-0.07c-0.21,0.05-0.41,0.07-0.6,0.07c-0.13,0.1-0.18,0.17-0.15,0.22
		c0.03,0.05,0.03,0.12-0.01,0.22c0.09,0,0.16,0.02,0.19,0.07c0.03,0.05-0.02,0.12-0.15,0.22c-0.07,0.19-0.29,0.39-0.64,0.58h-0.14
		c-0.67,0-1.24,0.24-1.71,0.72c-0.1,0-0.16,0.05-0.2,0.14c-0.19,0-0.29,0.14-0.3,0.43c-0.04,0.1-0.05,0.19-0.03,0.29
		c0.01,0.1-0.05,0.19-0.18,0.29l0.04,0.29l0.34-0.15l0.05-0.14c0.14-0.38,0.31-0.65,0.51-0.79s0.44-0.22,0.73-0.22
		s0.4,0.1,0.33,0.29c-0.14,0.39-0.2,0.67-0.17,0.87c-0.04,0.1-0.1,0.22-0.2,0.36c-0.1,0.14-0.12,0.27-0.06,0.36
		c-0.04,0.1-0.1,0.14-0.2,0.14c-0.32,0.1-0.56,0.34-0.7,0.72c-0.27,0.48-0.44,0.75-0.51,0.79c-0.07,0.05-0.34,0.07-0.82,0.07h-0.29
		c-0.1,0-0.18,0.1-0.25,0.29l0.33,0.29c-0.46,0.48-0.89,0.72-1.27,0.72l-0.05,0.14c0.06,0.1,0.12,0.12,0.19,0.07
		c0.06-0.05,0.08-0.02,0.05,0.07c-0.07,0.19-0.16,0.29-0.25,0.29c-0.1,0-0.13-0.05-0.09-0.15h-0.29c-0.07,0.19-0.18,0.36-0.33,0.51
		c-0.15,0.14-0.21,0.31-0.18,0.5l-0.25,0.29l0.49-0.15c0.38,0,0.43,0.15,0.13,0.43l-0.3,0.43c-0.13,0.1-0.18,0.24-0.16,0.43
		l-0.05,0.14c-0.04,0.1-0.13,0.17-0.3,0.22c-0.16,0.05-0.21,0.12-0.15,0.22c-0.11,0.29-0.22,0.48-0.35,0.58l-0.11,0.29
		c-0.04,0.1-0.08,0.1-0.14,0c-0.13,0.1-0.3,0.24-0.52,0.43c-0.21,0.19-0.42,0.29-0.61,0.29l-0.77,0.14c-0.48,0-1.02,0.14-1.6,0.43
		l-0.38-0.14c-0.25-0.09-0.36-0.34-0.31-0.72c-0.02-0.48-0.08-0.72-0.17-0.72c-0.1,0-0.11-0.09-0.04-0.29
		c0.16-0.19,0.09-0.53-0.21-1.01c-0.06-0.1-0.06-0.24,0.01-0.43l0.76-1.3l0.36-0.58c0.4-0.58,0.75-1.01,1.05-1.3
		c0.2-0.29,0.39-0.67,0.57-1.15c0.03-0.1,0.12-0.19,0.25-0.29c0.13-0.09,0.17-0.19,0.11-0.29c-0.06-0.1-0.03-0.19,0.11-0.29
		c0.13-0.09,0.21-0.19,0.25-0.29c0.03-0.09,0.1-0.22,0.2-0.36c0.1-0.14,0.07-0.26-0.08-0.36l0.11-0.29
		c0.33-0.38,0.48-0.67,0.46-0.87c0.23-0.09,0.42-0.29,0.57-0.58c0.15-0.29,0.29-0.48,0.43-0.58c0.13-0.09,0.23-0.24,0.3-0.43
		c0.07-0.19,0.17-0.34,0.3-0.43l0.6-0.87l0.7-0.72c0.76-0.77,1.31-1.49,1.65-2.17c0.03-0.09,0.18-0.24,0.45-0.43
		c0.33-0.38,0.7-0.87,1.1-1.44c0.2-0.29,0.32-0.55,0.36-0.79c0.04-0.24,0.09-0.46,0.16-0.65c0.11-0.29,0.34-0.53,0.7-0.72
		c0.04-0.09,0.03-0.29-0.01-0.58c-0.04-0.29,0.07-0.53,0.33-0.72l-0.08-0.58c-0.09-0.29-0.16-0.62-0.21-1.01
		c0.07-0.19,0.09-0.38,0.07-0.58c-0.03-0.19-0.02-0.34,0.01-0.43c-0.09-0.29-0.07-0.48,0.07-0.58c0.26-0.19,0.3-0.29,0.1-0.29
		c-0.16-0.1-0.17-0.34-0.03-0.72l0.11-0.29l0.38-1.44l0.58-1.59c0.14-0.38,0.25-0.82,0.33-1.3c0.08-0.48,0.2-0.96,0.38-1.44
		l-0.09-0.15c0.02-0.58-0.22-1.25-0.71-2.02c-0.18-0.29-0.33-0.43-0.42-0.43c-0.1,0-0.19-0.07-0.28-0.22
		c-0.09-0.14-0.23-0.22-0.43-0.22h-0.72c-0.1,0-0.21-0.02-0.33-0.07c-0.13-0.05-0.26-0.02-0.39,0.07c-0.13,0.1-0.39,0.14-0.77,0.14
		l-0.2,0.15c-0.41-0.19-0.78-0.1-1.11,0.29c-0.04,0.1-0.15,0.14-0.34,0.14c-0.06-0.09-0.18-0.09-0.36,0
		c-0.18,0.1-0.32,0.15-0.41,0.15h-0.43c-0.16-0.1-0.43,0-0.83,0.29c-0.53,0.39-0.93,0.96-1.21,1.73c-0.25,0.67-0.74,1.25-1.5,1.73
		l-0.39,0.29c-0.3,0.29-0.62,0.53-0.98,0.72c-0.32,0.1-0.59,0.43-0.8,1.01c-0.14,0.39-0.15,0.67-0.03,0.87
		c0.16,0.1,0.1,0.24-0.16,0.43c-0.3,0.29-0.77,0.53-1.42,0.72c-0.1,0-0.18-0.05-0.24-0.14c-0.06-0.09-0.08-0.19-0.04-0.29
		c-0.53,0.39-0.88,0.58-1.08,0.58c-0.23,0.1-0.39,0.27-0.47,0.5c-0.09,0.24-0.12,0.46-0.09,0.65c0.12,0.19,0.16,0.36,0.11,0.5
		c-0.05,0.15-0.24,0.27-0.56,0.36c-0.53,0.39-0.82,0.67-0.89,0.87l-0.25,0.29c-0.29,0-0.52,0.24-0.7,0.72
		c-0.1,0.29-0.25,0.43-0.45,0.43c-0.1,0-0.18,0.02-0.24,0.07c-0.07,0.05-0.15,0.07-0.24,0.07c-0.2,0.29-0.45,0.43-0.73,0.43
		l-0.59,0.43c0.28,0.29,0.41,0.46,0.39,0.5c-0.02,0.05-0.3,0.17-0.85,0.36c-0.19,0-0.31,0.05-0.34,0.15
		c-0.07,0.19-0.2,0.34-0.37,0.43c-0.18,0.1-0.32,0.15-0.41,0.15l0.28,0.43l0.18,0.29c0.19,0,0.34-0.14,0.45-0.43
		c0.39-0.29,0.66-0.24,0.81,0.14l0.24,0.15c-0.01,0.29-0.08,0.48-0.21,0.58l-0.8,1.01c-0.37,0.48-0.54,0.82-0.51,1.01l-0.05,0.14
		c-0.14,0.39-0.55,0.58-1.22,0.58c0.3-0.29,0.35-0.58,0.17-0.87l0.06-0.58c0.17-0.19,0.14-0.38-0.08-0.58h-1.01
		c-0.19,0-0.36,0.05-0.49,0.14c-0.11,0.29-0.13,0.48-0.07,0.58c0.16,0.1,0.13,0.29-0.06,0.58c-0.13,0.1-0.17,0.19-0.11,0.29h0.87
		c0.09,0,0.18,0.1,0.25,0.29c0.07,0.19,0.08,0.39,0.01,0.58c-0.26,0.19-0.46,0.19-0.58,0c-0.06-0.09-0.21-0.22-0.45-0.36
		c-0.24-0.15-0.35-0.36-0.34-0.65l-0.64,0.58c-0.33,0.39-0.52,0.63-0.55,0.72c-0.11,0.29-0.27,0.48-0.5,0.58L152,45.87
		c0.05,0.39-0.08,0.63-0.41,0.72c0.06,0.1,0.03,0.24-0.09,0.43c-0.12,0.19-0.15,0.34-0.08,0.43l-0.25,0.29
		c-0.04,0.1-0.08,0.14-0.12,0.14c-0.05,0-0.1-0.05-0.16-0.14l-0.18-0.29c-0.22-0.19-0.38-0.14-0.48,0.14
		c-0.04,0.1-0.18,0.29-0.43,0.58c-0.25,0.29-0.36,0.53-0.33,0.72c-0.1,0.29-0.25,0.43-0.45,0.43c-0.1,0-0.2,0.14-0.3,0.43
		c0.12,0.19,0.05,0.39-0.21,0.58c-0.27,0.19-0.3,0.43-0.12,0.72c0.16,0.1,0.09,0.29-0.21,0.58l-0.47-0.29
		c-0.12-0.19-0.22-0.19-0.29,0l-0.11,0.29l0.24,0.14c0.09,0.29-0.1,0.53-0.55,0.72c-0.19,0-0.31,0.05-0.34,0.15
		c-0.1,0-0.2,0.02-0.32,0.07c-0.11,0.05-0.14,0.12-0.08,0.22c0.06,0.1,0.06,0.24-0.01,0.43c-0.07,0.19-0.01,0.29,0.18,0.29
		c0.09,0,0.2,0.05,0.31,0.14c0.11,0.1,0.1,0.19-0.03,0.29c-0.18,0.48-0.48,0.77-0.89,0.87h-0.14c-0.42,0.1-0.68,0.22-0.78,0.36
		c-0.1,0.15-0.16,0.36-0.16,0.65l-0.05,0.14c-0.18,0.48-0.59,0.82-1.23,1.01c-0.39,0-0.68,0.14-0.88,0.43l0.67,0.14
		c0.19,0,0.24,0.15,0.13,0.43c-0.07,0.19-0.17,0.19-0.29,0c-0.1,0-0.18,0.02-0.24,0.07c-0.07,0.05-0.15,0.07-0.24,0.07l0.33,0.29
		c-0.17,0.19-0.35,0.29-0.54,0.29c-0.19,0-0.27-0.05-0.24-0.14c0.03-0.09,0.02-0.19-0.04-0.29c-0.06-0.1-0.14-0.15-0.24-0.15
		c-0.03-0.19-0.15-0.24-0.38-0.14l-0.97,0.29c-0.1,0-0.19,0.05-0.27,0.14c-0.08,0.1-0.1,0.19-0.03,0.29l0.04,0.29
		c0.06,0.1,0.12,0.19,0.18,0.29c0.06,0.1,0.15,0.12,0.26,0.07c0.11-0.05,0.23-0.12,0.37-0.22c0.26-0.19,0.52-0.24,0.77-0.14
		c0.35,0.1,0.51,0.43,0.5,1.01c0.09,0.29-0.06,0.43-0.45,0.43c-0.25-0.1-0.51-0.12-0.77-0.07c-0.26,0.05-0.51,0.02-0.77-0.07
		c-0.19,0-0.36,0.05-0.49,0.15c-0.13,0.1-0.15,0.29-0.07,0.58c0.16,0.1,0.31,0.14,0.45,0.14c0.14,0,0.26,0,0.36,0l0.39-0.29
		c0.29,0,0.42,0.05,0.38,0.15c0.16,0.1,0.1,0.24-0.16,0.43l-0.73,0.43l-1.22,0.58c0.03-0.09,0.05-0.26,0.04-0.5
		c-0.01-0.24,0.15-0.41,0.47-0.5c-0.54-0.1-0.95-0.05-1.21,0.14c-0.04,0.1-0.1,0.14-0.2,0.14c-0.1,0-0.21,0.05-0.34,0.14l-0.3,0.43
		c0.09,0,0.16,0.02,0.19,0.07c0.03,0.05,0.09,0.07,0.19,0.07l0.2-0.14c0.19,0,0.22,0.19,0.08,0.58c-0.33,0.39-0.64,0.58-0.93,0.58
		l-0.34,0.14l0.37,0.58c-0.13,0.1-0.3,0.29-0.5,0.58c-0.2,0.29-0.32,0.48-0.35,0.58c0.09,0,0.24,0,0.43,0c0.19,0,0.3,0.1,0.33,0.29
		c-0.42,0.1-0.72,0.39-0.89,0.87c-0.07,0.19-0.06,0.29,0.04,0.29l0.2-0.15c0.26-0.19,0.48-0.53,0.66-1.01l0.49-0.14
		c0.13-0.09,0.23-0.12,0.31-0.07c0.08,0.05,0.1,0.12,0.07,0.22c0.02,0.48-0.27,0.87-0.85,1.16l-0.34,0.14
		c-0.27,0.19-0.32,0.34-0.16,0.43l-0.07,0.58l-1.06,0.14c-0.1,0-0.16,0.05-0.2,0.14l0.09,0.15c0.06,0.1,0.19,0.14,0.38,0.14
		c0.13-0.09,0.27-0.14,0.41-0.14s0.28-0.05,0.41-0.15c-0.31,0.58-0.69,0.96-1.14,1.16c-0.1,0-0.18,0.02-0.24,0.07
		c-0.07,0.05-0.07,0.12-0.01,0.22l-0.25,0.29l-0.54,0.29c0.06,0.1,0.12,0.12,0.19,0.07c0.06-0.05,0.13-0.02,0.19,0.07l-0.11,0.29
		c-0.17,0.19-0.33,0.36-0.47,0.5c-0.15,0.15-0.29,0.27-0.42,0.36c-0.13,0.1-0.27,0.14-0.41,0.14c-0.14,0-0.28,0.05-0.41,0.14
		c-0.23,0.1-0.35,0.29-0.35,0.58c0.06,0.1,0.07,0.22,0.01,0.36c-0.05,0.15-0.02,0.31,0.11,0.51l-0.05,0.14l-0.59,0.43
		c0.02,0.19,0.27,0.19,0.72,0c0.09,0,0.13,0.05,0.09,0.14c-0.07,0.19-0.05,0.39,0.08,0.58h-0.14l-0.84,0.72
		c-0.04,0.1-0.01,0.14,0.09,0.14c0.29,0,0.56-0.09,0.83-0.29l0.07-0.58h0.14c0.19,0,0.29,0.05,0.31,0.15
		c0.01,0.1-0.07,0.24-0.23,0.43c-0.2,0.29-0.23,0.48-0.07,0.58h0.29c0.09,0,0.13,0.05,0.09,0.15c-0.04,0.1-0.1,0.14-0.2,0.14
		c-0.13,0.1-0.29,0.14-0.49,0.14c-0.29,0-0.49,0.15-0.59,0.43c0.06,0.1-0.02,0.19-0.25,0.29c-0.23,0.1-0.41,0.19-0.54,0.29
		c-0.13,0.1-0.25,0.14-0.34,0.14c-0.1,0-0.16,0.05-0.2,0.15c-0.04,0.1-0.08,0.22-0.13,0.36s-0.07,0.31-0.04,0.5
		c0.06,0.1,0.04,0.29-0.07,0.58c-0.13,0.1-0.21,0.19-0.25,0.29c-0.04,0.1-0.17,0.19-0.39,0.29c-0.04,0.1-0.1,0.14-0.2,0.14
		c-0.23,0.1-0.36,0.19-0.39,0.29c-0.04,0.1,0.01,0.24,0.13,0.43c0.19,0,0.25,0.1,0.18,0.29c-0.1,0.29-0.05,0.53,0.17,0.72
		c0.09,0,0.17,0.07,0.21,0.22c0.04,0.14,0,0.27-0.13,0.36c-0.13,0.1-0.22,0.22-0.28,0.36s-0.15,0.27-0.28,0.36
		c-0.23,0.1-0.28,0.24-0.16,0.43c0.09,0.29,0.24,0.39,0.47,0.29c0.52-0.38,1.17-0.58,1.94-0.58c-0.04,0.1-0.09,0.17-0.15,0.22
		c-0.07,0.05-0.12,0.12-0.15,0.22c-0.13,0.1-0.23,0.24-0.3,0.43c0.06,0.1,0.06,0.17-0.01,0.22c-0.07,0.05-0.13,0.02-0.19-0.07
		c-0.1,0-0.16,0.05-0.2,0.14c-0.04,0.1-0.1,0.22-0.2,0.36c-0.1,0.14-0.07,0.27,0.09,0.36c-0.07,0.19-0.16,0.29-0.25,0.29
		c-0.04,0.1-0.12,0.19-0.25,0.29c-0.13,0.1-0.25,0.14-0.34,0.14c-0.05-0.38-0.01-0.62,0.12-0.72c0.13-0.09,0.13-0.24,0.01-0.43
		c-0.12-0.19-0.35-0.24-0.67-0.14l-0.77,0.14c-0.11,0.29-0.13,0.63-0.08,1.01c0.12,0.19,0.11,0.34-0.01,0.43
		c-0.46,0.19-0.56,0.48-0.32,0.87l-0.07,0.58c-0.04,0.1-0.07,0.19-0.1,0.29c-0.04,0.1,0.01,0.24,0.13,0.43
		c0.09,0,0.2,0.05,0.31,0.14c0.11,0.1,0.23,0.1,0.36,0c0.19,0,0.27,0.05,0.24,0.14l0.56,0.43c-0.17,0.19-0.35,0.31-0.56,0.36
		c-0.21,0.05-0.38,0.12-0.51,0.22c-0.1,0-0.13-0.05-0.09-0.14l-0.04-0.29l-0.64,0.58c-0.07,0.19-0.06,0.29,0.04,0.29
		c0.38,0,0.43,0.14,0.13,0.43l-0.25,0.29h0.29l0.68-0.29c0.13-0.09,0.27-0.09,0.43,0c0.06,0.1,0.06,0.17-0.01,0.22
		c-0.07,0.05-0.12,0.12-0.15,0.22c-0.1,0-0.13,0.03-0.1,0.07c0.03,0.05-0.02,0.12-0.15,0.22c-0.1,0.29-0.4,0.43-0.88,0.43
		c-0.06-0.1-0.24-0.15-0.52-0.15c-0.26,0.19-0.56,0.48-0.89,0.87c-0.07,0.19-0.15,0.29-0.25,0.29c-0.26,0.2-0.46,0.48-0.6,0.87
		c-0.11,0.29-0.3,0.43-0.59,0.43c-0.1,0-0.16,0.05-0.2,0.14c-0.29,0-0.47,0.1-0.54,0.29c0.06,0.1,0.16,0.17,0.28,0.22
		c0.13,0.05,0.25,0.03,0.39-0.07c0.32-0.09,0.5-0.05,0.52,0.14c0.06,0.1,0.24,0.14,0.52,0.14c0.13-0.09,0.29-0.14,0.49-0.14
		l-0.25,0.29c-0.13,0.1-0.17,0.19-0.11,0.29c0.16,0.1,0.24,0.19,0.26,0.29c0.01,0.1-0.06,0.24-0.23,0.43
		c-0.17,0.19-0.25,0.34-0.23,0.43c0.01,0.1,0.1,0.19,0.25,0.29l-0.39,0.29c-0.13,0.1-0.2,0.29-0.21,0.58
		c0.12,0.19,0.09,0.29-0.1,0.29l-0.5,0.58c0.06,0.1,0.18,0.24,0.35,0.43c0.17,0.19,0.46,0.24,0.89,0.14
		c0.03-0.09,0.02-0.19-0.04-0.29c-0.06-0.09,0.02-0.19,0.25-0.29c0.23-0.09,0.35-0.24,0.37-0.43c0.02-0.19,0-0.34-0.06-0.43
		c-0.12-0.19-0.02-0.34,0.3-0.43c0.19,0,0.35-0.05,0.49-0.14l0.25-0.29c-0.12-0.19-0.09-0.29,0.11-0.29c0.19,0,0.32,0.05,0.38,0.14
		l-0.25,0.29c-0.17,0.19-0.13,0.48,0.12,0.87l-0.34,0.14c-0.29,0-0.47,0.1-0.54,0.29l0.18,0.29c-0.04,0.1,0.04,0.14,0.24,0.14
		l0.52,0.14c0.12,0.19,0.17,0.34,0.13,0.43c-0.04,0.1-0.12,0.19-0.25,0.29c-0.13,0.1-0.25,0.14-0.34,0.14
		c-0.29,0-0.47-0.05-0.52-0.14c-0.12-0.19-0.31-0.26-0.57-0.22c-0.26,0.05-0.44,0.07-0.53,0.07c-0.29,0-0.58,0.14-0.88,0.43
		c-0.39,0.29-0.45,0.43-0.16,0.43c0.22,0.19,0.42,0.58,0.59,1.15c0.06,0.1,0.19,0.14,0.38,0.14c0.19,0,0.32,0.05,0.38,0.14
		l0.39-0.29l0.3-0.43l0.34-0.14c0.31,0.19,0.57,0.14,0.77-0.14c0.13-0.09,0.25-0.09,0.36,0c0.11,0.1,0.15,0.19,0.11,0.29
		c0.09,0.29-0.02,0.58-0.32,0.87c-0.17,0.19-0.24,0.34-0.23,0.43c0.01,0.1,0.1,0.2,0.26,0.29c-0.2,0.29-0.45,0.43-0.74,0.43
		c0.05,0.39-0.01,0.67-0.17,0.87c-0.13,0.1-0.26,0.12-0.39,0.07c-0.13-0.05-0.24-0.07-0.33-0.07c-0.7-0.19-1.09-0.58-1.17-1.15
		l0.1-0.29c-0.39,0-0.61,0.1-0.68,0.29c-0.04,0.1-0.1,0.22-0.2,0.36c-0.1,0.15-0.12,0.27-0.06,0.36c0.06,0.1,0.02,0.19-0.1,0.29
		c-0.13,0.1-0.22,0.19-0.25,0.29c-0.6,0.58-0.71,1.01-0.33,1.3c-0.04,0.1-0.02,0.19,0.04,0.29c0.06,0.1,0.14,0.14,0.24,0.14
		c0.19,0,0.25,0.1,0.18,0.29c-0.07,0.19-0.08,0.34-0.01,0.43c0.06,0.1,0.19,0.14,0.38,0.14c0.09,0,0.13,0.05,0.09,0.14
		c-0.27,0.19-0.43,0.39-0.5,0.58c0.38,0,0.51,0.19,0.37,0.58l-0.01,0.43c-0.04,0.1-0.03,0.29,0.01,0.58
		c0.04,0.29,0.01,0.58-0.1,0.87c-0.07,0.19,0.04,0.29,0.33,0.29l1.51-0.58c0.26-0.19,0.47-0.29,0.61-0.29s0.26,0.15,0.35,0.43
		l0.18,0.29c0.16,0.1,0.12,0.34-0.12,0.72c-0.13,0.1-0.15,0.27-0.04,0.51c0.1,0.24,0.25,0.36,0.45,0.36c0.29,0,0.4,0.1,0.33,0.29
		l0.18,0.29c-0.08,0.48,0.17,0.72,0.75,0.72s0.91,0.14,1,0.43l1.37-0.58c0.23-0.09,0.46-0.22,0.71-0.36
		c0.24-0.14,0.48-0.26,0.71-0.36c0.13-0.1,0.3-0.22,0.49-0.36c0.2-0.14,0.41-0.26,0.64-0.36c0.39-0.29,0.69-0.43,0.88-0.43
		l0.39-0.29c0.26-0.19,0.36-0.34,0.3-0.43c0.04-0.38,0.21-0.58,0.5-0.58c0.48,0,0.83-0.05,1.06-0.14h0.14
		c0.12,0.19,0.3,0.29,0.54,0.29c0.24,0,0.41,0,0.5,0c0.45-0.19,0.78-0.43,0.98-0.72c0.13-0.09,0.3-0.22,0.49-0.36
		c0.2-0.15,0.28-0.31,0.26-0.51h0.29c0.19,0,0.32-0.09,0.39-0.29c0.07-0.19,0.06-0.29-0.04-0.29c0.01-0.29,0.11-0.43,0.3-0.43h0.14
		c0.13-0.09,0.26-0.19,0.39-0.29c0.13-0.09,0.26-0.19,0.39-0.29c0.13-0.09,0.24-0.12,0.31-0.07c0.08,0.05,0.18,0.02,0.32-0.07
		c0.49-0.29,0.84-0.72,1.05-1.3c0.03-0.09,0.01-0.17-0.07-0.22c-0.08-0.05-0.14-0.02-0.17,0.07c-0.26,0.19-0.62,0.38-1.08,0.58
		c-0.19,0-0.27-0.05-0.24-0.14c-0.03-0.19,0.03-0.34,0.16-0.43c0.38,0,0.53-0.14,0.45-0.43c0.03-0.09,0.15-0.14,0.34-0.14
		c0.06,0.1,0.22,0.05,0.49-0.14c0.13-0.09,0.17-0.14,0.12-0.14c-0.05,0-0.06-0.05-0.02-0.14c0.04-0.38,0.33-0.77,0.85-1.15
		l-0.24-0.14c-0.19,0-0.25-0.09-0.18-0.29l0.26-0.72c0.07-0.19,0.15-0.29,0.25-0.29c0.36-0.19,0.63-0.53,0.8-1.01l0.01-0.43
		c0.14-0.38,0.47-0.77,1-1.16c0.16-0.19,0.3-0.29,0.39-0.29c0.09,0,0.21-0.05,0.34-0.14c0.23-0.09,0.42-0.22,0.57-0.36
		c0.15-0.15,0.23-0.36,0.24-0.65h-0.14c0.13-0.09,0.24-0.19,0.32-0.29c0.08-0.09,0.09-0.19,0.03-0.29
		c-0.06-0.09-0.06-0.17,0.01-0.22c0.06-0.05,0.12-0.12,0.15-0.22c-0.06-0.09,0.01-0.22,0.2-0.36c0.2-0.14,0.31-0.26,0.35-0.36
		c0.26-0.19,0.43-0.38,0.5-0.58l-0.04-0.29c0.3-0.29,0.52-0.65,0.68-1.08c0.16-0.43,0.25-0.7,0.29-0.79
		c0.27-0.48,0.63-1.01,1.08-1.59c0.45-0.58,0.79-1.06,1.03-1.44l0.11-0.29l-1.12,0.29l-2.99,0.29h-0.43
		c-0.41-0.19-0.84-0.26-1.29-0.22c-0.45,0.05-0.77,0.07-0.96,0.07c-0.67,0-1.15-0.14-1.43-0.43c-0.85-0.58-1.37-0.87-1.56-0.87
		c-0.35-0.09-0.61-0.43-0.79-1.01c-0.05-0.38-0.16-0.62-0.32-0.72c-0.22-0.19-0.31-0.34-0.27-0.43c0.07-0.19,0.08-0.48,0.03-0.87
		c-0.15-0.38-0.03-0.72,0.37-1.01c0.59-0.58,0.93-0.96,1-1.15c0.1-0.29,0.3-0.43,0.59-0.43c0.32-0.09,0.72-0.14,1.21-0.14
		c0.48,0,0.92-0.15,1.31-0.43c1.17-0.58,2.01-0.91,2.53-1.01c0.32-0.09,0.58-0.19,0.75-0.29c0.18-0.09,0.33-0.19,0.47-0.29
		c0.13-0.09,0.34-0.14,0.63-0.14c0.38,0,0.9-0.1,1.55-0.29l3.25-1.01l2.52-0.58c0.09,0,0.22-0.07,0.37-0.22
		c0.15-0.14,0.27-0.22,0.37-0.22l0.67,0.14l0.83-0.29c0.45-0.19,0.86-0.24,1.21-0.14c0.29,0,0.66-0.09,1.12-0.29
		c0.23-0.09,0.58-0.14,1.06-0.14l0.77-0.14l2.47-0.43c0.23-0.09,0.46-0.14,0.7-0.14c0.24,0,0.43-0.05,0.56-0.15
		c0.03-0.09,0.08-0.09,0.14,0c0.22,0.19,0.57,0.29,1.05,0.29c0.19,0,0.45-0.05,0.77-0.14c0.32-0.1,0.56-0.1,0.72,0
		c0.06,0.1,0.16,0.1,0.29,0c0.13-0.1,0.21-0.12,0.24-0.07c0.03,0.05,0.09,0.07,0.19,0.07c0.13-0.1,0.26-0.05,0.38,0.14h0.29
		c0.29,0,0.46,0.05,0.52,0.14c0.09,0,0.16,0.03,0.19,0.07c0.03,0.05,0.09,0.07,0.19,0.07l0.49-0.14c0.29,0,0.6,0.07,0.93,0.22
		c0.33,0.14,0.62,0.27,0.88,0.36c0.38,0,0.66-0.09,0.83-0.29c0.07-0.19,0.16-0.19,0.29,0c0.31,0.19,0.62,0.29,0.91,0.29
		c0.47,0.29,0.58,0.77,0.34,1.44c-0.04,0.1-0.07,0.31-0.09,0.65c-0.03,0.34,0.04,0.55,0.2,0.65c0.25,0.1,0.31,0.34,0.17,0.72
		c-0.14,0.39-0.2,0.67-0.17,0.87c0.06,0.1,0.05,0.27-0.04,0.51c-0.09,0.24-0.1,0.41-0.04,0.5c-0.13,0.1-0.17,0.34-0.12,0.72
		c-0.05,0.67-0.28,1.15-0.67,1.44c-0.11,0.29-0.23,0.48-0.35,0.58l-0.05,0.14c-0.27,0.19-0.51,0.48-0.75,0.87
		c-0.24,0.39-0.44,0.67-0.6,0.87c-0.1,0-0.24,0.07-0.44,0.22c-0.2,0.14-0.31,0.27-0.35,0.36l-1.35,0.14c-0.39,0-0.7-0.05-0.96-0.14
		h-0.72c-0.1,0-0.18,0.03-0.24,0.07c-0.07,0.05-0.07,0.12-0.01,0.22c0.16,0.1,0.1,0.24-0.16,0.43c-0.17,0.19-0.3,0.36-0.4,0.51
		c-0.1,0.14-0.12,0.27-0.06,0.36c0.15,0.39,0.1,0.92-0.14,1.59c0.06,0.1,0.07,0.27,0.03,0.5c-0.04,0.24-0.03,0.41,0.03,0.5
		l-0.05,0.14c-0.07,0.19-0.11,0.43-0.12,0.72c-0.01,0.29-0.1,0.53-0.26,0.72l-0.16,0.43l0.04,0.29c-0.17,0.19-0.3,0.43-0.41,0.72
		c-0.1,0.29-0.17,0.72-0.18,1.3l-0.31,0.87c-0.13,0.1-0.21,0.24-0.23,0.43c-0.02,0.2-0.1,0.34-0.23,0.43
		c-0.13,0.1-0.23,0.24-0.3,0.43c-0.07,0.19-0.17,0.34-0.3,0.43c-0.13,0.1-0.14,0.24-0.01,0.43c-0.01,0.29-0.08,0.48-0.21,0.58
		c-0.26,0.19-0.36,0.34-0.3,0.43c0.06,0.1,0.05,0.27-0.04,0.5c-0.09,0.24-0.1,0.41-0.04,0.51c0.06,0.1,0.05,0.19-0.03,0.29
		c-0.08,0.1-0.14,0.19-0.18,0.29c-0.5,0.58-0.96,1.44-1.38,2.6c-0.32,0.87-0.66,1.54-1.03,2.02c-0.07,0.2-0.2,0.29-0.39,0.29
		c-0.39,0.29-0.61,0.48-0.64,0.58l-0.2,0.14c-0.16-0.09-0.29,0-0.39,0.29c0.22,0.19,0.1,0.53-0.37,1.01l-0.36,0.58
		c0.06,0.1,0.06,0.17-0.01,0.22c-0.07,0.05-0.12,0.12-0.15,0.22l-0.25,0.29c0.12,0.19,0.08,0.43-0.12,0.72
		c-0.2,0.29-0.34,0.53-0.41,0.72c-0.07,0.19-0.17,0.34-0.3,0.43c-0.17,0.19-0.35,0.43-0.55,0.72c-0.2,0.29-0.4,0.58-0.6,0.87
		c-0.07,0.19-0.17,0.34-0.3,0.43c-0.33,0.39-0.52,0.77-0.56,1.16c0.12,0.19,0.05,0.39-0.21,0.58c-0.1,0-0.33,0.24-0.7,0.72
		l-1.41,1.88c-0.3,0.29-0.42,0.63-0.37,1.01c0.06,0.1,0.04,0.29-0.07,0.58c-0.07,0.19-0.12,0.39-0.14,0.58
		c-0.02,0.19-0.13,0.43-0.33,0.72l-0.32,0.87c-0.04,0.09-0.13,0.29-0.28,0.58c-0.15,0.29-0.39,0.48-0.72,0.58
		c-0.13,0.09-0.2,0.22-0.2,0.36c0,0.14-0.07,0.26-0.2,0.36c-0.04,0.38-0.26,0.72-0.66,1.01l-0.2,0.14l-0.12,0.72
		c-0.03,0.09-0.09,0.19-0.18,0.29c-0.08,0.09-0.1,0.19-0.03,0.29c-0.07,0.19-0.17,0.34-0.3,0.43c-0.17,0.19-0.22,0.34-0.16,0.43
		c-0.07,0.19-0.17,0.34-0.3,0.43c-0.13,0.09-0.35,0.29-0.64,0.58c-0.07,0.19-0.25,0.29-0.54,0.29h-0.14
		c-0.17,0.19-0.44,0.34-0.81,0.43c-0.37,0.09-0.62,0.19-0.75,0.29h-0.14C148.85,129.34,148.77,129.29,148.77,129.29z M114.72,107.07
		c0,0-0.06-0.09-0.18-0.29c-0.05-0.38-0.31-0.48-0.76-0.29l0.46,0.72C114.56,107.12,114.72,107.07,114.72,107.07z M124.26,114.57
		c0.03-0.09,0-0.14-0.09-0.14l-0.25,0.29c-0.04,0.1-0.01,0.14,0.09,0.14L124.26,114.57z M124.54,114.79
		c0.06-0.05,0.15-0.07,0.24-0.07l0.2-0.14c-0.29,0-0.5,0.05-0.63,0.14C124.41,114.81,124.47,114.84,124.54,114.79z M126.52,108.37
		c0,0,0.02-0.05,0.05-0.14l0.1-0.29l0.05-0.15c0.1-0.29,0.16-0.5,0.16-0.65c0-0.14-0.16-0.17-0.48-0.07c-0.1,0-0.16-0.02-0.19-0.07
		c-0.03-0.05-0.1-0.07-0.19-0.07c-0.22-0.19-0.37-0.43-0.46-0.72c-0.06-0.09-0.04-0.29,0.07-0.58l0.34-0.14
		c0.16,0.1,0.56,0.05,1.21-0.14c0.13-0.09,0.26-0.05,0.38,0.14c0.09,0,0.13,0.05,0.09,0.14c-0.11,0.29-0.15,0.53-0.12,0.72
		c0.09,0,0.13,0.05,0.09,0.14c-0.07,0.19,0.02,0.48,0.26,0.87c0.19,0,0.25,0.1,0.18,0.29l-0.11,0.29c-0.1,0-0.49,0.14-1.17,0.43
		C126.61,108.37,126.52,108.37,126.52,108.37z M126.59,95.88c0.11-0.05,0.19-0.12,0.22-0.22c0.13-0.1,0.17-0.19,0.11-0.29
		c-0.06-0.09-0.05-0.26,0.04-0.5c0.09-0.24,0.12-0.46,0.09-0.65c0.03-0.09,0.28-0.24,0.73-0.43c0.29,0,0.49,0.1,0.62,0.29
		c0.06,0.1,0.07,0.22,0.01,0.36c-0.05,0.14-0.05,0.27,0.01,0.36c-0.17,0.19-0.34,0.34-0.52,0.43c-0.18,0.1-0.35,0.24-0.52,0.43
		c-0.07,0.19-0.2,0.29-0.39,0.29l-0.49,0.14C126.44,96,126.47,95.93,126.59,95.88z M130.89,81.67c0.3-0.29,0.39-0.67,0.28-1.15
		c-0.15-0.38-0.01-0.62,0.41-0.72c0.23-0.09,0.53-0.14,0.92-0.14h0.29l0.24,0.14l-0.39,0.29c-0.13,0.1-0.17,0.19-0.11,0.29
		c0.16,0.1,0.17,0.19,0.04,0.29c-0.07,0.19-0.22,0.34-0.45,0.43h-0.14c-0.46,0.19-0.69,0.43-0.7,0.72l-0.34,0.14L130.89,81.67z
		 M132.18,78.13c-0.21,0.05-0.36,0.07-0.46,0.07l0.7-0.72c0.16-0.19,0.34-0.29,0.54-0.29l0.42,0.43c0.29,0,0.46,0.05,0.52,0.14
		l0.04,0.29c-0.58,0-1,0.1-1.26,0.29C132.56,78.15,132.39,78.08,132.18,78.13z M133.74,72.86c-0.11-0.09-0.24-0.19-0.4-0.29
		c0.36-0.19,0.78-0.29,1.26-0.29l0.09,0.14c-0.13,0.1-0.18,0.17-0.15,0.22c0.03,0.05,0.03,0.12-0.01,0.22
		c-0.04,0.1-0.15,0.14-0.34,0.14C134,73.01,133.85,72.96,133.74,72.86z M146.38,103.75c0,0,0.03-0.09,0.11-0.29
		c0.07-0.19,0.3-0.58,0.71-1.15c-0.1,0-0.22,0-0.36,0c-0.14,0-0.25,0.1-0.32,0.29c-0.04,0.1-0.08,0.1-0.14,0
		c-0.16-0.1-0.31-0.07-0.46,0.07c-0.15,0.15-0.29,0.27-0.42,0.36c-0.53,0.39-0.62,0.77-0.28,1.16l0.18,0.29
		C146.05,103.99,146.38,103.75,146.38,103.75z M146.11,102.3c0.05,0,0.09-0.05,0.12-0.14c0.13-0.09,0.29-0.22,0.49-0.36
		c0.2-0.14,0.39-0.22,0.58-0.22l0.2-0.14c0.03-0.1,0.02-0.19-0.04-0.29c-0.06-0.09-0.16-0.09-0.29,0c-0.19,0-0.42,0.1-0.68,0.29
		c-0.27,0.19-0.45,0.43-0.55,0.72c0.09,0,0.13,0.05,0.09,0.14C146.04,102.3,146.06,102.3,146.11,102.3z M149.44,99.71
		c0.03-0.09-0.09-0.14-0.38-0.14c-0.07,0.19-0.08,0.34-0.01,0.43c0.06,0.1,0.24,0.14,0.52,0.14L149.44,99.71z M152.65,46.88
		c0.03-0.09,0.08-0.14,0.12-0.14c0.05,0,0.05,0.05,0.02,0.14l-0.05,0.14c-0.13,0.1-0.25,0.14-0.34,0.14c-0.1,0-0.19,0-0.29,0
		C152.37,46.98,152.55,46.88,152.65,46.88z M152.9,46.59c-0.19,0-0.36-0.19-0.51-0.58c0.26-0.19,0.52-0.24,0.77-0.14
		c0.12,0.19,0.33,0.29,0.62,0.29C153.38,46.45,153.09,46.59,152.9,46.59z M153.32,45.44c0,0,0.03-0.09,0.11-0.29l0.05-0.15
		c0.13-0.09,0.21-0.12,0.24-0.07c0.03,0.05,0.09,0.07,0.19,0.07l0.09,0.15l-0.39,0.29C153.41,45.44,153.32,45.44,153.32,45.44z
		 M156.88,43.56l-0.18-0.29c-0.06-0.09-0.16-0.09-0.29,0c-0.07,0.19-0.06,0.29,0.04,0.29H156.88z M171.89,51.5
		c-0.23,0.1-0.36,0.19-0.39,0.29c-0.04,0.1,0.01,0.24,0.13,0.43L171.89,51.5z M184.69,39.52c-0.05,0-0.05-0.05-0.02-0.14l0.01-0.43
		c0.03-0.09,0.04-0.17,0.01-0.22c-0.03-0.05,0-0.07,0.1-0.07c0.13-0.09,0.24,0,0.33,0.29l-0.11,0.29l-0.05,0.15
		c-0.04,0.1-0.1,0.14-0.2,0.14C184.77,39.52,184.74,39.52,184.69,39.52z"/>
	<path fill="#FFFFFF" d="M207.38,127.27c0,0-0.25-0.1-0.76-0.29c-0.25-0.1-0.58-0.19-0.98-0.29c-0.4-0.1-0.88-0.14-1.46-0.14
		c-0.67,0-1.25-0.14-1.72-0.43c-0.57-0.29-1.46-0.63-2.66-1.01h-0.87c-0.39,0-0.64-0.1-0.76-0.29c-0.49-0.77-0.75-1.25-0.77-1.44
		l-0.04-0.29c-0.35-0.1-0.61-0.24-0.78-0.43c-0.17-0.19-0.33-0.34-0.49-0.43c0.04-0.1,0-0.15-0.09-0.15
		c-0.16-0.1-0.39-0.38-0.69-0.87l-0.83-1.3c-0.22-0.19-0.54-0.62-0.97-1.3l-0.18-0.29c0.03-0.09,0.08-0.22,0.13-0.36
		c0.05-0.14,0.14-0.26,0.28-0.36c0.39-0.29,0.48-0.53,0.26-0.72c-0.35-0.1-0.36-0.34-0.03-0.72c0.11-0.29,0.11-0.43,0.01-0.43
		c-0.12-0.19-0.1-0.53,0.08-1.01l0.28-1.16c0.16-0.19,0.19-0.38,0.06-0.58c0.01-0.29,0.19-0.53,0.55-0.72
		c0.26-0.19,0.33-0.38,0.21-0.58c-0.31-0.48-0.11-1.15,0.59-2.02c0.09,0,0.16-0.05,0.2-0.14c0.47-0.77,1.52-1.54,3.15-2.31
		l0.73-0.43l1.33-0.87l0.45-0.43c0.07-0.19,0.37-0.48,0.89-0.87l1.52-1.01c0.13-0.09,0.29-0.22,0.49-0.36
		c0.2-0.14,0.39-0.22,0.58-0.22c0.09,0,0.21-0.05,0.34-0.14c0.13-0.09,0.21-0.19,0.25-0.29c0.37-0.48,0.84-0.87,1.43-1.15
		c0.03-0.1,0.08-0.17,0.15-0.22c0.06-0.05,0.16-0.12,0.29-0.22c0.42-0.1,0.9-0.29,1.44-0.58c0.54-0.29,0.97-0.48,1.29-0.58
		l0.34-0.14c0.23-0.38,0.59-0.58,1.08-0.58c0.41,0.19,0.7,0.05,0.88-0.43l0.2-0.14c0.48,0,0.79-0.19,0.93-0.58h0.14
		c0.16,0.1,0.38,0.07,0.68-0.07c0.29-0.14,0.53-0.22,0.73-0.22c-0.04,0.1-0.01,0.15,0.09,0.15c-0.01,0.29,0.06,0.43,0.2,0.43
		s0.38-0.05,0.7-0.14c0.07-0.19-0.04-0.29-0.33-0.29c0.03-0.09,0.1-0.15,0.2-0.15c0.23-0.09,0.42-0.09,0.58,0
		c0.16,0.1,0.33,0.15,0.52,0.15c0.09,0,0.18,0.02,0.26,0.07c0.08,0.05,0.18,0.03,0.31-0.07c0.09,0,0.27-0.02,0.53-0.07
		c0.26-0.05,0.42-0.02,0.48,0.07c0.12,0.19,0.36,0.19,0.72,0c0.07-0.19,0.2-0.29,0.39-0.29c0.38,0,0.68-0.14,0.88-0.43
		c0.09,0,0.24,0.07,0.43,0.22c0.19,0.15,0.41,0.12,0.68-0.07h0.43c0.45,0.1,0.96,0,1.55-0.29c0.26-0.19,0.63-0.34,1.1-0.43
		c0.47-0.09,0.86-0.19,1.19-0.29l0.52,0.14h0.29h0.58c0.19,0,0.46,0,0.79,0c0.34,0,0.67-0.05,0.99-0.14h0.29
		c0.35,0.1,0.6-0.05,0.74-0.43c-0.12-0.19-0.13-0.43-0.03-0.72l0.2-0.14c0.74-0.19,1.23-0.48,1.47-0.87c0.04-0.09,0.1-0.14,0.2-0.14
		c0.42-0.09,0.7-0.34,0.84-0.72c-0.03-0.19,0.03-0.41,0.16-0.65c0.13-0.24,0.22-0.41,0.26-0.5c-0.06-0.09-0.03-0.19,0.11-0.29
		c0.13-0.09,0.3-0.24,0.52-0.43c0.21-0.19,0.29-0.34,0.23-0.43l0.25-0.29c0.58-0.29,1.11-0.82,1.59-1.59
		c0.1-0.29,0.22-0.48,0.35-0.58c0.16-0.19,0.32-0.41,0.45-0.65c0.13-0.24,0.33-0.46,0.6-0.65c0.26-0.19,0.4-0.43,0.41-0.72
		c-0.03-0.19,0.13-0.48,0.46-0.87l0.25-0.29c0.13-0.09,0.21-0.24,0.23-0.43c0.02-0.19,0.1-0.34,0.23-0.43
		c0.23-0.09,0.37-0.22,0.42-0.36s0.1-0.26,0.13-0.36c0.13-0.09,0.27-0.34,0.41-0.72c0.21-0.58,0.43-1.06,0.67-1.44
		c0.2-0.29,0.43-0.65,0.68-1.08c0.25-0.43,0.49-0.94,0.7-1.52c0.1-0.29,0.22-0.48,0.35-0.58c0.13-0.09,0.27-0.34,0.41-0.72
		c-0.03-0.19,0.09-0.38,0.35-0.58c0.16-0.19,0.32-0.48,0.46-0.87c-0.06-0.09-0.05-0.19,0.03-0.29c0.08-0.09,0.09-0.19,0.03-0.29
		c-0.06-0.09-0.04-0.17,0.08-0.22c0.11-0.05,0.19-0.12,0.22-0.22c0.11-0.29,0.13-0.48,0.07-0.58c-0.03-0.19,0.02-0.38,0.14-0.58
		c0.12-0.19,0.16-0.38,0.14-0.58c-0.03-0.19,0.09-0.38,0.35-0.58c0.16-0.19,0.27-0.34,0.3-0.43c0.04-0.09,0.02-0.19-0.04-0.29
		c-0.06-0.09-0.04-0.29,0.07-0.58c0.4-0.58,0.64-0.96,0.71-1.15l-0.13-0.43l0.17-0.87c0.2-0.29,0.22-0.48,0.07-0.58
		c-0.19,0-0.22-0.05-0.09-0.15c0.13-0.09,0.13-0.24,0.01-0.43c-0.31-0.48-0.26-1.01,0.14-1.59c0.07-0.19,0.06-0.29-0.04-0.29
		c-0.1,0-0.2-0.05-0.31-0.14c-0.11-0.09-0.08-0.24,0.09-0.43l-0.28-0.43c-1.26-0.77-2.34-1.1-3.24-1.01h-1.01
		c-0.29,0-0.61,0.07-0.95,0.22c-0.34,0.14-0.66,0.22-0.95,0.22l-0.2,0.14c-0.2,0.29-0.66,0.63-1.38,1.01
		c-0.36,0.19-0.56,0.48-0.6,0.87c-0.07,0.19-0.25,0.29-0.54,0.29c-0.38,0-0.64,0.05-0.77,0.15c-0.1,0-0.18,0.1-0.25,0.29
		c-0.07,0.19-0.17,0.34-0.3,0.43l-0.1,0.29c0.06,0.1,0.01,0.29-0.14,0.58c-0.15,0.29-0.22,0.53-0.19,0.72l-0.01,0.43
		c-0.11,0.29-0.62,0.77-1.54,1.44c-0.1,0-0.16,0.05-0.2,0.15c-0.62,0.39-1.31,0.43-2.07,0.14l-0.24-0.14
		c-0.39,0-0.67-0.15-0.85-0.43c-0.1,0-0.19-0.07-0.28-0.22c-0.09-0.14-0.21-0.17-0.33-0.07c-0.19,0-0.25-0.09-0.18-0.29
		c0.11-0.29,0.01-0.43-0.27-0.43c-0.1,0-0.19-0.14-0.28-0.43l-0.73-1.15c-0.12-0.19-0.08-0.43,0.12-0.72
		c0.13-0.1,0.15-0.15,0.05-0.15c-0.22-0.19-0.37-0.43-0.46-0.72c-0.09-0.29-0.24-0.53-0.46-0.72c-0.32-0.19-0.49-0.62-0.54-1.3
		c0.03-0.09,0.03-0.22-0.01-0.36c-0.04-0.14-0.18-0.17-0.41-0.07c-0.51-0.19-0.62-0.67-0.34-1.44c0.28-0.77,0.31-1.39,0.11-1.88
		c-0.12-0.19-0.15-0.38-0.08-0.58c0.07-0.19,0.23-0.38,0.5-0.58c0.17-0.19,0.24-0.34,0.23-0.43c-0.01-0.09,0-0.19,0.03-0.29
		c-0.12-0.19-0.08-0.58,0.13-1.15l0.99-2.31c-0.06-0.09-0.05-0.19,0.03-0.29c0.08-0.1,0.08-0.15-0.02-0.15
		c0.11-0.58,0.29-1.06,0.53-1.44c0.16-0.19,0.26-0.38,0.28-0.58c0.02-0.19,0.12-0.38,0.28-0.58c0.1-0.29,0.21-0.43,0.3-0.43
		c0.26-0.19,0.5-0.46,0.72-0.79c0.22-0.34,0.35-0.55,0.38-0.65c0.23-0.38,0.59-0.58,1.08-0.58c0.48,0,1.14-0.09,1.98-0.29
		c0.32-0.09,0.77-0.14,1.35-0.14s1.05-0.09,1.4-0.29c0.2-0.29,0.39-0.29,0.58,0l0.18,0.29l0.59-0.43c0.2-0.29,0.49-0.43,0.88-0.43
		c0.48,0,1.06-0.14,1.75-0.43h0.14c0.3-0.29,0.64-0.43,1.02-0.43c0.38,0,0.69-0.05,0.92-0.14c0.13-0.1,0.34-0.15,0.63-0.15
		c0.06,0.1,0.19,0.15,0.38,0.15c0.19,0,0.32,0.05,0.38,0.14c0.19,0,0.31-0.05,0.34-0.14l0.05-0.15l0.05-0.14
		c-0.26,0.19-0.49,0.14-0.67-0.14c-0.12-0.19-0.17-0.34-0.13-0.43c0.13-0.09,0.3-0.22,0.49-0.36c0.2-0.15,0.37-0.17,0.53-0.07
		c0.19,0,0.25,0.1,0.18,0.29c-0.07,0.19-0.08,0.34-0.01,0.43c0.09,0,0.25-0.02,0.46-0.07c0.21-0.05,0.33-0.12,0.37-0.22l0.45-0.43
		c0.07-0.19,0.05-0.29-0.04-0.29h-0.29c-0.19,0-0.27-0.05-0.24-0.15l0.05-0.14c0.13-0.09,0.31-0.26,0.54-0.5
		c0.23-0.24,0.46-0.41,0.69-0.51c0.13-0.09,0.27-0.22,0.42-0.36c0.15-0.14,0.26-0.31,0.33-0.51c0.07-0.19,0.2-0.29,0.39-0.29
		l0.24,0.14c-0.01,0.29,0.12,0.34,0.38,0.14c0.04-0.09,0.08-0.17,0.15-0.22c0.07-0.05,0.07-0.12,0.01-0.22l0.16-0.43
		c0.14-0.38,0.07-0.58-0.22-0.58l-0.18-0.29c-0.09-0.29,0-0.53,0.26-0.72c0.1-0.29,0.22-0.48,0.35-0.58
		c0.03-0.09,0.14-0.19,0.32-0.29c0.18-0.09,0.3-0.09,0.36,0l0.28,0.43h0.14l0.11-0.29c-0.18-0.29-0.13-0.58,0.17-0.87
		c0.3-0.29,0.51-0.48,0.64-0.58l0.24,0.14c0.29,0,0.54-0.09,0.75-0.29c0.21-0.19,0.31-0.38,0.28-0.58c0.11-0.29,0.14-0.53,0.12-0.72
		c-0.12-0.19-0.02-0.48,0.32-0.87c0.33-0.38,0.45-0.72,0.37-1.01l0.1-0.29l0.11-0.29c0.1-0.29,0.13-0.55,0.07-0.79
		c-0.06-0.24-0.03-0.5,0.07-0.79l-0.07-1.01l0.1-0.29c-0.32-0.19-0.4-0.48-0.26-0.87c0.14-0.38,0.23-0.62,0.26-0.72l0.08-1.01
		c0.14-0.38,0.03-0.62-0.31-0.72c-0.19,0-0.27-0.05-0.24-0.15c0.03-0.09,0.01-0.22-0.09-0.36c-0.09-0.14-0.07-0.26,0.06-0.36
		c0.17-0.48,0.5-0.72,0.98-0.72c-0.06-0.09-0.07-0.22-0.01-0.36c0.05-0.15,0.05-0.26-0.01-0.36c-0.03-0.19,0.03-0.34,0.16-0.43
		l0.05-0.15c-0.14-0.67-0.27-1.1-0.39-1.3c-0.06-0.09-0.17-0.14-0.31-0.14s-0.3,0.1-0.46,0.29c-0.26,0.19-0.43,0.24-0.49,0.14
		c-0.29,0-0.52,0.1-0.68,0.29c0.1,0,0.2,0.05,0.31,0.14c0.11,0.1,0.26,0.14,0.45,0.14c0.19,0,0.24,0.14,0.13,0.43
		c-0.07,0.19-0.2,0.36-0.4,0.51c-0.2,0.14-0.42,0.17-0.68,0.07c-0.19,0-0.34-0.05-0.45-0.14c-0.11-0.09-0.2-0.19-0.26-0.29
		c-0.06-0.1-0.05-0.19,0.03-0.29c0.08-0.09,0.09-0.19,0.03-0.29c-0.1,0-0.08-0.05,0.05-0.14c0.13-0.09,0.24-0.14,0.34-0.14
		c0.09,0,0.16-0.05,0.2-0.14c0.01-0.29-0.13-0.43-0.42-0.43c-0.12-0.19-0.25-0.24-0.38-0.14l0.11-0.29c0.03-0.09,0.08-0.09,0.14,0
		c0.09,0,0.19,0,0.29,0c0.09,0,0.21-0.05,0.34-0.14c0.07-0.19,0.04-0.38-0.08-0.58h-0.29c-0.13,0.1-0.18,0.1-0.14,0l-0.18-0.29
		c-0.29,0-0.48-0.14-0.56-0.43c0.03-0.09-0.04-0.14-0.24-0.14c-0.16-0.09-0.32-0.05-0.49,0.14c-0.07,0.19-0.14,0.24-0.2,0.15
		c-0.12-0.19-0.22-0.19-0.29,0c-0.17,0.19-0.23,0.36-0.18,0.5c0.04,0.14,0.16,0.22,0.35,0.22c0.48,0,0.84,0.19,1.09,0.58l0.33,0.29
		c-0.17,0.19-0.37,0.36-0.62,0.5c-0.25,0.14-0.4,0.31-0.47,0.5l-0.24-0.14c-0.15-0.38-0.69-0.48-1.63-0.29
		c-0.19,0-0.32-0.05-0.38-0.15c-0.06-0.09-0.14-0.14-0.24-0.14c-0.1,0-0.19,0-0.29,0c-0.29,0-0.47-0.05-0.53-0.14
		c-0.1,0-0.13-0.05-0.09-0.14c-0.11-0.77-0.45-1.16-1.02-1.16c-0.06-0.09-0.11-0.09-0.14,0c-0.17,0.19-0.31,0.27-0.44,0.22
		c-0.13-0.05-0.24-0.07-0.33-0.07c-0.48,0-0.85,0.1-1.12,0.29h-0.29c-0.03-0.19-0.11-0.29-0.25-0.29c-0.14,0-0.25-0.05-0.31-0.15
		c-0.32-0.19-0.59-0.24-0.81-0.14l-0.38-0.14c-0.1,0-0.19-0.02-0.26-0.07c-0.08-0.05-0.18-0.02-0.31,0.07l-0.2,0.14
		c-0.42,0.1-0.73,0.29-0.93,0.58c-0.25-0.38-0.5-0.62-0.75-0.72c-0.1,0-0.11-0.09-0.04-0.29l-0.24-0.14
		c-0.39,0.29-0.72,0.39-0.97,0.29l-0.39,0.29l0.05-0.14c-0.1,0-0.18-0.05-0.24-0.14c-0.06-0.1-0.14-0.15-0.24-0.15
		c0.17-0.19,0.25-0.36,0.26-0.5c0-0.14,0.02-0.26,0.06-0.36c0.07-0.19,0.17-0.34,0.3-0.43l0.34-0.14c0.07-0.19,0.16-0.31,0.28-0.36
		c0.11-0.05,0.25-0.02,0.41,0.07c0.51,0.19,0.69,0.48,0.55,0.87c-0.03,0.1,0.02,0.14,0.17,0.14s0.28-0.05,0.41-0.14
		c0.19,0,0.32-0.1,0.39-0.29c0.2-0.29,0.46-0.34,0.77-0.14c0.06,0.1,0.14,0,0.25-0.29c0.03-0.09,0.18-0.24,0.45-0.43
		c0.09,0,0.19,0.07,0.28,0.22c0.09,0.15,0.2,0.17,0.33,0.07l0.1-0.29c0.1-0.29,0.07-0.72-0.1-1.3c-0.59,0.29-0.95,0.48-1.08,0.58
		c-0.04,0.1-0.08,0.14-0.12,0.14c-0.05,0-0.05-0.05-0.02-0.14c-0.12-0.19-0.36-0.19-0.72,0c-0.13,0.1-0.32,0.14-0.56,0.14
		c-0.24,0-0.44-0.05-0.6-0.14h-0.87h-0.14c-0.1,0-0.2,0.07-0.3,0.22c-0.1,0.14-0.2,0.22-0.29,0.22c-0.16-0.09-0.38-0.14-0.67-0.14
		c-0.04,0.1-0.05,0.19-0.03,0.29c0.01,0.1-0.03,0.15-0.12,0.15c-0.13,0.1-0.23,0.24-0.3,0.43c-0.07,0.19-0.17,0.34-0.3,0.43
		c-0.31-0.48-0.9-0.43-1.78,0.14c-0.04,0.1-0.01,0.22,0.08,0.36c0.09,0.14,0.17,0.27,0.23,0.36c0.18,0.29,0.03,0.58-0.46,0.87
		c-0.39,0.29-0.58,0.53-0.55,0.72c0.06,0.1,0.05,0.19-0.03,0.29c-0.08,0.1-0.14,0.19-0.18,0.29c-0.17,0.19-0.14,0.39,0.08,0.58
		c0.12,0.19,0.12,0.34-0.01,0.43c-0.07,0.19-0.08,0.48-0.03,0.87c0.05,0.39-0.08,0.63-0.41,0.72l-0.1,0.29
		c0.02,0.19,0.02,0.48-0.03,0.87c-0.04,0.39,0.04,0.67,0.26,0.87l0.04,0.29L232,31.87l-0.71,1.15c-0.13,0.1-0.28,0.17-0.44,0.22
		c-0.16,0.05-0.23,0.17-0.2,0.36c-0.04,0.1,0.14,0.14,0.52,0.14c-0.04,0.1-0.04,0.17-0.01,0.22c0.03,0.05-0.02,0.12-0.15,0.22
		c-0.46,0.19-0.59,0.43-0.41,0.72c-0.13,0.1-0.26,0.24-0.38,0.43c-0.12,0.19-0.24,0.34-0.37,0.43c-0.13,0.1-0.23,0.24-0.3,0.43
		c-0.07,0.19,0.05,0.53,0.35,1.01c0.02,0.48-0.06,0.82-0.22,1.01l-0.05,0.14c-0.42,0.1-0.6,0.27-0.54,0.5
		c0.06,0.24,0.07,0.41,0.03,0.51c0.09,0,0.13,0.05,0.09,0.14c0.16,0.1,0.04,0.29-0.35,0.58c-0.23,0.1-0.35,0.29-0.36,0.58
		c-0.04,0.1-0.08,0.22-0.13,0.36c-0.05,0.15-0.07,0.31-0.04,0.51c0.19,0,0.16,0.1-0.11,0.29c-0.13,0.1-0.28,0.24-0.45,0.43
		c-0.17,0.19-0.32,0.34-0.45,0.43c-0.33,0.39-0.39,0.67-0.17,0.87l0.24,0.14c0.22,0.19,0.23,0.43,0.03,0.72l-0.05,0.15
		c-0.57,0.77-0.75,1.4-0.54,1.88c0.05,0.39,0.06,0.63,0.03,0.72c-0.13,0.1-0.16,0.29-0.07,0.58c-0.04,0.1-0.05,0.19-0.03,0.29
		c0.01,0.1-0.05,0.19-0.18,0.29c-0.13,0.1-0.15,0.29-0.07,0.58c0.16,0.1,0.09,0.29-0.21,0.58c-0.17,0.19-0.3,0.43-0.41,0.72
		c-0.1,0.29-0.28,0.58-0.53,0.87c-0.25,0.29-0.39,0.48-0.43,0.58c-0.07,0.19-0.28,0.39-0.64,0.58c-0.36,0.19-0.45,0.43-0.26,0.72
		c-0.04,0.1,0.01,0.24,0.13,0.43c0.24,0.39,0.09,0.67-0.46,0.87l-0.68,0.29c-0.33,0.1-0.39,0.29-0.21,0.58l0.71,0.43
		c-0.26,0.19-0.47,0.43-0.62,0.72c-0.16,0.29-0.32,0.53-0.48,0.72c-0.2,0.29-0.31,0.58-0.32,0.87c-0.02,0.58-0.22,1.01-0.62,1.3
		c-0.17,0.19-0.25,0.43-0.26,0.72c0.09,0.29-0.01,0.82-0.29,1.59c-0.3,0.29-0.42,0.63-0.37,1.01c-0.04,0.1-0.1,0.14-0.2,0.14
		c-0.29,0-0.66,0.1-1.11,0.29c-0.13,0.1-0.18,0.17-0.15,0.22c0.03,0.05,0.03,0.12-0.01,0.22c-0.07,0.19-0.17,0.34-0.3,0.43
		c-0.43,0.39-0.49,0.82-0.18,1.3c0.12,0.19,0.1,0.53-0.08,1.01c-0.04,0.1-0.15,0.27-0.33,0.5c-0.18,0.24-0.42,0.36-0.71,0.36
		c-0.36,0.19-0.53,0.39-0.5,0.58l-0.16,0.43c-0.07,0.19-0.2,0.29-0.39,0.29c-0.29,0-0.5,0.05-0.63,0.14
		c-0.39,0.29-0.57,0.63-0.51,1.01l0.06,1.01c-0.07,0.19,0.02,0.48,0.26,0.87c-0.27,0.19-0.48,0.31-0.64,0.36
		c-0.16,0.05-0.29,0.07-0.39,0.07c-0.32,0.1-0.43,0.24-0.3,0.43c0.24,0.39,0.09,0.82-0.47,1.3l-0.66,1.01
		c-0.14,0.39-0.41,0.72-0.8,1.01c-0.27,0.19-0.36,0.34-0.3,0.43c0.02,0.19-0.09,0.39-0.35,0.58c-0.07,0.19-0.2,0.29-0.39,0.29
		c-0.04,0.1-0.11,0.17-0.22,0.22c-0.11,0.05-0.2,0.03-0.26-0.07c-0.04,0.1-0.16,0.17-0.37,0.22c-0.21,0.05-0.38,0.12-0.51,0.22
		c-0.17,0.19-0.3,0.29-0.39,0.29c-0.1,0-0.21,0.05-0.34,0.14c0.05,0.39-0.11,0.82-0.47,1.3c-0.33,0.39-0.42,0.77-0.28,1.16
		c0.06,0.1-0.04,0.24-0.3,0.43c-0.42,0.1-0.66,0.22-0.71,0.36c-0.05,0.14-0.08,0.36-0.09,0.65c-0.04,0.1,0,0.15,0.09,0.15
		c0.02,0.19-0.01,0.36-0.11,0.5c-0.1,0.14-0.28,0.31-0.54,0.5c-0.13,0.1-0.27,0.22-0.42,0.36c-0.15,0.14-0.29,0.27-0.42,0.36
		c-0.13,0.1-0.19,0.19-0.18,0.29c0.01,0.1,0,0.19-0.03,0.29c-0.04,0.1,0.03,0.12,0.19,0.07c0.16-0.05,0.27-0.02,0.33,0.07
		c-0.13,0.1-0.27,0.22-0.42,0.36c-0.15,0.14-0.27,0.22-0.37,0.22c-0.1,0-0.19,0.05-0.27,0.14c-0.08,0.1-0.08,0.14,0.02,0.14
		c0.35,0.1,0.44,0.38,0.26,0.87c-0.17,0.19-0.22,0.41-0.17,0.65c0.06,0.24,0.07,0.41,0.03,0.51c0.12,0.19,0.02,0.34-0.3,0.43
		c-0.13,0.1-0.34,0.15-0.63,0.15l-0.63,0.14c-0.26,0.19-0.36,0.34-0.3,0.43c0.02,0.19-0.04,0.43-0.19,0.72
		c-0.16,0.29-0.27,0.53-0.34,0.72c-0.14,0.39-0.13,0.63,0.03,0.72l0.47,0.29c0.06,0.1,0.06,0.24-0.01,0.43
		c-0.07,0.19-0.2,0.29-0.39,0.29h-0.29c-0.42,0.1-0.72,0.39-0.89,0.87l-0.47,1.3l-0.88,2.02l-0.25,0.29c-0.59,0.29-0.92,0.67-1,1.15
		c-0.04,0.1-0.2,0.15-0.49,0.15l-0.47-0.29c-0.19,0-0.36,0.05-0.48,0.14l-0.3,0.43c-0.26,0.19-0.42,0.36-0.47,0.51
		c-0.05,0.14-0.02,0.31,0.1,0.5l-0.21,0.58c-0.43,0.38-0.67,0.92-0.72,1.59c-0.14,0.39-0.33,0.63-0.55,0.72
		c-0.17,0.19-0.53,0.67-1.1,1.44l-0.64,0.58l-0.39,0.29c-0.46,0.19-0.64,0.43-0.55,0.72c0.06,0.1,0.06,0.24-0.01,0.43
		c-0.04,0.1-0.02,0.19,0.04,0.29c0.06,0.1,0.02,0.19-0.1,0.29c-0.26,0.19-0.44,0.29-0.54,0.29c-0.71,0.1-1.11,0.53-1.19,1.3
		c-0.04,0.1-0.06,0.22-0.06,0.36c-0.01,0.15-0.11,0.36-0.31,0.65l-0.67-0.14c-0.29,0-0.47,0.1-0.54,0.29
		c-0.04,0.1-0.13,0.22-0.28,0.36c-0.15,0.15-0.32,0.22-0.51,0.22c-0.27,0.19-0.37,0.34-0.3,0.43c0.18,0.29,0.17,0.72-0.04,1.3
		c-0.14,0.39-0.44,0.67-0.89,0.87c-0.19,0-0.55,0.2-1.08,0.58l-0.34,0.15c-0.1,0-0.09-0.15,0.01-0.43l0.05-0.14
		c0.3-0.29,0.38-0.53,0.26-0.72c0.07-0.19,0.01-0.29-0.18-0.29c-0.1,0-0.16,0.05-0.2,0.14c-0.17,0.19-0.33,0.24-0.49,0.14
		c-0.19,0-0.32,0.1-0.39,0.29c-0.25,0.67-0.78,1.2-1.59,1.59c-0.26,0.19-0.68,0.29-1.26,0.29c-0.19,0-0.22-0.19-0.08-0.58
		c0.07-0.19,0.15-0.48,0.24-0.87c0.09-0.38,0.24-0.72,0.44-1.01c0.14-0.38,0.13-0.62-0.03-0.72c-0.1,0-0.16-0.02-0.19-0.07
		c-0.03-0.05,0.02-0.12,0.15-0.22c0.2-0.29,0.29-0.67,0.28-1.16c0.03-0.09,0.05-0.26,0.04-0.5c-0.01-0.24,0.07-0.46,0.24-0.65
		l0.05-0.14c-0.03-0.19,0.03-0.48,0.17-0.87c0.14-0.38,0.19-0.67,0.17-0.87c0.03-0.09,0.11-0.29,0.21-0.58
		c0.11-0.29,0.22-0.48,0.36-0.58l0.05-0.15h-0.14c-0.13,0.1-0.23,0.1-0.29,0c-0.06-0.09-0.07-0.19-0.04-0.29l0.11-0.29
		c0.14-0.38,0.08-0.62-0.17-0.72c-0.19,0-0.2-0.24-0.03-0.72c0.09-0.77,0.27-1.39,0.54-1.88c0.13-0.09,0.2-0.22,0.2-0.36
		c0-0.14,0.02-0.26,0.06-0.36c-0.03-0.19-0.03-0.46,0-0.79c0.03-0.34,0.08-0.6,0.15-0.79c-0.12-0.19-0.09-0.29,0.11-0.29
		c0.33-0.38,0.39-0.67,0.17-0.87c-0.1,0-0.09-0.15,0.01-0.43c0.33-0.38,0.37-0.62,0.12-0.72c-0.18-0.29-0.13-0.58,0.17-0.87
		c0.23-0.38,0.38-0.72,0.44-1.01c0.06-0.29,0.14-0.58,0.24-0.87l0.11-0.29c0.2-0.29,0.29-0.53,0.26-0.72
		c-0.09-0.29,0-0.53,0.26-0.72c0.2-0.29,0.31-0.6,0.34-0.94c0.03-0.34,0.14-0.65,0.34-0.94c0.07-0.19,0.07-0.34,0.01-0.43
		c-0.09-0.29,0-0.53,0.26-0.72c0.4-0.58,0.61-1.15,0.63-1.73l0.41-0.72c0.07-0.19,0.14-0.46,0.22-0.79c0.07-0.34,0.19-0.6,0.36-0.79
		l0.05-0.14c-0.03-0.19,0.05-0.41,0.24-0.65c0.18-0.24,0.31-0.46,0.38-0.65c0.07-0.19,0.06-0.29-0.04-0.29
		c-0.06-0.09-0.06-0.24,0.01-0.43c0.17-0.19,0.21-0.58,0.13-1.16l0.07-0.58c0.33-0.38,0.52-0.91,0.58-1.59l0.26-0.72
		c0.25-0.67,0.49-1.2,0.72-1.59c0.03-0.09,0.09-0.19,0.18-0.29c0.08-0.09,0.09-0.19,0.03-0.29c0.11-0.29,0.22-0.55,0.36-0.79
		c0.13-0.24,0.19-0.46,0.16-0.65c0.2-0.29,0.39-0.67,0.56-1.15c0.17-0.48,0.36-0.87,0.56-1.15c0.17-0.19,0.3-0.43,0.41-0.72
		c0.1-0.29,0.24-0.53,0.41-0.72c0.13-0.09,0.16-0.19,0.1-0.29c0.08-0.48,0.22-0.94,0.43-1.37c0.21-0.43,0.36-0.79,0.47-1.08
		l0.16-0.43l0.25-0.29c-0.03-0.19,0.01-0.43,0.12-0.72l0.56-1.15c0.35-0.96,0.56-1.68,0.64-2.17c0.33-0.38,0.56-1.01,0.68-1.88
		c-0.06-0.09-0.03-0.19,0.11-0.29c0.13-0.09,0.18-0.24,0.16-0.43c0.26-0.19,0.4-0.38,0.43-0.58c0.02-0.19,0.05-0.34,0.09-0.43
		c-0.06-0.09-0.06-0.17,0.01-0.22c0.07-0.05,0.12-0.12,0.15-0.22c0.07-0.19,0.27-0.55,0.61-1.08c0.34-0.53,0.53-0.99,0.57-1.37
		l0.41-0.72c-0.06-0.09-0.02-0.22,0.13-0.36c0.15-0.14,0.24-0.26,0.28-0.36c-0.06-0.09-0.01-0.24,0.16-0.43
		c0.16-0.19,0.23-0.38,0.21-0.58c-0.03-0.19,0.03-0.34,0.16-0.43c0.3-0.58,0.51-1.08,0.62-1.51c0.11-0.43,0.22-0.79,0.32-1.08
		l0.62-1.3c-0.03-0.19,0.04-0.38,0.21-0.58c0.16-0.19,0.28-0.38,0.35-0.58c0.47-0.77,0.78-1.35,0.92-1.73
		c0.03-0.1,0.05-0.22,0.06-0.36c0-0.14,0.07-0.26,0.2-0.36c0.26-0.19,0.31-0.34,0.16-0.43c-0.12-0.19-0.05-0.38,0.21-0.58
		c0.13-0.09,0.21-0.24,0.23-0.43c0.02-0.19,0.1-0.34,0.23-0.43l0.16-0.43c0.03-0.09,0.09-0.31,0.16-0.65
		c0.07-0.34,0.24-0.6,0.51-0.79c0.01-0.29,0.1-0.6,0.27-0.94c0.17-0.34,0.27-0.55,0.31-0.65c0.46-1.25,0.85-2.21,1.2-2.89l0.16-0.43
		c0.33-0.38,0.48-0.67,0.46-0.87c-0.03-0.19,0.03-0.34,0.16-0.43c0.16-0.19,0.3-0.5,0.41-0.94s0.26-0.79,0.47-1.08l0.16-0.43
		c0.07-0.19,0.23-0.51,0.49-0.94c0.25-0.43,0.37-0.74,0.34-0.94c-0.03-0.19,0.04-0.38,0.21-0.58c0.16-0.19,0.27-0.34,0.3-0.43
		c0.34-0.67,0.76-1.68,1.25-3.03c0.35-0.96,0.66-1.68,0.93-2.17c0.17-0.48,0.25-0.82,0.22-1.01c0.14-0.38,0.07-0.58-0.22-0.58
		c-0.19,0-0.34-0.05-0.45-0.15c-0.11-0.09-0.13-0.24-0.06-0.43c0.01-0.29-0.08-0.43-0.27-0.43c-0.1,0-0.2,0.02-0.32,0.07
		c-0.12,0.05-0.2,0.02-0.26-0.07c0.04-0.09,0.22-0.34,0.55-0.72c0.07-0.19,0.17-0.19,0.29,0c0.06,0.1,0.15,0.12,0.26,0.07
		c0.11-0.05,0.14-0.12,0.08-0.22c0.07-0.19,0.17-0.34,0.3-0.43c0.2-0.29,0.22-0.48,0.07-0.58c-0.19,0-0.36,0.05-0.49,0.15l-0.3,0.43
		c-0.1,0-0.18-0.05-0.24-0.14l-0.24-0.14l-0.2,0.14c-0.2,0.29-0.5,0.58-0.89,0.87c-0.39,0.29-0.74,0.58-1.04,0.87
		c-0.43,0.39-0.82,0.53-1.17,0.43c-0.29,0-0.5,0.05-0.63,0.14c-0.13,0.1-0.25,0.1-0.36,0c-0.11-0.09-0.15-0.19-0.11-0.29
		c0.11-0.29,0.03-0.48-0.22-0.58c-0.7-0.19-1.19-0.58-1.46-1.15l0.07-0.58c0.46-0.48,0.95-0.77,1.47-0.87
		c0.84-0.19,2.17-0.67,3.99-1.44c0.49-0.29,0.93-0.5,1.32-0.65c0.39-0.14,0.76-0.31,1.12-0.5h0.58h0.87c0.09,0,0.18-0.02,0.24-0.07
		c0.06-0.05,0.05-0.07-0.05-0.07c0.17-0.48,0.13-0.77-0.12-0.87c-0.16-0.09-0.28-0.24-0.35-0.43c-0.07-0.19-0.14-0.34-0.2-0.43
		c0.01-0.29,0.11-0.58,0.32-0.87c0.57-0.77,1.32-1.39,2.27-1.88c0.32-0.09,0.82-0.14,1.5-0.14c0.48,0,0.88-0.05,1.21-0.14h0.87
		c0.25,0.1,0.46,0.12,0.62,0.07c0.16-0.05,0.29-0.07,0.39-0.07c0.45-0.19,0.83-0.29,1.12-0.29c0.1,0,0.24,0,0.43,0
		c0.19,0,0.35,0.1,0.47,0.29c0.12,0.19,0.42,0.29,0.91,0.29h0.58c0.7,0.19,1.21,0.39,1.52,0.58c0.06,0.1,0.2,0.12,0.41,0.07
		c0.21-0.05,0.34-0.02,0.41,0.07l0.71,0.43l0.96,0.15c0.16,0.1,0.31,0.19,0.47,0.29c0.16,0.1,0.38,0.15,0.67,0.15
		c0.19,0,0.71,0.29,1.56,0.87c0.06,0.1,0.2,0.24,0.42,0.43c0.22,0.19,0.49,0.24,0.81,0.14l0.24,0.15c0.12,0.19,0.33,0.29,0.62,0.29
		c0.29,0,0.48,0,0.58,0c0.13-0.09,0.32-0.14,0.56-0.14c0.24,0,0.47-0.05,0.7-0.14c0.26-0.19,0.44-0.15,0.52,0.14
		c0.16,0.1,0.38,0.14,0.67,0.14c0.32-0.09,0.55-0.12,0.68-0.07c0.13,0.05,0.24,0.07,0.34,0.07h2.02c0.58,0,0.99,0.05,1.25,0.14
		c0.06,0.1,0.25,0.1,0.58,0c0.55-0.19,0.96-0.14,1.25,0.15c0.12,0.19,0.35,0.24,0.67,0.14c0.19,0,0.34,0.05,0.45,0.14
		c0.11,0.1,0.19,0.19,0.26,0.29c0.34,0.39,0.78,0.63,1.32,0.72c0.16,0.1,0.32,0.12,0.48,0.07c0.16-0.05,0.32-0.02,0.48,0.07
		c0.29,0,0.54-0.05,0.77-0.14h0.58c0.6,0.19,1.13,0.19,1.59,0c0.19,0,0.32,0.05,0.38,0.14c0.51,0.19,0.91,0.29,1.19,0.29
		c0.09,0,0.37,0.05,0.81,0.14c0.44,0.1,0.71,0.29,0.8,0.58c0.19,0,0.37,0.1,0.54,0.29c0.17,0.19,0.37,0.24,0.6,0.14
		c0.19,0,0.38,0.14,0.56,0.43c0.12,0.19,0.33,0.29,0.62,0.29c0.19,0,0.29,0.05,0.31,0.15c0.01,0.1-0.02,0.24-0.08,0.43l0.04,0.29
		h0.43c0.29,0,0.44,0.1,0.47,0.29l0.09,0.14c0.38,0,0.8,0.19,1.23,0.58c0.31,0.19,0.62,0.29,0.9,0.29c0.09,0,0.27,0.19,0.51,0.58
		c0.12,0.19,0.33,0.29,0.62,0.29l0.96,0.14c0.51,0.19,0.75,0.43,0.75,0.72l0.22,0.58c0.12,0.19,0.17,0.34,0.13,0.43
		c-0.04,0.1,0.15,0.24,0.56,0.43c0.29,0,0.43,0.14,0.42,0.43c0.15,0.39,0.41,0.72,0.79,1.01l0.84,0.87l0.7,0.87l0.42,0.43
		c0.06,0.1,0.18,0.24,0.35,0.43c0.17,0.19,0.27,0.39,0.29,0.58l0.04,0.29c0.25,0.1,0.38,0.34,0.39,0.72c0,0.39,0.07,0.67,0.19,0.87
		c-0.07,0.19-0.06,0.29,0.04,0.29c0.16,0.1,0.24,0.39,0.26,0.87c-0.04,0.1,0.01,0.24,0.13,0.43c0.12,0.19,0.21,0.48,0.26,0.87
		c-0.02,0.58,0,0.92,0.07,1.01c0.06,0.1,0.04,0.22-0.06,0.36c-0.1,0.15-0.12,0.27-0.06,0.36c0.12,0.19,0.13,0.43,0.03,0.72
		l-0.07,0.58c0.05,0.39,0.04,0.67-0.03,0.87l0.04,0.29c0.18,0.29,0.02,0.87-0.49,1.73l-0.07,0.58c0.18,0.29,0.15,0.77-0.09,1.44
		c-0.05,0.67-0.33,1.15-0.81,1.44c-0.33,0.1-0.54,0.29-0.64,0.58c-0.1,0.29-0.13,0.48-0.07,0.58c0.06,0.1-0.02,0.19-0.25,0.29
		c-0.1,0-0.23,0.24-0.41,0.72c0.24,0.39,0.15,0.77-0.28,1.15l-0.3,0.43c-0.04,0.1-0.01,0.17,0.06,0.22
		c0.08,0.05,0.05,0.12-0.08,0.22l-0.59,0.43c-0.13,0.1-0.34,0.14-0.63,0.14c-0.2,0.29-0.21,0.43-0.01,0.43
		c0.06,0.1,0.06,0.24-0.01,0.43c-0.07,0.19-0.07,0.34-0.01,0.43c0.06,0.1-0.03,0.27-0.26,0.51c-0.23,0.24-0.44,0.36-0.64,0.36
		c-0.58,0-0.95,0.24-1.13,0.72l-0.64,0.58c-0.49,0.29-0.82,0.67-1,1.16c-0.04,0.1-0.18,0.24-0.45,0.43l-0.25,0.29
		c-0.16-0.09-0.33-0.07-0.53,0.07c-0.2,0.14-0.34,0.22-0.44,0.22c-0.2,0-0.42,0.1-0.68,0.29c-0.13,0.1-0.28,0.24-0.45,0.43
		c-0.17,0.19-0.33,0.24-0.49,0.14c-0.17,0.19-0.37,0.36-0.62,0.51c-0.25,0.14-0.45,0.31-0.62,0.5c-0.13,0.1-0.26,0.17-0.37,0.22
		c-0.12,0.05-0.21,0.17-0.28,0.36c-0.04,0.1-0.13,0.17-0.3,0.22c-0.16,0.05-0.31,0.12-0.44,0.22c-0.04,0.1-0.1,0.14-0.2,0.14
		c-0.1,0-0.21,0.05-0.34,0.15c-0.29,0-0.47,0.1-0.54,0.29l0.34-0.14c0.29,0,0.46,0.05,0.53,0.14l0.56,0.43
		c0.29,0,0.49,0.1,0.62,0.29c0.16,0.1,0.38,0.22,0.66,0.36c0.28,0.14,0.52,0.22,0.72,0.22c0.31,0.19,0.48,0.39,0.51,0.58
		c0.15,0.39,0.49,0.77,1.02,1.15l0.42,0.43l0.18,0.29c-0.12,0.58,0.1,0.92,0.64,1.01c0.41,0.19,0.58,0.39,0.51,0.58
		c0.09,0.29,0.2,0.58,0.33,0.87c0.13,0.29,0.25,0.58,0.33,0.87l0.37,0.58c0.09,0.29,0.16,0.48,0.22,0.58
		c0.06,0.1,0.04,0.22-0.06,0.36c-0.1,0.14-0.12,0.27-0.06,0.36c0.19,0,0.28,0.14,0.28,0.43l-0.07,0.58
		c-0.07,0.19,0.02,0.48,0.26,0.87c0.31,0.48,0.44,0.92,0.39,1.3l0.01,1.15c0.09,0.29-0.04,0.63-0.37,1.01
		c-0.07,0.19-0.15,0.34-0.23,0.43c-0.08,0.1-0.1,0.19-0.03,0.29l0.24,0.15c0.09,0,0.19,0.07,0.28,0.22
		c0.09,0.15,0.07,0.27-0.06,0.36c-0.07,0.19-0.12,0.39-0.14,0.58c-0.02,0.19-0.13,0.43-0.33,0.72c-0.26,0.19-0.28,0.39-0.07,0.58
		c0.06,0.1,0.04,0.29-0.07,0.58c-0.1,0.29-0.13,0.48-0.07,0.58c-0.01,0.29-0.13,0.48-0.35,0.58c-0.13,0.1-0.18,0.24-0.16,0.43
		c0.24,0.38,0.27,0.72,0.07,1.01c-0.07,0.19-0.08,0.48-0.03,0.87c0.06,0.1,0.06,0.17-0.01,0.22c-0.07,0.05-0.15,0.07-0.24,0.07
		c-0.13,0.1-0.18,0.17-0.15,0.22c0.03,0.05,0.09,0.07,0.19,0.07c0.19,0,0.25,0.1,0.18,0.29c-0.13,0.1-0.25,0.29-0.35,0.58
		l-0.13,1.16c-0.1,0.29-0.24,0.53-0.41,0.72l-0.5,0.58c-0.04,0.1-0.07,0.19-0.11,0.29c-0.04,0.1,0.02,0.19,0.18,0.29
		c0.16,0.1,0.18,0.29,0.08,0.58c-0.27,0.48-0.46,1.01-0.58,1.59c-0.11,0.29-0.15,0.53-0.12,0.72c0.02,0.19-0.15,0.53-0.51,1.01
		l-0.21,0.58l-0.37,1.01c-0.24,0.39-0.39,0.82-0.47,1.3c0.03,0.19-0.05,0.53-0.22,1.01l-0.11,0.29c-0.14,0.39,0.03,0.72,0.5,1.01
		c0.31,0.19,0.86,0.29,1.63,0.29h1.59c0.38,0,0.66-0.09,0.83-0.29c0.17-0.19,0.39-0.29,0.68-0.29c0.19,0,0.31-0.05,0.34-0.14
		c0.39-0.29,0.93-0.43,1.6-0.43h1.01c0.32-0.1,0.54-0.05,0.67,0.14c0.12,0.19,0.1,0.39-0.07,0.58l-1.5,1.73l-0.64,0.58
		c-0.27,0.48-0.67,0.77-1.18,0.87c-0.32,0.1-0.75,0.22-1.29,0.36c-0.54,0.14-0.93,0.17-1.18,0.07h-0.29
		c-0.49,0.29-1.12,0.43-1.89,0.43l-0.63,0.14l-2.61,0.43c-0.19,0-0.32,0.1-0.39,0.29c0.06,0.1-0.08,0.34-0.41,0.72
		c-0.2,0.29-0.43,0.65-0.68,1.08c-0.25,0.43-0.42,0.75-0.49,0.94c-0.11,0.29-0.23,0.48-0.35,0.58c-0.13,0.1-0.21,0.24-0.23,0.43
		c-0.02,0.2-0.1,0.34-0.23,0.43c-0.19,0-0.36,0.05-0.49,0.14c-0.26,0.2-0.36,0.34-0.3,0.43c0.02,0.19-0.14,0.39-0.5,0.58l-0.7,0.72
		c-0.4,0.58-0.77,0.91-1.09,1.01c-0.91,0.39-1.5,0.82-1.77,1.3c-0.04,0.1-0.25,0.29-0.64,0.58c-0.13,0.1-0.25,0.29-0.35,0.58
		c-0.14,0.39-0.5,0.72-1.09,1.01l-0.59,0.43c-0.13,0.1-0.35,0.29-0.64,0.58c-0.18,0.48-0.5,0.72-0.98,0.72l-0.24-0.14
		c-0.19,0-0.31,0.05-0.34,0.14c-0.17,0.19-0.3,0.29-0.39,0.29c-0.1,0-0.21,0.05-0.34,0.14l0.08,0.58c-0.33,0.39-0.92,0.67-1.76,0.87
		c-0.1,0-0.13-0.05-0.09-0.14c0.04-0.1,0.02-0.19-0.04-0.29c-0.65,0.19-1.17,0.58-1.57,1.15c-0.11,0.29-0.35,0.43-0.74,0.43
		c-0.29,0-0.49,0.14-0.59,0.43c-0.07,0.19-0.2,0.34-0.38,0.43s-0.35,0.1-0.5,0c-0.13,0.1-0.25,0.29-0.35,0.58
		c-0.2,0.29-0.45,0.43-0.73,0.43l-0.93,0.58c-0.42,0.1-0.8,0.34-1.13,0.72c-0.26,0.19-0.49,0.29-0.68,0.29
		c-0.46,0.19-0.73,0.43-0.84,0.72c-0.17,0.19-0.39,0.29-0.68,0.29c-0.06-0.09-0.16-0.09-0.29,0c-0.26,0.19-0.92,0.53-1.96,1.01
		c-0.19,0-0.31,0.05-0.34,0.15c-0.2,0.29-0.42,0.5-0.67,0.65c-0.25,0.14-0.44,0.27-0.57,0.36l-1.23,1.01
		c-0.39,0.29-0.61,0.48-0.64,0.58c-0.13,0.09-0.38,0.24-0.73,0.43c-0.52,0.1-1.17,0.43-1.96,1.01c-0.66,0.48-1.23,0.72-1.71,0.72
		c-0.29,0-0.49,0.14-0.59,0.43c-0.17,0.19-0.38,0.24-0.63,0.15h-0.29c-0.26,0.19-0.66,0.36-1.19,0.5c-0.54,0.14-0.92,0.26-1.14,0.36
		c-0.1,0-0.19,0-0.29,0c-0.1,0-0.21,0.05-0.34,0.14c-0.04,0.09-0.21,0.19-0.54,0.29c-0.23,0.09-0.54,0.22-0.92,0.36
		c-0.39,0.14-0.7,0.26-0.93,0.36c-0.65,0.19-1.15,0.24-1.5,0.14c-0.1,0-0.17,0.07-0.22,0.22c-0.05,0.14-0.11,0.17-0.17,0.07h-0.58
		h-0.58c-0.36,0.19-0.92,0.29-1.69,0.29h-0.29C207.5,127.22,207.38,127.27,207.38,127.27z M185.73,110.24
		c0.26-0.19,0.46-0.34,0.59-0.43c-0.16-0.09-0.21-0.29-0.15-0.58c0.05-0.29,0.07-0.53,0.05-0.72c-0.32,0.1-0.52,0.24-0.59,0.43
		c-0.07,0.19-0.3,0.43-0.7,0.72c-0.2,0.29-0.23,0.48-0.07,0.58c0.16,0.1,0.23,0.22,0.23,0.36c0,0.14,0.02,0.27,0.09,0.36
		C185.28,110.67,185.46,110.43,185.73,110.24z M199.97,116.3l0.1-0.29c-0.04-0.67,0.12-1.25,0.49-1.73
		c0.17-0.19,0.24-0.53,0.22-1.01c-0.3,0.29-0.61,0.6-0.92,0.94c-0.32,0.34-0.67,0.79-1.08,1.37c-0.13,0.1-0.2,0.22-0.2,0.36
		c-0.01,0.14,0.02,0.27,0.08,0.36c0.06,0.1,0.06,0.24-0.01,0.43c-0.01,0.29,0.11,0.48,0.37,0.58
		C199.42,117.02,199.73,116.69,199.97,116.3z M200.01,118.18c0,0,0.02-0.05,0.05-0.14c0.13-0.09,0.09-0.24-0.13-0.43h-0.14
		c-0.42,0.1-0.76,0.1-1.01,0c0.24,0.39,0.56,0.58,0.94,0.58C199.91,118.18,200.01,118.18,200.01,118.18z M202.07,118.47
		c0,0,0.23-0.1,0.68-0.29c0.19,0,0.38-0.05,0.56-0.14c0.18-0.09,0.36-0.14,0.56-0.14c0.38,0,0.76-0.09,1.11-0.29
		c0.36-0.19,0.65-0.33,0.88-0.43c0.26-0.19,0.62-0.38,1.08-0.58l1.27-0.72l1.67-1.01c0.42-0.09,0.86-0.38,1.33-0.87
		c0.52-0.38,0.9-0.62,1.13-0.72c0.72-0.38,1.19-0.77,1.43-1.15l0.39-0.29c0.16-0.19,0.38-0.38,0.64-0.58
		c0.26-0.19,0.54-0.43,0.84-0.72c0.26-0.19,0.56-0.48,0.89-0.87c0.33-0.38,0.7-0.72,1.09-1.01c0.65-0.48,1.25-0.94,1.8-1.37
		c0.54-0.43,1.08-0.84,1.6-1.23l1.93-1.73c0.1-0.29,0.25-0.43,0.45-0.43c0.13-0.09,0.19-0.19,0.18-0.29
		c-0.01-0.09,0.03-0.14,0.12-0.14c0.19,0,0.32-0.09,0.39-0.29c0.26-0.19,0.36-0.34,0.3-0.43c-0.33,0.1-0.5,0.05-0.53-0.14
		c-0.09-0.29-0.4-0.24-0.92,0.14c-0.23,0.1-0.39,0.14-0.49,0.14c-0.1,0-0.16-0.09-0.18-0.29h-0.29l-0.45,0.43
		c-0.1,0-0.19,0.05-0.27,0.14c-0.08,0.1-0.16,0.1-0.22,0h-0.29c-0.67,0-1.37,0.19-2.09,0.58c-0.84,0.19-1.36,0.29-1.55,0.29
		c-0.29,0-0.57,0.1-0.83,0.29l-1.17,0.43c-0.49,0.29-1.19,0.63-2.1,1.01c-0.65,0.19-1.07,0.43-1.27,0.72
		c-0.23,0.1-0.46,0.22-0.71,0.36c-0.25,0.14-0.48,0.27-0.71,0.36c-0.3,0.29-0.72,0.53-1.27,0.72c-0.19,0-0.49,0.14-0.88,0.43
		c-0.2,0.29-0.5,0.43-0.88,0.43c-0.1,0-0.24,0.07-0.44,0.22s-0.36,0.27-0.49,0.36h-0.29c-0.23,0.1-0.54,0.15-0.92,0.15
		c-0.38,0-0.69,0.05-0.92,0.14c-0.32,0.1-0.54,0.29-0.64,0.58c-0.17,0.19-0.29,0.41-0.38,0.65c-0.09,0.24-0.22,0.46-0.38,0.65h-0.14
		c0.12,0.19,0.09,0.36-0.11,0.5c-0.2,0.14-0.31,0.27-0.35,0.36l-0.91,1.3c-0.1,0-0.16,0.05-0.2,0.14c-0.04,0.1-0.07,0.27-0.11,0.5
		c-0.04,0.24-0.02,0.51,0.07,0.79l0.17,0.72l-0.04,1.3c0.06,0.1,0.06,0.17-0.01,0.22c-0.07,0.05-0.12,0.12-0.15,0.22
		c-0.26,0.19-0.28,0.39-0.07,0.58C201.72,118.37,202.07,118.47,202.07,118.47z M214.78,20.91c0.04-0.09,0-0.14-0.09-0.14
		c0.04-0.1,0-0.15-0.09-0.15c-0.1,0-0.16,0.05-0.2,0.15c-0.21,0.58-0.22,1.01-0.04,1.3L214.78,20.91z M245.56,22.78
		c0.13-0.1,0.16-0.17,0.08-0.22c-0.08-0.05-0.07-0.07,0.03-0.07c0.03-0.09,0.11-0.17,0.22-0.22c0.11-0.05,0.19-0.12,0.22-0.22
		c0.03-0.09,0.04-0.17,0.01-0.22c-0.03-0.05-0.1-0.07-0.19-0.07l-0.24-0.15c-0.03-0.19-0.2-0.24-0.53-0.14
		c-0.19,0-0.36,0.05-0.49,0.14c-0.39,0.29-0.7,0.34-0.92,0.15c-0.06-0.1-0.19-0.15-0.38-0.15c-0.23,0.1-0.43,0-0.62-0.29
		c-0.13,0.1-0.26,0.19-0.39,0.29c-0.13,0.1-0.23,0.24-0.3,0.43l0.81,0.14c0.23-0.09,0.4-0.05,0.53,0.15
		c0.02,0.19,0.18,0.29,0.47,0.29c0.65-0.19,1.06-0.14,1.25,0.15C245.15,22.98,245.29,22.98,245.56,22.78z M247.04,23.07
		c0,0,0.03-0.09,0.1-0.29l-0.18-0.29c-0.04,0.1-0.1,0.14-0.2,0.14c-0.1,0-0.16,0.05-0.2,0.15c-0.13,0.1-0.15,0.14-0.05,0.14
		c0.09,0,0.17,0.05,0.24,0.14C246.94,23.07,247.04,23.07,247.04,23.07z M255.54,28.27c0,0,0.05-0.14,0.16-0.43
		c0.1-0.29,0.09-0.53-0.03-0.72c0.03-0.1-0.04-0.15-0.24-0.15l-0.2,0.15c0.06,0.1,0.02,0.19-0.1,0.29c-0.13,0.1-0.22,0.19-0.25,0.29
		c-0.13,0.1-0.18,0.17-0.15,0.22c0.03,0.05,0.09,0.07,0.19,0.07c-0.04,0.1-0.01,0.15,0.09,0.15
		C255.36,28.22,255.54,28.27,255.54,28.27z M259.94,80.8c0.07-0.19,0.06-0.29-0.04-0.29c-0.1,0-0.16,0.05-0.2,0.14l0.04,0.29
		L259.94,80.8z"/>
</g>
</svg>
