<?xml version="1.0" encoding="utf-8"?>
<!-- Generator: Adobe Illustrator 23.0.1, SVG Export Plug-In . SVG Version: 6.00 Build 0)  -->
<svg version="1.1" id="Layer_1" xmlns="http://www.w3.org/2000/svg" xmlns:xlink="http://www.w3.org/1999/xlink" x="0px" y="0px"
	 viewBox="0 0 300 300" enable-background="new 0 0 300 300" xml:space="preserve">
<g>
	<path fill="#FFFFFF" d="M243.23,242.44c-21.16-10.74-42.5-21.16-63.7-31.82c3.6-2.21,7.2-4.41,10.83-6.58
		c6.19-3.69,8.24-11.7,4.64-17.94c-0.04-0.08-0.09-0.15-0.13-0.23c-3.61-6.24-11.56-8.47-17.86-4.96c-8.93,4.99-17.94,9.82-27,14.57
		c-9.06-4.75-18.07-9.58-27-14.57c-6.3-3.52-14.25-1.29-17.86,4.96c-0.04,0.08-0.09,0.15-0.13,0.23
		c-3.61,6.24-1.56,14.25,4.64,17.94c3.63,2.16,7.23,4.37,10.83,6.58c-21.2,10.66-42.54,21.08-63.7,31.82
		c-6.67,3.38-9.21,11.66-5.57,18.2c2.34,4.2,4.74,8.37,7.21,12.49c3.84,6.41,12.28,8.35,18.54,4.27
		c24.43-15.92,48.57-32.31,73.05-48.15c24.48,15.84,48.62,32.23,73.05,48.15c6.26,4.08,14.7,2.14,18.54-4.27
		c2.47-4.12,4.88-8.29,7.21-12.49C252.43,254.1,249.89,245.82,243.23,242.44z"/>
	<path fill="#FFFFFF" d="M150,18c0,42.26-16.25,99.15-30.88,90.48c-8.6-5.1-5.78-19.93-1.99-31.29c-1.41,1.58-2.87,3.16-4.4,4.74
		c-27.84,28.72-25.68,80.5,22.47,89.2c-9.16-5.48-19.81-15.93-23.29-35.56c0,0,14.4,17.65,32.51,4.18
		c18.11-13.47,22.29-52.02,22.29-52.02c9.72,11.21,26.95,62.13,5.95,81.58C218.62,155.74,232.43,98.54,150,18z"/>
</g>
</svg>
