<?xml version="1.0" encoding="utf-8"?>
<!-- Generator: Adobe Illustrator 23.0.1, SVG Export Plug-In . SVG Version: 6.00 Build 0)  -->
<svg version="1.1" id="Layer_1" xmlns="http://www.w3.org/2000/svg" xmlns:xlink="http://www.w3.org/1999/xlink" x="0px" y="0px"
	 viewBox="0 0 270 80" enable-background="new 0 0 270 80" xml:space="preserve">
<polygon fill="none" stroke="#3473A8" stroke-width="0.5" stroke-miterlimit="10" stroke-opacity="0.8" points="16.36,65.04 
	5.44,31.62 28.92,5.45 63.32,12.71 74.24,46.13 50.76,72.3 "/>
<polygon fill="none" stroke="#3473A8" stroke-width="0.5" stroke-miterlimit="10" points="62.31,59.04 33.61,68.41 11.15,48.25 
	17.38,18.71 46.07,9.34 68.53,29.5 "/>
<line fill="none" stroke="#3473A8" stroke-width="0.5" stroke-miterlimit="10" x1="17.38" y1="18.71" x2="16.36" y2="65.04"/>
<line fill="none" stroke="#3473A8" stroke-width="0.5" stroke-miterlimit="10" x1="5.44" y1="31.62" x2="33.61" y2="68.41"/>
<line fill="none" stroke="#3473A8" stroke-width="0.5" stroke-miterlimit="10" x1="62.31" y1="59.04" x2="16.36" y2="65.04"/>
<line fill="none" stroke="#3473A8" stroke-width="0.5" stroke-miterlimit="10" x1="74.24" y1="46.13" x2="33.61" y2="68.41"/>
<line fill="none" stroke="#3473A8" stroke-width="0.5" stroke-miterlimit="10" x1="68.53" y1="29.5" x2="50.76" y2="72.3"/>
<line fill="none" stroke="#3473A8" stroke-width="0.5" stroke-miterlimit="10" x1="46.07" y1="9.34" x2="74.24" y2="46.13"/>
<line fill="none" stroke="#3473A8" stroke-width="0.5" stroke-miterlimit="10" x1="17.38" y1="18.71" x2="63.32" y2="12.71"/>
<line fill="none" stroke="#3473A8" stroke-width="0.5" stroke-miterlimit="10" x1="46.07" y1="9.34" x2="5.44" y2="31.62"/>
<line fill="none" stroke="#3473A8" stroke-width="0.5" stroke-miterlimit="10" x1="28.92" y1="5.45" x2="68.53" y2="29.5"/>
<line fill="none" stroke="#3473A8" stroke-width="0.5" stroke-miterlimit="10" x1="11.15" y1="48.25" x2="28.92" y2="5.45"/>
<line fill="none" stroke="#3473A8" stroke-width="0.5" stroke-miterlimit="10" x1="50.76" y1="72.3" x2="11.15" y2="48.25"/>
<g>
	<g>
		<path fill="#3473A8" d="M100.89,11.58c-2.16-0.05-4.26,0.53-6.13,1.63c-1.87,1.1-3.35,2.49-4.65,4.17
			c-2.49,3.4-3.64,7.47-3.64,11.54s1.15,8.14,3.64,11.54c1.29,1.68,2.78,3.16,4.65,4.17c1.87,1.1,3.98,1.68,6.13,1.68v1.72
			c-2.44,0-4.89-0.72-6.99-1.87c-2.06-1.2-3.83-2.78-5.17-4.65c-2.73-3.78-3.98-8.19-3.98-12.6c0-4.41,1.25-8.86,3.98-12.55
			c1.39-1.92,3.11-3.5,5.17-4.69c2.11-1.15,4.55-1.87,6.99-1.82V11.58z M100.89,15.89c-1.48,0-2.83,0.33-4.02,1.05
			c-1.29,0.77-2.39,1.77-3.3,2.97c-1.87,2.49-2.78,5.75-2.78,9s0.91,6.51,2.78,9c0.91,1.2,2.01,2.2,3.3,2.97
			c1.29,0.72,2.63,1.1,4.02,1.1v1.72c-1.68,0-3.3-0.43-4.89-1.34c-1.44-0.81-2.73-1.96-3.83-3.45c-2.06-2.87-3.11-6.37-3.11-10.01
			c0-3.64,1.05-7.14,3.11-10.01c1.1-1.48,2.4-2.63,3.83-3.45c1.53-0.91,3.21-1.34,4.89-1.29V15.89z"/>
		<path fill="#3473A8" d="M126.8,35c0.43-0.53,0.86-0.96,1.25-1.48c2.83-3.98,3.3-9.2,1.39-13.65c-1.92-4.21-5.89-7.47-10.58-8.14
			l1.25,2.92c4.31,1.39,7.52,5.27,7.9,9.87c0.38,4.6-2.25,9.24-6.47,11.16v2.83c1.15-0.38,2.2-1.01,3.21-1.72l4.74,11.3h-1.87
			l-3.69-8.77c-0.77,0.38-1.58,0.77-2.4,1.01v7.76h-1.72V29.54l-2.59-6.13v24.67h-1.72V14.89l7.52,17.82
			c0.77-0.72,1.39-1.44,1.87-2.25l-8.72-20.64c1.87-0.05,3.69,0.19,5.36,0.77c4.74,1.53,8.53,5.37,10.06,10.11
			c1.53,4.98,0.58,10.54-2.78,14.66l5.36,12.74h-1.87L126.8,35z M125.84,28.35c1.1-3.45,0.1-7.23-2.35-9.68
			c-0.62-0.62-1.29-1.15-1.96-1.48v0.91L125.84,28.35z"/>
		<path fill="#3473A8" d="M148.92,11.49v14.61h2.54V14.02h10.78v1.72h-9.05v10.35h9.05v1.68h-13.32v14.37h2.54V30.31h10.78v1.68
			h-9.05v10.15h9.05v1.72h-9.05v2.54h9.05v1.68h-14.99V46.4V9.81h14.99v1.68H148.92z M151.46,46.4v-2.54h-2.54v2.54H151.46z"/>
		<path fill="#3473A8" d="M196.2,18.81v29.27h-1.72V18.81c0-3.98-3.3-7.28-7.28-7.28s-7.23,3.3-7.23,7.28v13.79l2.59,1.48V18.81
			c0-2.49,2.11-4.69,4.65-4.69c2.59,0,4.69,2.2,4.69,4.69v17.67c-2.54-1.49-5.08-2.87-7.62-4.36v2.97c2.54,1.49,5.08,2.87,7.62,4.36
			v8.62h-1.72v-7.62l-5.89-3.4v11.02h-1.72V36.1l-2.59-1.48v13.46h-1.72V26.67v-7.86c0-4.36,3.26-8.09,7.47-8.86
			C191.07,9.04,196.2,13.21,196.2,18.81z M184.27,30.12l5.89,3.35V18.81c0-1.68-1.29-2.97-2.97-2.97c-1.58,0-2.92,1.29-2.92,2.97
			V30.12z"/>
		<path fill="#3473A8" d="M218.37,11.58h-1.77h-6.42V9.81h18.97v1.77h-6.51v2.54h6.51v1.63h-6.51v32.33h-1.82V15.75h-2.44v32.33
			h-1.77V15.75h-6.42v-1.63h6.42h1.77h2.44v-2.54H218.37z"/>
		<path fill="#3473A8" d="M245.19,11.49v14.61h2.54V14.02h10.78v1.72h-9.05v10.35h9.05v1.68h-13.32v14.37h2.54V30.31h10.78v1.68
			h-9.05v10.15h9.05v1.72h-9.05v2.54h9.05v1.68h-14.99V46.4V9.81h14.99v1.68H245.19z M247.73,46.4v-2.54h-2.54v2.54H247.73z"/>
	</g>
</g>
<g>
	<path fill="#3473A8" d="M87.5,68.55v-8.91H85.8v-1.39h4.89v1.39h-1.71v8.91H87.5z"/>
	<path fill="#3473A8" d="M91.33,68.55v-10.3h1.47v4.41h1.82v-4.41h1.48v10.3h-1.48v-4.58h-1.82v4.58H91.33z"/>
	<path fill="#3473A8" d="M97.5,68.55v-10.3h4.4v1.39h-2.92v3.02h2.55v1.39h-2.55v3.02h2.92v1.47H97.5z"/>
	<path fill="#3473A8" d="M110.22,65.61v0.64c0,0.32-0.06,0.62-0.18,0.9c-0.12,0.28-0.29,0.54-0.5,0.76
		c-0.21,0.22-0.46,0.4-0.75,0.53s-0.59,0.2-0.92,0.2c-0.28,0-0.56-0.04-0.85-0.12s-0.55-0.21-0.78-0.4
		c-0.23-0.19-0.42-0.44-0.57-0.75s-0.22-0.69-0.22-1.16v-5.67c0-0.34,0.06-0.65,0.17-0.94c0.12-0.29,0.28-0.54,0.49-0.75
		c0.21-0.21,0.46-0.38,0.76-0.5c0.29-0.12,0.62-0.18,0.98-0.18c0.69,0,1.26,0.23,1.69,0.68c0.21,0.22,0.38,0.49,0.5,0.79
		c0.12,0.3,0.18,0.63,0.18,0.99v0.58h-1.48v-0.49c0-0.29-0.08-0.54-0.25-0.75c-0.16-0.21-0.39-0.32-0.67-0.32
		c-0.37,0-0.61,0.11-0.73,0.34c-0.12,0.23-0.18,0.51-0.18,0.86v5.26c0,0.3,0.07,0.55,0.2,0.75c0.13,0.2,0.36,0.3,0.7,0.3
		c0.1,0,0.2-0.02,0.31-0.05c0.11-0.03,0.21-0.09,0.31-0.17c0.09-0.08,0.16-0.18,0.22-0.32c0.06-0.13,0.09-0.3,0.09-0.51v-0.51
		H110.22z"/>
	<path fill="#3473A8" d="M111.42,68.55v-10.3h2.37c1.74,0,2.6,1.01,2.6,3.02c0,0.61-0.09,1.12-0.28,1.55
		c-0.19,0.42-0.52,0.77-0.99,1.03l1.59,4.7h-1.56l-1.37-4.4h-0.88v4.4H111.42z M112.9,59.64v3.21h0.84c0.26,0,0.47-0.04,0.62-0.11
		s0.27-0.18,0.36-0.31c0.08-0.13,0.13-0.3,0.16-0.5c0.03-0.2,0.04-0.43,0.04-0.69c0-0.26-0.01-0.49-0.04-0.69
		c-0.03-0.2-0.09-0.37-0.17-0.51c-0.18-0.27-0.53-0.41-1.04-0.41H112.9z"/>
	<path fill="#3473A8" d="M117.58,68.55v-10.3h4.4v1.39h-2.92v3.02h2.55v1.39h-2.55v3.02h2.92v1.47H117.58z"/>
	<path fill="#3473A8" d="M122.27,68.55l2.3-10.3h1.23l2.3,10.3h-1.47l-0.43-2.21h-2.01l-0.43,2.21H122.27z M125.91,64.95l-0.72-3.73
		h-0.03l-0.72,3.73H125.91z"/>
	<path fill="#3473A8" d="M128.99,68.55v-8.91h-1.71v-1.39h4.89v1.39h-1.71v8.91H128.99z"/>
	<path fill="#3473A8" d="M132.87,68.55v-10.3h1.48v10.3H132.87z"/>
	<path fill="#3473A8" d="M140.78,58.25l-2.11,10.3h-1.3l-2.1-10.3h1.56l1.17,7.19h0.03l1.19-7.19H140.78z"/>
	<path fill="#3473A8" d="M141.66,68.55v-10.3h4.4v1.39h-2.92v3.02h2.55v1.39h-2.55v3.02h2.92v1.47H141.66z"/>
	<path fill="#3473A8" d="M150.67,68.55v-8.91h-1.71v-1.39h4.89v1.39h-1.71v8.91H150.67z"/>
	<path fill="#3473A8" d="M154.5,68.55v-10.3h1.47v4.41h1.82v-4.41h1.48v10.3h-1.48v-4.58h-1.82v4.58H154.5z"/>
	<path fill="#3473A8" d="M160.71,68.55v-10.3h1.48v10.3H160.71z"/>
	<path fill="#3473A8" d="M163.55,68.55v-10.3h1.42l2.23,6.2h0.03v-6.2h1.47v10.3h-1.39l-2.26-6.19h-0.03v6.19H163.55z"/>
	<path fill="#3473A8" d="M170.03,68.55v-10.3h1.47v4.7h0.03l2.15-4.7h1.48l-2.01,4.12l2.39,6.17h-1.56l-1.68-4.57l-0.8,1.49v3.08
		H170.03z"/>
	<path fill="#3473A8" d="M176.19,68.55v-10.3h4.4v1.39h-2.92v3.02h2.55v1.39h-2.55v3.02h2.92v1.47H176.19z"/>
	<path fill="#3473A8" d="M181.54,68.55v-10.3h2.37c1.74,0,2.6,1.01,2.6,3.02c0,0.61-0.09,1.12-0.28,1.55
		c-0.19,0.42-0.52,0.77-0.99,1.03l1.59,4.7h-1.56l-1.37-4.4h-0.88v4.4H181.54z M183.02,59.64v3.21h0.84c0.26,0,0.47-0.04,0.62-0.11
		s0.27-0.18,0.36-0.31c0.08-0.13,0.13-0.3,0.16-0.5c0.03-0.2,0.04-0.43,0.04-0.69c0-0.26-0.01-0.49-0.04-0.69
		c-0.03-0.2-0.09-0.37-0.17-0.51c-0.18-0.27-0.53-0.41-1.04-0.41H183.02z"/>
	<path fill="#3473A8" d="M192.48,61.21H191v-0.33c0-0.34-0.08-0.63-0.24-0.87c-0.16-0.25-0.43-0.37-0.8-0.37
		c-0.2,0-0.37,0.04-0.49,0.12c-0.12,0.08-0.23,0.17-0.3,0.29c-0.08,0.12-0.13,0.27-0.16,0.43c-0.03,0.16-0.04,0.33-0.04,0.5
		c0,0.2,0.01,0.37,0.02,0.51c0.01,0.13,0.05,0.25,0.11,0.36c0.06,0.11,0.14,0.2,0.25,0.27c0.11,0.08,0.26,0.15,0.46,0.23l1.13,0.45
		c0.33,0.13,0.59,0.27,0.8,0.44c0.2,0.17,0.36,0.36,0.48,0.59c0.11,0.23,0.18,0.49,0.22,0.79c0.04,0.29,0.06,0.63,0.06,1
		c0,0.43-0.04,0.84-0.13,1.21c-0.09,0.37-0.23,0.69-0.42,0.95c-0.2,0.27-0.47,0.48-0.8,0.64c-0.33,0.15-0.73,0.23-1.2,0.23
		c-0.36,0-0.69-0.06-1-0.19c-0.31-0.12-0.57-0.3-0.8-0.52s-0.4-0.48-0.53-0.77c-0.13-0.29-0.2-0.61-0.2-0.96v-0.55h1.47v0.46
		c0,0.27,0.08,0.51,0.24,0.73c0.16,0.22,0.43,0.33,0.8,0.33c0.25,0,0.45-0.04,0.59-0.11s0.25-0.18,0.33-0.31s0.12-0.3,0.14-0.48
		c0.01-0.19,0.02-0.4,0.02-0.63c0-0.27-0.01-0.49-0.03-0.67c-0.02-0.17-0.06-0.31-0.12-0.42c-0.07-0.11-0.16-0.19-0.27-0.26
		c-0.11-0.07-0.26-0.14-0.44-0.22l-1.06-0.43c-0.64-0.26-1.06-0.6-1.28-1.03c-0.22-0.43-0.33-0.97-0.33-1.61
		c0-0.39,0.05-0.75,0.16-1.1c0.11-0.35,0.26-0.65,0.48-0.9c0.2-0.25,0.46-0.45,0.77-0.6c0.31-0.15,0.69-0.22,1.12-0.22
		c0.37,0,0.7,0.07,1,0.2s0.57,0.31,0.79,0.54c0.44,0.46,0.67,0.99,0.67,1.59V61.21z"/>
	<path fill="#3473A8" d="M200.95,65.61v0.64c0,0.32-0.06,0.62-0.18,0.9c-0.12,0.28-0.29,0.54-0.5,0.76
		c-0.21,0.22-0.46,0.4-0.75,0.53s-0.59,0.2-0.92,0.2c-0.28,0-0.56-0.04-0.85-0.12s-0.55-0.21-0.78-0.4
		c-0.23-0.19-0.42-0.44-0.57-0.75s-0.22-0.69-0.22-1.16v-5.67c0-0.34,0.06-0.65,0.17-0.94c0.12-0.29,0.28-0.54,0.49-0.75
		c0.21-0.21,0.46-0.38,0.76-0.5c0.29-0.12,0.62-0.18,0.98-0.18c0.69,0,1.26,0.23,1.69,0.68c0.21,0.22,0.38,0.49,0.5,0.79
		c0.12,0.3,0.18,0.63,0.18,0.99v0.58h-1.48v-0.49c0-0.29-0.08-0.54-0.25-0.75c-0.16-0.21-0.39-0.32-0.67-0.32
		c-0.37,0-0.61,0.11-0.73,0.34c-0.12,0.23-0.18,0.51-0.18,0.86v5.26c0,0.3,0.07,0.55,0.2,0.75c0.13,0.2,0.36,0.3,0.7,0.3
		c0.1,0,0.2-0.02,0.31-0.05c0.11-0.03,0.21-0.09,0.31-0.17c0.09-0.08,0.16-0.18,0.22-0.32c0.06-0.13,0.09-0.3,0.09-0.51v-0.51
		H200.95z"/>
	<path fill="#3473A8" d="M202.06,60.68c0-0.41,0.07-0.78,0.22-1.1c0.14-0.32,0.34-0.58,0.58-0.8c0.23-0.2,0.49-0.36,0.79-0.46
		c0.29-0.11,0.59-0.16,0.89-0.16s0.6,0.05,0.89,0.16c0.29,0.11,0.56,0.26,0.8,0.46c0.23,0.21,0.42,0.48,0.56,0.8
		c0.14,0.32,0.22,0.68,0.22,1.1v5.44c0,0.43-0.07,0.81-0.22,1.11c-0.14,0.31-0.33,0.56-0.56,0.77c-0.24,0.21-0.51,0.37-0.8,0.48
		c-0.29,0.11-0.59,0.16-0.89,0.16s-0.59-0.05-0.89-0.16c-0.29-0.11-0.56-0.26-0.79-0.48c-0.24-0.2-0.43-0.46-0.58-0.77
		c-0.14-0.31-0.22-0.68-0.22-1.11V60.68z M203.54,66.12c0,0.36,0.1,0.62,0.3,0.79c0.2,0.17,0.43,0.25,0.7,0.25
		c0.27,0,0.5-0.08,0.7-0.25c0.2-0.17,0.3-0.43,0.3-0.79v-5.44c0-0.36-0.1-0.62-0.3-0.79c-0.2-0.17-0.43-0.25-0.7-0.25
		c-0.27,0-0.5,0.08-0.7,0.25s-0.3,0.43-0.3,0.79V66.12z"/>
	<path fill="#3473A8" d="M208.25,68.55v-10.3h1.42l2.23,6.2h0.03v-6.2h1.47v10.3h-1.39l-2.26-6.19h-0.03v6.19H208.25z"/>
	<path fill="#3473A8" d="M214.73,68.55v-10.3h4.4v1.39h-2.92v3.12h2.55v1.39h-2.55v4.4H214.73z"/>
	<path fill="#3473A8" d="M220.08,68.55v-10.3h4.4v1.39h-2.92v3.02h2.55v1.39h-2.55v3.02h2.92v1.47H220.08z"/>
	<path fill="#3473A8" d="M225.43,68.55v-10.3h2.37c1.74,0,2.6,1.01,2.6,3.02c0,0.61-0.09,1.12-0.28,1.55
		c-0.19,0.42-0.52,0.77-0.99,1.03l1.59,4.7h-1.56l-1.37-4.4h-0.88v4.4H225.43z M226.91,59.64v3.21h0.84c0.26,0,0.47-0.04,0.62-0.11
		s0.27-0.18,0.36-0.31c0.08-0.13,0.13-0.3,0.16-0.5c0.03-0.2,0.04-0.43,0.04-0.69c0-0.26-0.01-0.49-0.04-0.69
		c-0.03-0.2-0.09-0.37-0.17-0.51c-0.18-0.27-0.53-0.41-1.04-0.41H226.91z"/>
	<path fill="#3473A8" d="M231.59,68.55v-10.3h4.4v1.39h-2.92v3.02h2.55v1.39h-2.55v3.02h2.92v1.47H231.59z"/>
	<path fill="#3473A8" d="M236.89,68.55v-10.3h1.42l2.23,6.2h0.03v-6.2h1.47v10.3h-1.39l-2.26-6.19h-0.03v6.19H236.89z"/>
	<path fill="#3473A8" d="M248.05,65.61v0.64c0,0.32-0.06,0.62-0.18,0.9c-0.12,0.28-0.29,0.54-0.5,0.76
		c-0.21,0.22-0.46,0.4-0.75,0.53s-0.59,0.2-0.92,0.2c-0.28,0-0.56-0.04-0.85-0.12s-0.55-0.21-0.78-0.4
		c-0.23-0.19-0.42-0.44-0.57-0.75s-0.22-0.69-0.22-1.16v-5.67c0-0.34,0.06-0.65,0.17-0.94c0.12-0.29,0.28-0.54,0.49-0.75
		c0.21-0.21,0.46-0.38,0.76-0.5c0.29-0.12,0.62-0.18,0.98-0.18c0.69,0,1.26,0.23,1.69,0.68c0.21,0.22,0.38,0.49,0.5,0.79
		c0.12,0.3,0.18,0.63,0.18,0.99v0.58h-1.48v-0.49c0-0.29-0.08-0.54-0.25-0.75c-0.16-0.21-0.39-0.32-0.67-0.32
		c-0.37,0-0.61,0.11-0.73,0.34c-0.12,0.23-0.18,0.51-0.18,0.86v5.26c0,0.3,0.07,0.55,0.2,0.75c0.13,0.2,0.36,0.3,0.7,0.3
		c0.1,0,0.2-0.02,0.31-0.05c0.11-0.03,0.21-0.09,0.31-0.17c0.09-0.08,0.16-0.18,0.22-0.32c0.06-0.13,0.09-0.3,0.09-0.51v-0.51
		H248.05z"/>
	<path fill="#3473A8" d="M249.25,68.55v-10.3h4.4v1.39h-2.92v3.02h2.55v1.39h-2.55v3.02h2.92v1.47H249.25z"/>
</g>
</svg>
